{"glyphs":{"0":{"ha":868,"x_min":83,"x_max":785,"o":"m 434 -14 q 175 122 267 -14 q 83 505 83 257 q 176 887 83 751 q 434 1024 268 1024 q 692 887 600 1024 q 785 505 785 751 q 693 122 785 257 q 434 -14 601 -14 m 434 95 q 606 201 545 95 q 667 505 667 308 q 605 810 667 702 q 434 917 544 917 q 263 810 325 917 q 201 505 201 702 q 263 201 201 308 q 434 95 324 95 z "},"1":{"ha":645,"x_min":85,"x_max":460,"o":"m 460 1010 l 460 0 l 337 0 l 337 882 l 331 882 l 85 718 l 85 842 l 337 1010 l 460 1010 z "},"2":{"ha":840,"x_min":105,"x_max":742,"o":"m 105 0 l 105 89 l 438 454 q 535 565 497 518 q 591 655 573 613 q 610 744 610 697 q 554 871 610 824 q 416 917 499 917 q 277 865 328 917 q 225 726 225 812 l 109 726 q 149 882 109 815 q 261 986 190 949 q 420 1024 332 1024 q 578 986 509 1024 q 685 885 646 949 q 724 744 724 822 q 704 635 724 688 q 635 517 684 582 q 499 359 586 452 l 272 116 l 272 109 l 742 109 l 742 0 l 105 0 z "},"3":{"ha":884,"x_min":103,"x_max":787,"o":"m 446 -14 q 272 20 348 -14 q 151 113 196 53 q 103 253 107 173 l 227 253 q 294 137 232 180 q 444 95 356 95 q 604 144 541 95 q 667 274 667 194 q 605 411 667 358 q 428 464 543 464 l 347 464 l 347 572 l 428 572 q 575 620 518 572 q 631 748 631 668 q 581 871 631 824 q 448 917 532 917 q 349 898 396 917 q 274 844 303 879 q 243 758 245 808 l 124 758 q 172 897 127 837 q 290 990 217 957 q 450 1024 363 1024 q 611 986 544 1024 q 714 887 678 948 q 750 754 750 825 q 705 608 750 668 q 584 525 660 548 l 584 517 q 733 436 680 501 q 787 274 787 370 q 743 127 787 192 q 621 24 698 61 q 446 -14 544 -14 z "},"4":{"ha":892,"x_min":81,"x_max":811,"o":"m 81 207 l 81 308 l 525 1010 l 673 1010 l 673 316 l 811 316 l 811 207 l 673 207 l 673 0 l 556 0 l 556 207 l 81 207 m 556 316 l 556 854 l 548 854 l 213 324 l 213 316 l 556 316 z "},"5":{"ha":844,"x_min":107,"x_max":754,"o":"m 420 -14 q 264 21 333 -14 q 152 115 194 55 q 107 253 110 176 l 225 253 q 287 139 232 184 q 420 95 343 95 q 531 124 482 95 q 607 204 580 153 q 635 320 635 255 q 606 438 635 386 q 527 520 578 490 q 412 550 477 550 q 317 536 366 551 q 237 499 268 522 l 122 513 l 183 1010 l 708 1010 l 708 902 l 286 902 l 251 604 l 256 604 q 334 645 288 628 q 432 661 381 661 q 598 617 525 661 q 712 496 670 573 q 754 322 754 420 q 710 149 754 225 q 592 30 667 73 q 420 -14 516 -14 z "},"6":{"ha":866,"x_min":89,"x_max":777,"o":"m 440 -14 q 316 10 378 -13 q 202 87 254 33 q 120 233 151 141 q 89 466 89 326 q 187 879 89 733 q 456 1024 285 1024 q 607 990 541 1024 q 715 896 673 956 q 769 758 757 836 l 649 758 q 584 871 632 826 q 456 915 536 915 q 271 813 338 915 q 203 527 204 711 l 211 527 q 317 625 253 589 q 460 661 382 661 q 618 618 546 661 q 734 499 690 575 q 777 326 777 423 q 735 154 777 232 q 618 31 693 76 q 440 -14 542 -15 m 440 95 q 552 126 502 95 q 630 209 601 157 q 659 326 659 261 q 631 440 659 388 q 555 522 603 491 q 444 552 506 552 q 331 520 381 552 q 251 436 281 488 q 221 324 221 384 q 249 211 221 263 q 327 127 278 159 q 440 95 377 95 z "},"7":{"ha":793,"x_min":67,"x_max":714,"o":"m 136 0 l 588 894 l 588 902 l 67 902 l 67 1010 l 714 1010 l 714 896 l 264 0 l 136 0 z "},"8":{"ha":856,"x_min":84,"x_max":771,"o":"m 428 -14 q 249 22 327 -14 q 128 123 171 59 q 85 268 84 186 q 110 387 84 332 q 180 478 136 441 q 280 525 225 515 l 280 531 q 165 612 208 549 q 122 756 122 675 q 161 893 122 833 q 270 989 201 954 q 428 1024 339 1024 q 585 989 516 1024 q 694 893 654 954 q 734 756 733 833 q 690 612 733 675 q 576 531 647 549 l 576 525 q 675 478 631 515 q 745 387 719 441 q 771 268 771 332 q 727 123 771 186 q 606 22 684 59 q 428 -14 529 -14 m 428 95 q 591 144 531 95 q 651 274 651 193 q 621 375 651 331 q 542 444 592 419 q 428 470 492 470 q 313 444 363 470 q 234 375 262 419 q 205 274 205 331 q 264 144 205 193 q 428 95 324 95 m 428 574 q 562 622 509 574 q 616 748 615 669 q 563 871 615 825 q 428 917 512 917 q 292 871 343 917 q 241 748 240 825 q 293 622 240 669 q 428 574 345 574 z "},"9":{"ha":866,"x_min":89,"x_max":777,"o":"m 426 1024 q 550 1000 488 1023 q 664 924 613 977 q 746 778 715 870 q 777 546 777 686 q 679 132 777 277 q 410 -14 581 -14 q 199 60 283 -14 q 97 254 114 135 l 217 254 q 282 140 233 185 q 410 95 330 95 q 595 197 527 95 q 663 485 663 299 l 655 485 q 549 387 614 423 q 406 351 485 351 q 247 394 320 351 q 132 513 175 437 q 89 687 89 589 q 130 856 89 779 q 248 980 172 934 q 426 1024 324 1025 m 426 915 q 314 885 364 915 q 236 802 265 854 q 207 687 207 750 q 235 572 207 623 q 311 490 263 520 q 422 460 360 460 q 535 492 484 460 q 615 576 585 524 q 645 689 645 628 q 617 799 645 748 q 539 883 588 851 q 426 915 489 915 z "},"A":{"ha":939,"x_min":36,"x_max":904,"o":"m 164 0 l 36 0 l 406 1010 l 533 1010 l 904 0 l 775 0 l 674 286 l 265 286 l 164 0 m 304 395 l 635 395 l 473 850 l 466 850 l 304 395 z "},"Ä":{"ha":939,"x_min":36,"x_max":904,"o":"m 164 0 l 36 0 l 406 1010 l 533 1010 l 904 0 l 775 0 l 674 286 l 265 286 l 164 0 m 304 395 l 635 395 l 473 850 l 466 850 l 304 395 m 327 1136 q 273 1160 296 1136 q 249 1215 249 1184 q 273 1272 249 1249 q 327 1294 296 1294 q 384 1272 362 1294 q 406 1215 406 1249 q 384 1160 406 1184 q 327 1136 362 1136 m 612 1136 q 557 1160 581 1136 q 533 1215 533 1184 q 557 1272 533 1249 q 612 1294 581 1294 q 668 1272 646 1294 q 690 1215 690 1249 q 668 1160 690 1184 q 612 1136 646 1136 z "},"Ã":{"ha":939,"x_min":36,"x_max":904,"o":"m 164 0 l 36 0 l 406 1010 l 533 1010 l 904 0 l 775 0 l 674 286 l 265 286 l 164 0 m 304 395 l 635 395 l 473 850 l 466 850 l 304 395 m 318 1111 l 227 1115 q 270 1238 227 1190 q 377 1286 313 1286 q 441 1271 414 1286 q 494 1239 468 1255 q 556 1223 521 1223 q 604 1245 584 1223 q 623 1298 623 1267 l 712 1290 q 669 1168 712 1213 q 562 1123 626 1123 q 506 1132 528 1123 q 467 1154 484 1142 q 430 1176 449 1166 q 383 1186 411 1186 q 336 1164 355 1186 q 318 1111 318 1142 z "},"À":{"ha":939,"x_min":36,"x_max":904,"o":"m 164 0 l 36 0 l 406 1010 l 533 1010 l 904 0 l 775 0 l 674 286 l 265 286 l 164 0 m 304 395 l 635 395 l 473 850 l 466 850 l 304 395 m 420 1113 l 266 1342 l 402 1342 l 523 1113 l 420 1113 z "},"Á":{"ha":939,"x_min":36,"x_max":904,"o":"m 164 0 l 36 0 l 406 1010 l 533 1010 l 904 0 l 775 0 l 674 286 l 265 286 l 164 0 m 304 395 l 635 395 l 473 850 l 466 850 l 304 395 m 416 1113 l 537 1342 l 673 1342 l 519 1113 l 416 1113 z "},"Â":{"ha":939,"x_min":36,"x_max":904,"o":"m 164 0 l 36 0 l 406 1010 l 533 1010 l 904 0 l 775 0 l 674 286 l 265 286 l 164 0 m 304 395 l 635 395 l 473 850 l 466 850 l 304 395 m 572 1101 l 470 1239 l 367 1101 l 256 1101 l 256 1109 l 416 1314 l 523 1314 l 683 1109 l 683 1101 l 572 1101 z "},"Å":{"ha":939,"x_min":36,"x_max":904,"o":"m 164 0 l 36 0 l 406 1010 l 533 1010 l 904 0 l 775 0 l 674 286 l 265 286 l 164 0 m 304 395 l 635 395 l 473 850 l 466 850 l 304 395 m 470 1079 q 368 1121 410 1079 q 327 1222 327 1163 q 368 1323 327 1281 q 470 1365 410 1365 q 571 1323 529 1365 q 613 1222 613 1281 q 571 1121 613 1163 q 470 1079 529 1079 m 470 1150 q 520 1171 500 1150 q 541 1222 541 1192 q 520 1273 541 1252 q 470 1294 500 1294 q 419 1273 439 1294 q 399 1222 399 1252 q 419 1171 399 1192 q 470 1150 439 1150 z "},"Ǻ":{"ha":939,"x_min":36,"x_max":904,"o":"m 164 0 l 36 0 l 406 1010 l 533 1010 l 904 0 l 775 0 l 674 286 l 265 286 l 164 0 m 304 395 l 635 395 l 473 850 l 466 850 l 304 395 m 470 1080 q 368 1119 410 1080 q 327 1215 327 1159 q 368 1311 327 1272 q 470 1351 410 1351 q 571 1311 529 1351 q 613 1215 613 1272 q 571 1119 613 1159 q 470 1080 529 1080 m 470 1147 q 520 1167 500 1147 q 541 1215 541 1187 q 520 1264 541 1244 q 470 1284 500 1284 q 419 1264 439 1284 q 399 1215 399 1244 q 419 1167 399 1187 q 470 1147 439 1147 m 420 1391 l 519 1513 l 643 1513 l 516 1391 l 420 1391 z "},"":{"ha":939,"x_min":36,"x_max":915,"o":"m 164 0 l 36 0 l 406 1010 l 533 1010 l 904 0 l 775 0 l 674 286 l 265 286 l 164 0 m 304 395 l 635 395 l 473 850 l 466 850 l 304 395 m 470 1079 q 368 1121 410 1079 q 327 1222 327 1163 q 368 1323 327 1281 q 470 1365 410 1365 q 571 1323 529 1365 q 613 1222 613 1281 q 571 1121 613 1163 q 470 1079 529 1079 m 470 1150 q 520 1171 500 1150 q 541 1222 541 1192 q 520 1273 541 1252 q 470 1294 500 1294 q 419 1273 439 1294 q 399 1222 399 1252 q 419 1171 399 1192 q 470 1150 439 1150 m 811 -296 q 710 -263 750 -296 q 671 -166 671 -229 q 712 -57 671 -111 q 850 41 753 -3 l 904 0 q 824 -69 859 -33 q 789 -150 789 -106 q 800 -185 789 -172 q 840 -197 811 -197 q 880 -191 863 -197 q 908 -180 897 -185 l 915 -266 q 873 -286 899 -277 q 811 -296 846 -296 z "},"Ā":{"ha":939,"x_min":36,"x_max":904,"o":"m 164 0 l 36 0 l 406 1010 l 533 1010 l 904 0 l 775 0 l 674 286 l 265 286 l 164 0 m 304 395 l 635 395 l 473 850 l 466 850 l 304 395 m 700 1263 l 700 1164 l 239 1164 l 239 1263 l 700 1263 z "},"Ă":{"ha":939,"x_min":36,"x_max":904,"o":"m 164 0 l 36 0 l 406 1010 l 533 1010 l 904 0 l 775 0 l 674 286 l 265 286 l 164 0 m 304 395 l 635 395 l 473 850 l 466 850 l 304 395 m 566 1263 l 675 1263 q 619 1132 675 1183 q 470 1081 564 1081 q 321 1132 376 1081 q 266 1263 266 1183 l 375 1263 q 396 1195 375 1224 q 470 1166 418 1166 q 544 1195 521 1166 q 566 1263 566 1224 z "},"Ą":{"ha":939,"x_min":36,"x_max":915,"o":"m 164 0 l 36 0 l 406 1010 l 533 1010 l 904 0 l 775 0 l 674 286 l 265 286 l 164 0 m 304 395 l 635 395 l 473 850 l 466 850 l 304 395 m 811 -296 q 710 -263 750 -296 q 671 -166 671 -229 q 712 -57 671 -111 q 850 41 753 -3 l 904 0 q 824 -69 859 -33 q 789 -150 789 -106 q 800 -185 789 -172 q 840 -197 811 -197 q 880 -191 863 -197 q 908 -180 897 -185 l 915 -266 q 873 -286 899 -277 q 811 -296 846 -296 z "},"Ǎ":{"ha":939,"x_min":36,"x_max":904,"o":"m 164 0 l 36 0 l 406 1010 l 533 1010 l 904 0 l 775 0 l 674 286 l 265 286 l 164 0 m 304 395 l 635 395 l 473 850 l 466 850 l 304 395 m 367 1314 l 470 1176 l 572 1314 l 683 1314 l 683 1306 l 523 1101 l 416 1101 l 256 1306 l 256 1314 l 367 1314 z "},"Ǟ":{"ha":939,"x_min":36,"x_max":904,"o":"m 164 0 l 36 0 l 406 1010 l 533 1010 l 904 0 l 775 0 l 674 286 l 265 286 l 164 0 m 304 395 l 635 395 l 473 850 l 466 850 l 304 395 m 700 1515 l 700 1417 l 239 1417 l 239 1515 l 700 1515 m 327 1136 q 273 1160 296 1136 q 249 1215 249 1184 q 273 1272 249 1249 q 327 1294 296 1294 q 384 1272 362 1294 q 406 1215 406 1249 q 384 1160 406 1184 q 327 1136 362 1136 m 612 1136 q 557 1160 581 1136 q 533 1215 533 1184 q 557 1272 533 1249 q 612 1294 581 1294 q 668 1272 646 1294 q 690 1215 690 1249 q 668 1160 690 1184 q 612 1136 646 1136 z "},"Ǡ":{"ha":939,"x_min":36,"x_max":904,"o":"m 164 0 l 36 0 l 406 1010 l 533 1010 l 904 0 l 775 0 l 674 286 l 265 286 l 164 0 m 304 395 l 635 395 l 473 850 l 466 850 l 304 395 m 700 1515 l 700 1417 l 239 1417 l 239 1515 l 700 1515 m 470 1136 q 411 1160 436 1136 q 387 1215 387 1183 q 411 1271 387 1248 q 470 1294 436 1294 q 528 1271 504 1294 q 552 1215 552 1248 q 528 1160 552 1183 q 470 1136 504 1136 z "},"Ȁ":{"ha":939,"x_min":36,"x_max":904,"o":"m 164 0 l 36 0 l 406 1010 l 533 1010 l 904 0 l 775 0 l 674 286 l 265 286 l 164 0 m 304 395 l 635 395 l 473 850 l 466 850 l 304 395 m 526 1113 l 405 1342 l 553 1342 l 627 1113 l 526 1113 m 317 1113 l 154 1342 l 299 1342 l 419 1113 l 317 1113 z "},"Ȃ":{"ha":939,"x_min":36,"x_max":904,"o":"m 164 0 l 36 0 l 406 1010 l 533 1010 l 904 0 l 775 0 l 674 286 l 265 286 l 164 0 m 304 395 l 635 395 l 473 850 l 466 850 l 304 395 m 264 1136 q 320 1268 264 1216 q 470 1320 375 1320 q 618 1268 564 1320 q 673 1136 673 1216 l 564 1136 q 542 1206 564 1176 q 470 1235 520 1235 q 395 1205 416 1235 q 373 1136 373 1175 l 264 1136 z "},"Ȧ":{"ha":939,"x_min":36,"x_max":904,"o":"m 164 0 l 36 0 l 406 1010 l 533 1010 l 904 0 l 775 0 l 674 286 l 265 286 l 164 0 m 304 395 l 635 395 l 473 850 l 466 850 l 304 395 m 470 1136 q 411 1160 436 1136 q 387 1215 387 1183 q 411 1271 387 1248 q 470 1294 436 1294 q 528 1271 504 1294 q 552 1215 552 1248 q 528 1160 552 1183 q 470 1136 504 1136 z "},"Ḁ":{"ha":939,"x_min":36,"x_max":904,"o":"m 164 0 l 36 0 l 406 1010 l 533 1010 l 904 0 l 775 0 l 674 286 l 265 286 l 164 0 m 304 395 l 635 395 l 473 850 l 466 850 l 304 395 m 349 -166 q 384 -83 349 -115 q 470 -51 419 -51 q 553 -83 517 -51 q 590 -166 590 -115 q 553 -249 590 -218 q 470 -280 517 -280 q 384 -249 419 -280 q 349 -166 349 -218 m 410 -166 q 427 -208 410 -191 q 470 -225 444 -225 q 510 -208 492 -225 q 529 -166 529 -191 q 510 -124 529 -141 q 470 -107 492 -107 q 427 -124 444 -107 q 410 -166 410 -141 z "},"Ạ":{"ha":939,"x_min":36,"x_max":904,"o":"m 164 0 l 36 0 l 406 1010 l 533 1010 l 904 0 l 775 0 l 674 286 l 265 286 l 164 0 m 304 395 l 635 395 l 473 850 l 466 850 l 304 395 m 470 -251 q 411 -227 436 -251 q 387 -172 387 -204 q 411 -116 387 -139 q 470 -93 436 -93 q 528 -116 504 -93 q 552 -172 552 -139 q 528 -227 552 -204 q 470 -251 504 -251 z "},"Ả":{"ha":939,"x_min":36,"x_max":904,"o":"m 164 0 l 36 0 l 406 1010 l 533 1010 l 904 0 l 775 0 l 674 286 l 265 286 l 164 0 m 304 395 l 635 395 l 473 850 l 466 850 l 304 395 m 521 1113 l 424 1113 l 424 1219 q 497 1234 476 1222 q 519 1269 519 1245 q 488 1308 519 1295 q 412 1320 457 1320 l 416 1395 q 571 1359 518 1395 q 623 1265 623 1324 q 591 1191 623 1214 q 521 1162 559 1168 l 521 1113 z "},"Ấ":{"ha":939,"x_min":36,"x_max":913,"o":"m 164 0 l 36 0 l 406 1010 l 533 1010 l 904 0 l 775 0 l 674 286 l 265 286 l 164 0 m 304 395 l 635 395 l 473 850 l 466 850 l 304 395 m 215 1105 l 416 1284 l 525 1284 l 726 1105 l 584 1105 l 472 1209 l 359 1105 l 215 1105 m 673 1225 l 769 1403 l 913 1403 l 775 1225 l 673 1225 z "},"Ầ":{"ha":939,"x_min":26,"x_max":904,"o":"m 164 0 l 36 0 l 406 1010 l 533 1010 l 904 0 l 775 0 l 674 286 l 265 286 l 164 0 m 304 395 l 635 395 l 473 850 l 466 850 l 304 395 m 523 1282 l 724 1103 l 582 1103 l 470 1207 l 357 1103 l 215 1103 l 414 1282 l 523 1282 m 172 1403 l 266 1223 l 166 1223 l 26 1403 l 172 1403 z "},"Ẩ":{"ha":939,"x_min":36,"x_max":904,"o":"m 164 0 l 36 0 l 406 1010 l 533 1010 l 904 0 l 775 0 l 674 286 l 265 286 l 164 0 m 304 395 l 635 395 l 473 850 l 466 850 l 304 395 m 537 1271 l 724 1091 l 602 1091 l 468 1215 l 335 1091 l 213 1091 l 400 1271 l 537 1271 m 744 1186 l 661 1186 l 661 1276 q 722 1288 702 1279 q 742 1318 742 1296 q 715 1351 742 1342 q 649 1361 689 1361 l 653 1426 q 787 1396 742 1426 q 833 1316 833 1366 q 805 1252 833 1272 q 744 1227 778 1232 l 744 1186 z "},"Ẫ":{"ha":939,"x_min":36,"x_max":904,"o":"m 164 0 l 36 0 l 406 1010 l 533 1010 l 904 0 l 775 0 l 674 286 l 265 286 l 164 0 m 304 395 l 635 395 l 473 850 l 466 850 l 304 395 m 515 1243 l 722 1077 l 600 1077 l 468 1182 l 335 1077 l 213 1077 l 420 1243 l 515 1243 m 590 1417 l 645 1401 q 613 1327 645 1361 q 533 1294 580 1294 q 479 1306 499 1294 q 441 1330 459 1318 q 397 1342 423 1342 q 358 1326 376 1342 q 339 1292 339 1310 l 286 1306 q 318 1380 286 1346 q 397 1415 349 1415 q 445 1403 424 1415 q 487 1381 466 1392 q 533 1369 507 1369 q 572 1384 553 1369 q 590 1417 590 1399 z "},"Ậ":{"ha":939,"x_min":36,"x_max":904,"o":"m 164 0 l 36 0 l 406 1010 l 533 1010 l 904 0 l 775 0 l 674 286 l 265 286 l 164 0 m 304 395 l 635 395 l 473 850 l 466 850 l 304 395 m 572 1101 l 470 1239 l 367 1101 l 256 1101 l 256 1109 l 416 1314 l 523 1314 l 683 1109 l 683 1101 l 572 1101 m 470 -251 q 411 -227 436 -251 q 387 -172 387 -204 q 411 -116 387 -139 q 470 -93 436 -93 q 528 -116 504 -93 q 552 -172 552 -139 q 528 -227 552 -204 q 470 -251 504 -251 z "},"Ắ":{"ha":939,"x_min":36,"x_max":904,"o":"m 164 0 l 36 0 l 406 1010 l 533 1010 l 904 0 l 775 0 l 674 286 l 265 286 l 164 0 m 304 395 l 635 395 l 473 850 l 466 850 l 304 395 m 562 1241 l 673 1241 q 617 1139 673 1179 q 466 1099 562 1099 q 314 1139 369 1099 q 258 1241 258 1179 l 369 1241 q 391 1187 369 1210 q 466 1164 412 1164 q 540 1187 517 1164 q 562 1241 562 1210 m 426 1257 l 499 1391 l 610 1391 l 499 1257 l 426 1257 z "},"Ằ":{"ha":939,"x_min":36,"x_max":904,"o":"m 164 0 l 36 0 l 406 1010 l 533 1010 l 904 0 l 775 0 l 674 286 l 265 286 l 164 0 m 304 395 l 635 395 l 473 850 l 466 850 l 304 395 m 562 1241 l 673 1241 q 617 1139 673 1179 q 466 1099 562 1099 q 314 1139 369 1099 q 258 1241 258 1179 l 369 1241 q 391 1187 369 1210 q 466 1164 412 1164 q 540 1187 517 1164 q 562 1241 562 1210 m 442 1257 l 331 1391 l 442 1391 l 515 1257 l 442 1257 z "},"Ẳ":{"ha":939,"x_min":36,"x_max":904,"o":"m 164 0 l 36 0 l 406 1010 l 533 1010 l 904 0 l 775 0 l 674 286 l 265 286 l 164 0 m 304 395 l 635 395 l 473 850 l 466 850 l 304 395 m 554 1255 l 661 1255 q 608 1153 661 1193 q 462 1113 555 1113 q 316 1153 370 1113 q 262 1255 262 1193 l 369 1255 q 390 1201 369 1224 q 462 1178 411 1178 q 533 1201 512 1178 q 554 1255 554 1224 m 515 1269 l 422 1269 l 420 1355 q 491 1364 469 1357 q 513 1391 513 1372 q 483 1420 513 1412 q 408 1428 453 1428 l 414 1486 q 563 1459 513 1486 q 614 1389 614 1432 q 583 1333 614 1350 q 515 1312 552 1316 l 515 1269 z "},"Ẵ":{"ha":939,"x_min":36,"x_max":904,"o":"m 164 0 l 36 0 l 406 1010 l 533 1010 l 904 0 l 775 0 l 674 286 l 265 286 l 164 0 m 304 395 l 635 395 l 473 850 l 466 850 l 304 395 m 558 1261 l 667 1261 q 613 1156 667 1197 q 464 1115 558 1115 q 315 1156 370 1115 q 260 1261 260 1197 l 369 1261 q 390 1206 369 1230 q 464 1182 412 1182 q 537 1206 515 1182 q 558 1261 558 1230 m 602 1460 l 661 1442 q 629 1356 661 1392 q 546 1320 597 1320 q 488 1332 510 1320 q 446 1357 466 1344 q 397 1369 426 1369 q 359 1352 374 1369 q 343 1310 343 1335 l 282 1324 q 314 1411 282 1373 q 397 1450 346 1450 q 449 1438 426 1450 q 495 1413 472 1425 q 546 1401 518 1401 q 585 1418 569 1401 q 602 1460 602 1435 z "},"Ặ":{"ha":939,"x_min":36,"x_max":904,"o":"m 164 0 l 36 0 l 406 1010 l 533 1010 l 904 0 l 775 0 l 674 286 l 265 286 l 164 0 m 304 395 l 635 395 l 473 850 l 466 850 l 304 395 m 566 1263 l 675 1263 q 619 1132 675 1183 q 470 1081 564 1081 q 321 1132 376 1081 q 266 1263 266 1183 l 375 1263 q 396 1195 375 1224 q 470 1166 418 1166 q 544 1195 521 1166 q 566 1263 566 1224 m 470 -251 q 411 -227 436 -251 q 387 -172 387 -204 q 411 -116 387 -139 q 470 -93 436 -93 q 528 -116 504 -93 q 552 -172 552 -139 q 528 -227 552 -204 q 470 -251 504 -251 z "},"Α":{"ha":939,"x_min":36,"x_max":904,"o":"m 164 0 l 36 0 l 406 1010 l 533 1010 l 904 0 l 775 0 l 674 286 l 265 286 l 164 0 m 304 395 l 635 395 l 473 850 l 466 850 l 304 395 z "},"Ά":{"ha":939,"x_min":36,"x_max":904,"o":"m 164 0 l 36 0 l 406 1010 l 533 1010 l 904 0 l 775 0 l 674 286 l 265 286 l 164 0 m 304 395 l 635 395 l 473 850 l 466 850 l 304 395 m 166 842 l 199 1073 l 326 1073 l 247 842 l 166 842 z "},"Ἀ":{"ha":939,"x_min":36,"x_max":904,"o":"m 164 0 l 36 0 l 406 1010 l 533 1010 l 904 0 l 775 0 l 674 286 l 265 286 l 164 0 m 304 395 l 635 395 l 473 850 l 466 850 l 304 395 m 296 1010 l 296 955 q 172 765 296 832 l 118 807 q 160 874 146 838 q 174 959 174 910 l 174 1010 l 296 1010 z "},"Ἁ":{"ha":939,"x_min":36,"x_max":904,"o":"m 164 0 l 36 0 l 406 1010 l 533 1010 l 904 0 l 775 0 l 674 286 l 265 286 l 164 0 m 304 395 l 635 395 l 473 850 l 466 850 l 304 395 m 128 955 l 128 1010 l 251 1010 l 251 959 q 264 874 251 910 q 306 807 278 838 l 253 765 q 161 847 193 798 q 128 955 128 896 z "},"Ἂ":{"ha":939,"x_min":-154,"x_max":904,"o":"m 164 0 l 36 0 l 406 1010 l 533 1010 l 904 0 l 775 0 l 674 286 l 265 286 l 164 0 m 304 395 l 635 395 l 473 850 l 466 850 l 304 395 m 24 1014 l 24 959 q -9 851 24 900 q -101 769 -41 802 l -154 811 q -113 878 -127 842 q -99 963 -99 914 l -99 1014 l 24 1014 m 274 795 l 274 785 l 211 785 l 55 1000 l 55 1014 l 197 1014 l 274 795 z "},"Ἃ":{"ha":939,"x_min":-103,"x_max":904,"o":"m 164 0 l 36 0 l 406 1010 l 533 1010 l 904 0 l 775 0 l 674 286 l 265 286 l 164 0 m 304 395 l 635 395 l 473 850 l 466 850 l 304 395 m -103 955 l -103 1010 l 20 1010 l 20 959 q 33 874 20 910 q 75 807 47 838 l 22 765 q -70 847 -37 798 q -103 955 -103 896 m 284 791 l 284 781 l 221 781 l 65 996 l 65 1010 l 209 1010 l 284 791 z "},"Ἄ":{"ha":939,"x_min":-93,"x_max":904,"o":"m 164 0 l 36 0 l 406 1010 l 533 1010 l 904 0 l 775 0 l 674 286 l 265 286 l 164 0 m 304 395 l 635 395 l 473 850 l 466 850 l 304 395 m 85 1010 l 85 955 q 52 847 85 896 q -39 765 20 798 l -93 807 q -52 874 -66 838 q -37 959 -37 910 l -37 1010 l 85 1010 m 95 781 l 95 791 l 172 1010 l 314 1010 l 314 996 l 158 781 l 95 781 z "},"Ἅ":{"ha":939,"x_min":-116,"x_max":904,"o":"m 164 0 l 36 0 l 406 1010 l 533 1010 l 904 0 l 775 0 l 674 286 l 265 286 l 164 0 m 304 395 l 635 395 l 473 850 l 466 850 l 304 395 m 8 765 q -84 847 -51 798 q -116 955 -116 896 l -116 1010 l 6 1010 l 6 959 q 20 874 6 910 q 61 807 35 838 l 8 765 m 87 781 l 87 791 l 162 1010 l 306 1010 l 306 996 l 150 781 l 87 781 z "},"Ἆ":{"ha":939,"x_min":-14,"x_max":904,"o":"m 164 0 l 36 0 l 406 1010 l 533 1010 l 904 0 l 775 0 l 674 286 l 265 286 l 164 0 m 304 395 l 635 395 l 473 850 l 466 850 l 304 395 m 304 1170 l 363 1152 q 331 1067 363 1103 q 249 1030 299 1030 q 190 1042 212 1030 q 148 1067 168 1054 q 99 1079 128 1079 q 61 1062 76 1079 q 45 1020 45 1045 l -14 1036 q 17 1123 -14 1085 q 99 1162 48 1162 q 152 1149 129 1162 q 198 1124 175 1136 q 249 1111 220 1111 q 287 1128 271 1111 q 304 1170 304 1145 m 239 996 l 239 949 q 218 867 239 910 q 156 793 197 823 l 97 827 q 136 947 136 880 l 136 996 l 239 996 z "},"Ἇ":{"ha":939,"x_min":-20,"x_max":904,"o":"m 164 0 l 36 0 l 406 1010 l 533 1010 l 904 0 l 775 0 l 674 286 l 265 286 l 164 0 m 304 395 l 635 395 l 473 850 l 466 850 l 304 395 m 298 1170 l 357 1152 q 325 1067 357 1103 q 243 1030 293 1030 q 184 1042 206 1030 q 142 1067 162 1054 q 93 1079 122 1079 q 55 1062 71 1079 q 39 1020 39 1045 l -20 1036 q 11 1123 -20 1085 q 93 1162 42 1162 q 146 1149 123 1162 q 192 1124 169 1136 q 243 1111 214 1111 q 281 1128 265 1111 q 298 1170 298 1145 m 124 949 l 124 996 l 227 996 l 227 947 q 266 827 227 880 l 205 793 q 144 867 164 823 q 124 949 124 910 z "},"Ᾰ":{"ha":939,"x_min":36,"x_max":904,"o":"m 164 0 l 36 0 l 406 1010 l 533 1010 l 904 0 l 775 0 l 674 286 l 265 286 l 164 0 m 304 395 l 635 395 l 473 850 l 466 850 l 304 395 m 566 1263 l 675 1263 q 619 1132 675 1183 q 470 1081 564 1081 q 321 1132 376 1081 q 266 1263 266 1183 l 375 1263 q 396 1195 375 1224 q 470 1166 418 1166 q 544 1195 521 1166 q 566 1263 566 1224 z "},"Ᾱ":{"ha":939,"x_min":36,"x_max":904,"o":"m 164 0 l 36 0 l 406 1010 l 533 1010 l 904 0 l 775 0 l 674 286 l 265 286 l 164 0 m 304 395 l 635 395 l 473 850 l 466 850 l 304 395 m 700 1263 l 700 1164 l 239 1164 l 239 1263 l 700 1263 z "},"Ὰ":{"ha":939,"x_min":36,"x_max":904,"o":"m 164 0 l 36 0 l 406 1010 l 533 1010 l 904 0 l 775 0 l 674 286 l 265 286 l 164 0 m 304 395 l 635 395 l 473 850 l 466 850 l 304 395 m 213 779 l 57 996 l 57 1010 l 199 1010 l 276 791 l 276 779 l 213 779 z "},"Ⱥ":{"ha":939,"x_min":36,"x_max":904,"o":"m 775 1138 l 633 737 l 904 0 l 775 0 l 674 286 l 472 286 l 326 -128 l 213 -128 l 360 286 l 265 286 l 164 0 l 36 0 l 406 1010 l 533 1010 l 576 893 l 663 1138 l 775 1138 m 399 395 l 517 727 l 473 850 l 466 850 l 304 395 l 399 395 m 573 569 l 511 395 l 635 395 l 573 569 z "},"Ά":{"ha":939,"x_min":36,"x_max":904,"o":"m 164 0 l 36 0 l 406 1010 l 533 1010 l 904 0 l 775 0 l 674 286 l 265 286 l 164 0 m 304 395 l 635 395 l 473 850 l 466 850 l 304 395 m 168 852 l 168 864 l 243 1083 l 387 1083 l 387 1069 l 231 852 l 168 852 z "},"А":{"ha":939,"x_min":36,"x_max":904,"o":"m 164 0 l 36 0 l 406 1010 l 533 1010 l 904 0 l 775 0 l 674 286 l 265 286 l 164 0 m 304 395 l 635 395 l 473 850 l 466 850 l 304 395 z "},"Ӑ":{"ha":939,"x_min":36,"x_max":904,"o":"m 164 0 l 36 0 l 406 1010 l 533 1010 l 904 0 l 775 0 l 674 286 l 265 286 l 164 0 m 304 395 l 635 395 l 473 850 l 466 850 l 304 395 m 566 1263 l 675 1263 q 619 1132 675 1183 q 470 1081 564 1081 q 321 1132 376 1081 q 266 1263 266 1183 l 375 1263 q 396 1195 375 1224 q 470 1166 418 1166 q 544 1195 521 1166 q 566 1263 566 1224 z "},"Ӓ":{"ha":939,"x_min":36,"x_max":904,"o":"m 164 0 l 36 0 l 406 1010 l 533 1010 l 904 0 l 775 0 l 674 286 l 265 286 l 164 0 m 304 395 l 635 395 l 473 850 l 466 850 l 304 395 m 327 1136 q 273 1160 296 1136 q 249 1215 249 1184 q 273 1272 249 1249 q 327 1294 296 1294 q 384 1272 362 1294 q 406 1215 406 1249 q 384 1160 406 1184 q 327 1136 362 1136 m 612 1136 q 557 1160 581 1136 q 533 1215 533 1184 q 557 1272 533 1249 q 612 1294 581 1294 q 668 1272 646 1294 q 690 1215 690 1249 q 668 1160 690 1184 q 612 1136 646 1136 z "},"ᾈ":{"ha":939,"x_min":36,"x_max":904,"o":"m 164 0 l 36 0 l 406 1010 l 533 1010 l 904 0 l 775 0 l 674 286 l 265 286 l 164 0 m 304 395 l 635 395 l 473 850 l 466 850 l 304 395 m 533 -335 q 450 -306 482 -335 q 418 -209 418 -276 l 418 -59 l 521 -59 l 521 -207 q 530 -249 521 -237 q 554 -260 540 -260 q 571 -259 562 -260 q 584 -258 580 -258 l 584 -327 q 564 -333 577 -330 q 533 -335 552 -335 m 296 1010 l 296 955 q 172 765 296 832 l 118 807 q 160 874 146 838 q 174 959 174 910 l 174 1010 l 296 1010 z "},"ᾉ":{"ha":939,"x_min":36,"x_max":904,"o":"m 164 0 l 36 0 l 406 1010 l 533 1010 l 904 0 l 775 0 l 674 286 l 265 286 l 164 0 m 304 395 l 635 395 l 473 850 l 466 850 l 304 395 m 533 -335 q 450 -306 482 -335 q 418 -209 418 -276 l 418 -59 l 521 -59 l 521 -207 q 530 -249 521 -237 q 554 -260 540 -260 q 571 -259 562 -260 q 584 -258 580 -258 l 584 -327 q 564 -333 577 -330 q 533 -335 552 -335 m 128 955 l 128 1010 l 251 1010 l 251 959 q 264 874 251 910 q 306 807 278 838 l 253 765 q 161 847 193 798 q 128 955 128 896 z "},"ᾊ":{"ha":939,"x_min":-154,"x_max":904,"o":"m 164 0 l 36 0 l 406 1010 l 533 1010 l 904 0 l 775 0 l 674 286 l 265 286 l 164 0 m 304 395 l 635 395 l 473 850 l 466 850 l 304 395 m 533 -335 q 450 -306 482 -335 q 418 -209 418 -276 l 418 -59 l 521 -59 l 521 -207 q 530 -249 521 -237 q 554 -260 540 -260 q 571 -259 562 -260 q 584 -258 580 -258 l 584 -327 q 564 -333 577 -330 q 533 -335 552 -335 m 24 1014 l 24 959 q -9 851 24 900 q -101 769 -41 802 l -154 811 q -113 878 -127 842 q -99 963 -99 914 l -99 1014 l 24 1014 m 274 795 l 274 785 l 211 785 l 55 1000 l 55 1014 l 197 1014 l 274 795 z "},"ᾋ":{"ha":939,"x_min":-103,"x_max":904,"o":"m 164 0 l 36 0 l 406 1010 l 533 1010 l 904 0 l 775 0 l 674 286 l 265 286 l 164 0 m 304 395 l 635 395 l 473 850 l 466 850 l 304 395 m 533 -335 q 450 -306 482 -335 q 418 -209 418 -276 l 418 -59 l 521 -59 l 521 -207 q 530 -249 521 -237 q 554 -260 540 -260 q 571 -259 562 -260 q 584 -258 580 -258 l 584 -327 q 564 -333 577 -330 q 533 -335 552 -335 m -103 955 l -103 1010 l 20 1010 l 20 959 q 33 874 20 910 q 75 807 47 838 l 22 765 q -70 847 -37 798 q -103 955 -103 896 m 284 791 l 284 781 l 221 781 l 65 996 l 65 1010 l 209 1010 l 284 791 z "},"ᾌ":{"ha":939,"x_min":-93,"x_max":904,"o":"m 164 0 l 36 0 l 406 1010 l 533 1010 l 904 0 l 775 0 l 674 286 l 265 286 l 164 0 m 304 395 l 635 395 l 473 850 l 466 850 l 304 395 m 85 1010 l 85 955 q 52 847 85 896 q -39 765 20 798 l -93 807 q -52 874 -66 838 q -37 959 -37 910 l -37 1010 l 85 1010 m 95 781 l 95 791 l 172 1010 l 314 1010 l 314 996 l 158 781 l 95 781 m 533 -335 q 450 -306 482 -335 q 418 -209 418 -276 l 418 -59 l 521 -59 l 521 -207 q 530 -249 521 -237 q 554 -260 540 -260 q 571 -259 562 -260 q 584 -258 580 -258 l 584 -327 q 564 -333 577 -330 q 533 -335 552 -335 z "},"ᾍ":{"ha":939,"x_min":-116,"x_max":904,"o":"m 164 0 l 36 0 l 406 1010 l 533 1010 l 904 0 l 775 0 l 674 286 l 265 286 l 164 0 m 304 395 l 635 395 l 473 850 l 466 850 l 304 395 m 533 -335 q 450 -306 482 -335 q 418 -209 418 -276 l 418 -59 l 521 -59 l 521 -207 q 530 -249 521 -237 q 554 -260 540 -260 q 571 -259 562 -260 q 584 -258 580 -258 l 584 -327 q 564 -333 577 -330 q 533 -335 552 -335 m 8 765 q -84 847 -51 798 q -116 955 -116 896 l -116 1010 l 6 1010 l 6 959 q 20 874 6 910 q 61 807 35 838 l 8 765 m 87 781 l 87 791 l 162 1010 l 306 1010 l 306 996 l 150 781 l 87 781 z "},"ᾎ":{"ha":939,"x_min":-14,"x_max":904,"o":"m 164 0 l 36 0 l 406 1010 l 533 1010 l 904 0 l 775 0 l 674 286 l 265 286 l 164 0 m 304 395 l 635 395 l 473 850 l 466 850 l 304 395 m 304 1170 l 363 1152 q 331 1067 363 1103 q 249 1030 299 1030 q 190 1042 212 1030 q 148 1067 168 1054 q 99 1079 128 1079 q 61 1062 76 1079 q 45 1020 45 1045 l -14 1036 q 17 1123 -14 1085 q 99 1162 48 1162 q 152 1149 129 1162 q 198 1124 175 1136 q 249 1111 220 1111 q 287 1128 271 1111 q 304 1170 304 1145 m 239 996 l 239 949 q 218 867 239 910 q 156 793 197 823 l 97 827 q 136 947 136 880 l 136 996 l 239 996 m 533 -335 q 450 -306 482 -335 q 418 -209 418 -276 l 418 -59 l 521 -59 l 521 -207 q 530 -249 521 -237 q 554 -260 540 -260 q 571 -259 562 -260 q 584 -258 580 -258 l 584 -327 q 564 -333 577 -330 q 533 -335 552 -335 z "},"ᾏ":{"ha":939,"x_min":-20,"x_max":904,"o":"m 164 0 l 36 0 l 406 1010 l 533 1010 l 904 0 l 775 0 l 674 286 l 265 286 l 164 0 m 304 395 l 635 395 l 473 850 l 466 850 l 304 395 m 533 -335 q 450 -306 482 -335 q 418 -209 418 -276 l 418 -59 l 521 -59 l 521 -207 q 530 -249 521 -237 q 554 -260 540 -260 q 571 -259 562 -260 q 584 -258 580 -258 l 584 -327 q 564 -333 577 -330 q 533 -335 552 -335 m 298 1170 l 357 1152 q 325 1067 357 1103 q 243 1030 293 1030 q 184 1042 206 1030 q 142 1067 162 1054 q 93 1079 122 1079 q 55 1062 71 1079 q 39 1020 39 1045 l -20 1036 q 11 1123 -20 1085 q 93 1162 42 1162 q 146 1149 123 1162 q 192 1124 169 1136 q 243 1111 214 1111 q 281 1128 265 1111 q 298 1170 298 1145 m 124 949 l 124 996 l 227 996 l 227 947 q 266 827 227 880 l 205 793 q 144 867 164 823 q 124 949 124 910 z "},"ᾼ":{"ha":939,"x_min":36,"x_max":904,"o":"m 164 0 l 36 0 l 406 1010 l 533 1010 l 904 0 l 775 0 l 674 286 l 265 286 l 164 0 m 304 395 l 635 395 l 473 850 l 466 850 l 304 395 m 533 -335 q 450 -306 482 -335 q 418 -209 418 -276 l 418 -59 l 521 -59 l 521 -207 q 530 -249 521 -237 q 554 -260 540 -260 q 571 -259 562 -260 q 584 -258 580 -258 l 584 -327 q 564 -333 577 -330 q 533 -335 552 -335 z "},"Λ":{"ha":939,"x_min":36,"x_max":904,"o":"m 164 0 l 36 0 l 406 1010 l 533 1010 l 904 0 l 775 0 l 473 850 l 466 850 l 164 0 z "},"Æ":{"ha":1375,"x_min":36,"x_max":1284,"o":"m 36 0 l 525 1010 l 1276 1010 l 1276 902 l 789 902 l 789 560 l 1245 560 l 1245 452 l 789 452 l 789 109 l 1284 109 l 1284 0 l 667 0 l 667 286 l 304 286 l 170 0 l 36 0 m 355 395 l 667 395 l 667 902 l 594 902 l 355 395 z "},"Ǣ":{"ha":1375,"x_min":36,"x_max":1284,"o":"m 36 0 l 525 1010 l 1276 1010 l 1276 902 l 789 902 l 789 560 l 1245 560 l 1245 452 l 789 452 l 789 109 l 1284 109 l 1284 0 l 667 0 l 667 286 l 304 286 l 170 0 l 36 0 m 355 395 l 667 395 l 667 902 l 594 902 l 355 395 m 1128 1263 l 1128 1164 l 667 1164 l 667 1263 l 1128 1263 z "},"Ǽ":{"ha":1375,"x_min":36,"x_max":1284,"o":"m 36 0 l 525 1010 l 1276 1010 l 1276 902 l 789 902 l 789 560 l 1245 560 l 1245 452 l 789 452 l 789 109 l 1284 109 l 1284 0 l 667 0 l 667 286 l 304 286 l 170 0 l 36 0 m 355 395 l 667 395 l 667 902 l 594 902 l 355 395 m 844 1113 l 965 1342 l 1101 1342 l 947 1113 l 844 1113 z "},"Ӕ":{"ha":1375,"x_min":36,"x_max":1284,"o":"m 36 0 l 525 1010 l 1276 1010 l 1276 902 l 789 902 l 789 560 l 1245 560 l 1245 452 l 789 452 l 789 109 l 1284 109 l 1284 0 l 667 0 l 667 286 l 304 286 l 170 0 l 36 0 m 355 395 l 667 395 l 667 902 l 594 902 l 355 395 z "},"B":{"ha":904,"x_min":122,"x_max":825,"o":"m 122 0 l 122 1010 l 475 1010 q 650 974 581 1010 q 752 877 718 938 q 785 742 785 816 q 762 634 785 677 q 702 567 739 592 q 621 531 665 543 l 621 521 q 715 488 668 518 q 793 403 762 459 q 825 268 825 348 q 790 132 825 192 q 681 36 756 71 q 487 0 607 0 l 122 0 m 245 109 l 487 109 q 658 155 607 109 q 708 268 708 202 q 682 363 708 320 q 608 433 656 407 q 493 460 559 460 l 245 460 l 245 109 m 245 566 l 472 566 q 612 614 554 566 q 669 742 669 662 q 622 855 669 808 q 475 902 576 902 l 245 902 l 245 566 z "},"Ḃ":{"ha":904,"x_min":122,"x_max":825,"o":"m 122 0 l 122 1010 l 475 1010 q 650 974 581 1010 q 752 877 718 938 q 785 742 785 816 q 762 634 785 677 q 702 567 739 592 q 621 531 665 543 l 621 521 q 715 488 668 518 q 793 403 762 459 q 825 268 825 348 q 790 132 825 192 q 681 36 756 71 q 487 0 607 0 l 122 0 m 245 109 l 487 109 q 658 155 607 109 q 708 268 708 202 q 682 363 708 320 q 608 433 656 407 q 493 460 559 460 l 245 460 l 245 109 m 245 566 l 472 566 q 612 614 554 566 q 669 742 669 662 q 622 855 669 808 q 475 902 576 902 l 245 902 l 245 566 m 432 1136 q 374 1160 398 1136 q 349 1215 349 1183 q 374 1271 349 1248 q 432 1294 398 1294 q 491 1271 466 1294 q 515 1215 515 1248 q 491 1160 515 1183 q 432 1136 466 1136 z "},"Ḅ":{"ha":904,"x_min":122,"x_max":825,"o":"m 122 0 l 122 1010 l 475 1010 q 650 974 581 1010 q 752 877 718 938 q 785 742 785 816 q 762 634 785 677 q 702 567 739 592 q 621 531 665 543 l 621 521 q 715 488 668 518 q 793 403 762 459 q 825 268 825 348 q 790 132 825 192 q 681 36 756 71 q 487 0 607 0 l 122 0 m 245 109 l 487 109 q 658 155 607 109 q 708 268 708 202 q 682 363 708 320 q 608 433 656 407 q 493 460 559 460 l 245 460 l 245 109 m 245 566 l 472 566 q 612 614 554 566 q 669 742 669 662 q 622 855 669 808 q 475 902 576 902 l 245 902 l 245 566 m 438 -251 q 380 -227 404 -251 q 355 -172 355 -204 q 380 -116 355 -139 q 438 -93 404 -93 q 496 -116 472 -93 q 521 -172 521 -139 q 496 -227 521 -204 q 438 -251 472 -251 z "},"Ḇ":{"ha":904,"x_min":122,"x_max":825,"o":"m 122 0 l 122 1010 l 475 1010 q 650 974 581 1010 q 752 877 718 938 q 785 742 785 816 q 762 634 785 677 q 702 567 739 592 q 621 531 665 543 l 621 521 q 715 488 668 518 q 793 403 762 459 q 825 268 825 348 q 790 132 825 192 q 681 36 756 71 q 487 0 607 0 l 122 0 m 245 109 l 487 109 q 658 155 607 109 q 708 268 708 202 q 682 363 708 320 q 608 433 656 407 q 493 460 559 460 l 245 460 l 245 109 m 245 566 l 472 566 q 612 614 554 566 q 669 742 669 662 q 622 855 669 808 q 475 902 576 902 l 245 902 l 245 566 m 669 -124 l 669 -223 l 207 -223 l 207 -124 l 669 -124 z "},"Ƀ":{"ha":981,"x_min":43,"x_max":902,"o":"m 199 0 l 199 1010 l 552 1010 q 727 974 658 1010 q 829 877 795 938 q 862 742 862 816 q 839 634 862 677 q 779 567 816 592 q 698 531 742 543 l 698 521 q 792 488 745 518 q 870 403 838 459 q 902 268 902 348 q 867 132 902 192 q 758 36 833 71 q 564 0 684 0 l 199 0 m 322 109 l 564 109 q 735 155 684 109 q 785 268 785 202 q 759 363 785 320 q 685 433 733 407 q 570 460 636 460 l 322 460 l 322 109 m 322 566 l 548 566 q 689 614 631 566 q 746 742 746 662 q 699 855 746 808 q 552 902 653 902 l 322 902 l 322 566 m 43 239 l 43 329 l 477 329 l 477 239 l 43 239 z "},"Ɓ":{"ha":1115,"x_min":67,"x_max":1036,"o":"m 333 0 l 333 902 l 270 902 q 212 884 231 902 q 187 839 193 867 q 182 779 182 811 l 182 742 l 67 742 l 67 809 q 119 951 67 892 q 268 1010 171 1010 l 687 1010 q 861 974 792 1010 q 963 877 929 938 q 996 742 996 816 q 973 634 996 677 q 913 567 950 592 q 833 531 876 543 l 833 521 q 926 488 879 518 q 1004 403 973 459 q 1036 268 1036 348 q 1001 132 1036 192 q 892 36 967 71 q 698 0 818 0 l 333 0 m 456 109 l 698 109 q 869 155 818 109 q 919 268 919 202 q 893 363 919 320 q 819 433 867 407 q 704 460 770 460 l 456 460 l 456 109 m 456 566 l 683 566 q 823 614 765 566 q 880 742 880 662 q 834 855 880 808 q 687 902 787 902 l 456 902 l 456 566 z "},"В":{"ha":904,"x_min":122,"x_max":825,"o":"m 122 0 l 122 1010 l 475 1010 q 650 974 581 1010 q 752 877 718 938 q 785 742 785 816 q 762 634 785 677 q 702 567 739 592 q 621 531 665 543 l 621 521 q 715 488 668 518 q 793 403 762 459 q 825 268 825 348 q 790 132 825 192 q 681 36 756 71 q 487 0 607 0 l 122 0 m 245 109 l 487 109 q 658 155 607 109 q 708 268 708 202 q 682 363 708 320 q 608 433 656 407 q 493 460 559 460 l 245 460 l 245 109 m 245 566 l 472 566 q 612 614 554 566 q 669 742 669 662 q 622 855 669 808 q 475 902 576 902 l 245 902 l 245 566 z "},"Β":{"ha":904,"x_min":122,"x_max":825,"o":"m 122 0 l 122 1010 l 475 1010 q 650 974 581 1010 q 752 877 718 938 q 785 742 785 816 q 762 634 785 677 q 702 567 739 592 q 621 531 665 543 l 621 521 q 715 488 668 518 q 793 403 762 459 q 825 268 825 348 q 790 132 825 192 q 681 36 756 71 q 487 0 607 0 l 122 0 m 245 109 l 487 109 q 658 155 607 109 q 708 268 708 202 q 682 363 708 320 q 608 433 656 407 q 493 460 559 460 l 245 460 l 245 109 m 245 566 l 472 566 q 612 614 554 566 q 669 742 669 662 q 622 855 669 808 q 475 902 576 902 l 245 902 l 245 566 z "},"C":{"ha":1010,"x_min":83,"x_max":935,"o":"m 935 694 l 813 694 q 756 812 798 764 q 655 885 714 860 q 529 909 596 909 q 363 863 437 909 q 245 727 289 817 q 201 505 201 636 q 245 284 201 374 q 363 147 289 193 q 529 101 437 101 q 655 125 596 101 q 756 198 714 150 q 813 316 798 246 l 935 316 q 859 138 916 212 q 716 25 801 65 q 529 -14 630 -14 q 299 49 400 -14 q 141 229 198 112 q 83 505 83 345 q 141 781 83 665 q 299 961 198 898 q 529 1024 400 1024 q 716 985 630 1024 q 859 872 801 945 q 935 694 916 798 z "},"Ƈ":{"ha":1071,"x_min":83,"x_max":1083,"o":"m 935 694 l 813 694 q 756 812 798 764 q 655 885 714 860 q 529 909 596 909 q 363 863 437 909 q 245 727 289 817 q 201 505 201 636 q 245 284 201 374 q 363 147 289 193 q 529 101 437 101 q 655 125 596 101 q 756 198 714 150 q 813 316 798 246 l 935 316 q 859 138 916 212 q 716 25 801 65 q 529 -14 630 -14 q 299 49 400 -14 q 141 229 198 112 q 83 505 83 345 q 141 781 83 665 q 299 961 198 898 q 529 1024 400 1024 q 832 902 716 1024 q 903 993 853 961 q 1016 1024 952 1024 q 1052 1023 1034 1024 q 1083 1018 1070 1022 l 1083 919 q 1066 922 1076 921 q 1046 923 1056 923 q 967 902 998 923 q 935 821 935 880 l 935 694 z "},"Ç":{"ha":1010,"x_min":83,"x_max":935,"o":"m 935 694 l 813 694 q 756 812 798 764 q 655 885 714 860 q 529 909 596 909 q 363 863 437 909 q 245 727 289 817 q 201 505 201 636 q 245 284 201 374 q 363 147 289 193 q 529 101 437 101 q 655 125 596 101 q 756 198 714 150 q 813 316 798 246 l 935 316 q 859 138 916 212 q 716 25 801 65 q 529 -14 630 -14 q 299 49 400 -14 q 141 229 198 112 q 83 505 83 345 q 141 781 83 665 q 299 961 198 898 q 529 1024 400 1024 q 716 985 630 1024 q 859 872 801 945 q 935 694 916 798 m 477 -4 l 574 -4 l 566 -43 q 637 -76 605 -49 q 669 -160 669 -102 q 616 -264 669 -223 q 462 -304 564 -304 l 458 -227 q 534 -212 504 -227 q 564 -164 564 -198 q 539 -117 564 -130 q 458 -101 514 -105 l 477 -4 z "},"Ć":{"ha":1010,"x_min":83,"x_max":935,"o":"m 935 694 l 813 694 q 756 812 798 764 q 655 885 714 860 q 529 909 596 909 q 363 863 437 909 q 245 727 289 817 q 201 505 201 636 q 245 284 201 374 q 363 147 289 193 q 529 101 437 101 q 655 125 596 101 q 756 198 714 150 q 813 316 798 246 l 935 316 q 859 138 916 212 q 716 25 801 65 q 529 -14 630 -14 q 299 49 400 -14 q 141 229 198 112 q 83 505 83 345 q 141 781 83 665 q 299 961 198 898 q 529 1024 400 1024 q 716 985 630 1024 q 859 872 801 945 q 935 694 916 798 m 475 1113 l 596 1342 l 732 1342 l 578 1113 l 475 1113 z "},"Ĉ":{"ha":1010,"x_min":83,"x_max":935,"o":"m 935 694 l 813 694 q 756 812 798 764 q 655 885 714 860 q 529 909 596 909 q 363 863 437 909 q 245 727 289 817 q 201 505 201 636 q 245 284 201 374 q 363 147 289 193 q 529 101 437 101 q 655 125 596 101 q 756 198 714 150 q 813 316 798 246 l 935 316 q 859 138 916 212 q 716 25 801 65 q 529 -14 630 -14 q 299 49 400 -14 q 141 229 198 112 q 83 505 83 345 q 141 781 83 665 q 299 961 198 898 q 529 1024 400 1024 q 716 985 630 1024 q 859 872 801 945 q 935 694 916 798 m 631 1101 l 529 1239 l 426 1101 l 316 1101 l 316 1109 l 475 1314 l 582 1314 l 742 1109 l 742 1101 l 631 1101 z "},"Ċ":{"ha":1010,"x_min":83,"x_max":935,"o":"m 935 694 l 813 694 q 756 812 798 764 q 655 885 714 860 q 529 909 596 909 q 363 863 437 909 q 245 727 289 817 q 201 505 201 636 q 245 284 201 374 q 363 147 289 193 q 529 101 437 101 q 655 125 596 101 q 756 198 714 150 q 813 316 798 246 l 935 316 q 859 138 916 212 q 716 25 801 65 q 529 -14 630 -14 q 299 49 400 -14 q 141 229 198 112 q 83 505 83 345 q 141 781 83 665 q 299 961 198 898 q 529 1024 400 1024 q 716 985 630 1024 q 859 872 801 945 q 935 694 916 798 m 529 1136 q 470 1160 495 1136 q 446 1215 446 1183 q 470 1271 446 1248 q 529 1294 495 1294 q 587 1271 563 1294 q 612 1215 612 1248 q 587 1160 612 1183 q 529 1136 563 1136 z "},"Č":{"ha":1010,"x_min":83,"x_max":935,"o":"m 935 694 l 813 694 q 756 812 798 764 q 655 885 714 860 q 529 909 596 909 q 363 863 437 909 q 245 727 289 817 q 201 505 201 636 q 245 284 201 374 q 363 147 289 193 q 529 101 437 101 q 655 125 596 101 q 756 198 714 150 q 813 316 798 246 l 935 316 q 859 138 916 212 q 716 25 801 65 q 529 -14 630 -14 q 299 49 400 -14 q 141 229 198 112 q 83 505 83 345 q 141 781 83 665 q 299 961 198 898 q 529 1024 400 1024 q 716 985 630 1024 q 859 872 801 945 q 935 694 916 798 m 426 1314 l 529 1176 l 631 1314 l 742 1314 l 742 1306 l 582 1101 l 475 1101 l 316 1306 l 316 1314 l 426 1314 z "},"Ḉ":{"ha":1010,"x_min":83,"x_max":935,"o":"m 935 694 l 813 694 q 756 812 798 764 q 655 885 714 860 q 529 909 596 909 q 363 863 437 909 q 245 727 289 817 q 201 505 201 636 q 245 284 201 374 q 363 147 289 193 q 529 101 437 101 q 655 125 596 101 q 756 198 714 150 q 813 316 798 246 l 935 316 q 859 138 916 212 q 716 25 801 65 q 529 -14 630 -14 q 299 49 400 -14 q 141 229 198 112 q 83 505 83 345 q 141 781 83 665 q 299 961 198 898 q 529 1024 400 1024 q 716 985 630 1024 q 859 872 801 945 q 935 694 916 798 m 477 -4 l 574 -4 l 566 -43 q 637 -76 605 -49 q 669 -160 669 -102 q 616 -264 669 -223 q 462 -304 564 -304 l 458 -227 q 534 -212 504 -227 q 564 -164 564 -198 q 539 -117 564 -130 q 458 -101 514 -105 l 477 -4 m 475 1113 l 596 1342 l 732 1342 l 578 1113 l 475 1113 z "},"Ȼ":{"ha":1010,"x_min":83,"x_max":935,"o":"m 229 -128 l 293 53 q 140 231 196 115 q 83 505 83 347 q 141 781 83 665 q 299 961 198 898 q 529 1024 400 1024 q 634 1013 583 1024 l 679 1138 l 791 1138 l 733 976 q 864 864 811 936 q 935 694 917 793 l 813 694 q 769 795 800 752 q 694 865 738 838 l 428 116 q 529 101 476 101 q 655 125 596 101 q 756 198 714 150 q 813 316 798 246 l 935 316 q 859 138 916 212 q 716 25 801 65 q 529 -14 630 -14 q 390 7 455 -14 l 341 -128 l 229 -128 m 334 168 l 595 903 q 529 909 563 909 q 363 863 437 909 q 245 727 289 817 q 201 505 201 636 q 237 302 201 387 q 334 168 273 217 z "},"Ɔ":{"ha":1010,"x_min":75,"x_max":927,"o":"m 75 316 l 197 316 q 254 198 212 246 q 355 125 296 150 q 481 101 414 101 q 647 147 573 101 q 765 284 722 193 q 809 505 809 374 q 765 727 809 636 q 647 863 722 817 q 481 909 573 909 q 355 885 414 909 q 254 812 296 860 q 197 694 212 764 l 75 694 q 151 872 94 798 q 294 985 209 945 q 481 1024 380 1024 q 711 961 611 1024 q 870 781 812 898 q 927 505 927 665 q 870 229 927 345 q 711 49 812 112 q 481 -14 611 -14 q 294 25 380 -14 q 151 138 209 65 q 75 316 94 212 z "},"Ϲ":{"ha":1010,"x_min":83,"x_max":935,"o":"m 935 694 l 813 694 q 756 812 798 764 q 655 885 714 860 q 529 909 596 909 q 363 863 437 909 q 245 727 289 817 q 201 505 201 636 q 245 284 201 374 q 363 147 289 193 q 529 101 437 101 q 655 125 596 101 q 756 198 714 150 q 813 316 798 246 l 935 316 q 859 138 916 212 q 716 25 801 65 q 529 -14 630 -14 q 299 49 400 -14 q 141 229 198 112 q 83 505 83 345 q 141 781 83 665 q 299 961 198 898 q 529 1024 400 1024 q 716 985 630 1024 q 859 872 801 945 q 935 694 916 798 z "},"D":{"ha":998,"x_min":122,"x_max":915,"o":"m 434 0 l 122 0 l 122 1010 l 448 1010 q 699 950 595 1010 q 860 777 804 889 q 915 507 915 664 q 859 236 915 349 q 695 61 803 122 q 434 0 588 0 m 245 109 l 426 109 q 706 215 614 109 q 797 507 797 322 q 707 796 797 690 q 440 902 618 902 l 245 902 l 245 109 z "},"Ɗ":{"ha":1217,"x_min":67,"x_max":1134,"o":"m 67 742 l 67 809 q 119 951 67 892 q 268 1010 171 1010 l 667 1010 q 918 950 814 1010 q 1079 777 1023 889 q 1134 507 1134 664 q 1078 236 1134 349 q 914 61 1022 122 q 653 0 807 0 l 341 0 l 341 902 l 270 902 q 212 884 231 902 q 187 839 193 867 q 182 779 182 811 l 182 742 l 67 742 m 464 109 l 645 109 q 925 215 833 109 q 1016 507 1016 322 q 926 796 1016 690 q 659 902 836 902 l 464 902 l 464 109 z "},"Ď":{"ha":998,"x_min":122,"x_max":915,"o":"m 434 0 l 122 0 l 122 1010 l 448 1010 q 699 950 595 1010 q 860 777 804 889 q 915 507 915 664 q 859 236 915 349 q 695 61 803 122 q 434 0 588 0 m 245 109 l 426 109 q 706 215 614 109 q 797 507 797 322 q 707 796 797 690 q 440 902 618 902 l 245 902 l 245 109 m 316 1314 l 418 1176 l 521 1314 l 631 1314 l 631 1306 l 472 1101 l 365 1101 l 205 1306 l 205 1314 l 316 1314 z "},"Ḋ":{"ha":998,"x_min":122,"x_max":915,"o":"m 434 0 l 122 0 l 122 1010 l 448 1010 q 699 950 595 1010 q 860 777 804 889 q 915 507 915 664 q 859 236 915 349 q 695 61 803 122 q 434 0 588 0 m 245 109 l 426 109 q 706 215 614 109 q 797 507 797 322 q 707 796 797 690 q 440 902 618 902 l 245 902 l 245 109 m 418 1136 q 360 1160 384 1136 q 335 1215 335 1183 q 360 1271 335 1248 q 418 1294 384 1294 q 477 1271 452 1294 q 501 1215 501 1248 q 477 1160 501 1183 q 418 1136 452 1136 z "},"Ḍ":{"ha":998,"x_min":122,"x_max":915,"o":"m 434 0 l 122 0 l 122 1010 l 448 1010 q 699 950 595 1010 q 860 777 804 889 q 915 507 915 664 q 859 236 915 349 q 695 61 803 122 q 434 0 588 0 m 245 109 l 426 109 q 706 215 614 109 q 797 507 797 322 q 707 796 797 690 q 440 902 618 902 l 245 902 l 245 109 m 422 -251 q 364 -227 388 -251 q 339 -172 339 -204 q 364 -116 339 -139 q 422 -93 388 -93 q 481 -116 456 -93 q 505 -172 505 -139 q 481 -227 505 -204 q 422 -251 456 -251 z "},"Ḏ":{"ha":998,"x_min":122,"x_max":915,"o":"m 434 0 l 122 0 l 122 1010 l 448 1010 q 699 950 595 1010 q 860 777 804 889 q 915 507 915 664 q 859 236 915 349 q 695 61 803 122 q 434 0 588 0 m 245 109 l 426 109 q 706 215 614 109 q 797 507 797 322 q 707 796 797 690 q 440 902 618 902 l 245 902 l 245 109 m 653 -124 l 653 -223 l 191 -223 l 191 -124 l 653 -124 z "},"Ḑ":{"ha":998,"x_min":122,"x_max":915,"o":"m 434 0 l 122 0 l 122 1010 l 448 1010 q 699 950 595 1010 q 860 777 804 889 q 915 507 915 664 q 859 236 915 349 q 695 61 803 122 q 434 0 588 0 m 245 109 l 426 109 q 706 215 614 109 q 797 507 797 322 q 707 796 797 690 q 440 902 618 902 l 245 902 l 245 109 m 307 -335 l 362 -80 l 481 -80 l 398 -335 l 307 -335 z "},"Ḓ":{"ha":998,"x_min":122,"x_max":915,"o":"m 434 0 l 122 0 l 122 1010 l 448 1010 q 699 950 595 1010 q 860 777 804 889 q 915 507 915 664 q 859 236 915 349 q 695 61 803 122 q 434 0 588 0 m 245 109 l 426 109 q 706 215 614 109 q 797 507 797 322 q 707 796 797 690 q 440 902 618 902 l 245 902 l 245 109 m 525 -276 l 422 -138 l 320 -276 l 209 -276 l 209 -268 l 369 -63 l 475 -63 l 635 -268 l 635 -276 l 525 -276 z "},"Ɖ":{"ha":998,"x_min":-34,"x_max":915,"o":"m 434 0 l 122 0 l 122 475 l -34 475 l -34 566 l 122 566 l 122 1010 l 448 1010 q 699 950 595 1010 q 860 777 804 889 q 915 507 915 664 q 859 236 915 349 q 695 61 803 122 q 434 0 588 0 m 245 109 l 426 109 q 706 215 614 109 q 797 507 797 322 q 707 796 797 690 q 440 902 618 902 l 245 902 l 245 566 l 400 566 l 400 475 l 245 475 l 245 109 z "},"ǲ":{"ha":1750,"x_min":122,"x_max":1677,"o":"m 434 0 l 122 0 l 122 1010 l 448 1010 q 699 950 595 1010 q 860 777 804 889 q 915 507 915 664 q 859 236 915 349 q 695 61 803 122 q 434 0 588 0 m 245 109 l 426 109 q 706 215 614 109 q 797 507 797 322 q 707 796 797 690 q 440 902 618 902 l 245 902 l 245 109 m 1083 0 l 1083 89 l 1513 641 l 1513 649 l 1097 649 l 1097 758 l 1663 758 l 1663 665 l 1245 116 l 1245 109 l 1677 109 l 1677 0 l 1083 0 z "},"ǅ":{"ha":1750,"x_min":122,"x_max":1677,"o":"m 434 0 l 122 0 l 122 1010 l 448 1010 q 699 950 595 1010 q 860 777 804 889 q 915 507 915 664 q 859 236 915 349 q 695 61 803 122 q 434 0 588 0 m 245 109 l 426 109 q 706 215 614 109 q 797 507 797 322 q 707 796 797 690 q 440 902 618 902 l 245 902 l 245 109 m 1083 0 l 1083 89 l 1513 641 l 1513 649 l 1097 649 l 1097 758 l 1663 758 l 1663 665 l 1245 116 l 1245 109 l 1677 109 l 1677 0 l 1083 0 m 1271 1061 l 1373 923 l 1476 1061 l 1586 1061 l 1586 1054 l 1426 848 l 1320 848 l 1160 1054 l 1160 1061 l 1271 1061 z "},"E":{"ha":831,"x_min":122,"x_max":740,"o":"m 122 0 l 122 1010 l 732 1010 l 732 902 l 245 902 l 245 560 l 700 560 l 700 452 l 245 452 l 245 109 l 740 109 l 740 0 l 122 0 z "},"È":{"ha":831,"x_min":122,"x_max":740,"o":"m 122 0 l 122 1010 l 732 1010 l 732 902 l 245 902 l 245 560 l 700 560 l 700 452 l 245 452 l 245 109 l 740 109 l 740 0 l 122 0 m 377 1113 l 223 1342 l 359 1342 l 479 1113 l 377 1113 z "},"É":{"ha":831,"x_min":122,"x_max":740,"o":"m 122 0 l 122 1010 l 732 1010 l 732 902 l 245 902 l 245 560 l 700 560 l 700 452 l 245 452 l 245 109 l 740 109 l 740 0 l 122 0 m 373 1113 l 493 1342 l 629 1342 l 475 1113 l 373 1113 z "},"Ê":{"ha":831,"x_min":122,"x_max":740,"o":"m 122 0 l 122 1010 l 732 1010 l 732 902 l 245 902 l 245 560 l 700 560 l 700 452 l 245 452 l 245 109 l 740 109 l 740 0 l 122 0 m 529 1101 l 426 1239 l 324 1101 l 213 1101 l 213 1109 l 373 1314 l 479 1314 l 639 1109 l 639 1101 l 529 1101 z "},"Ë":{"ha":831,"x_min":122,"x_max":740,"o":"m 122 0 l 122 1010 l 732 1010 l 732 902 l 245 902 l 245 560 l 700 560 l 700 452 l 245 452 l 245 109 l 740 109 l 740 0 l 122 0 m 284 1136 q 229 1160 253 1136 q 205 1215 205 1184 q 229 1272 205 1249 q 284 1294 253 1294 q 341 1272 318 1294 q 363 1215 363 1249 q 341 1160 363 1184 q 284 1136 318 1136 m 568 1136 q 513 1160 537 1136 q 489 1215 489 1184 q 513 1272 489 1249 q 568 1294 537 1294 q 625 1272 602 1294 q 647 1215 647 1249 q 625 1160 647 1184 q 568 1136 602 1136 z "},"Ē":{"ha":831,"x_min":122,"x_max":740,"o":"m 122 0 l 122 1010 l 732 1010 l 732 902 l 245 902 l 245 560 l 700 560 l 700 452 l 245 452 l 245 109 l 740 109 l 740 0 l 122 0 m 657 1263 l 657 1164 l 195 1164 l 195 1263 l 657 1263 z "},"Ĕ":{"ha":831,"x_min":122,"x_max":740,"o":"m 122 0 l 122 1010 l 732 1010 l 732 902 l 245 902 l 245 560 l 700 560 l 700 452 l 245 452 l 245 109 l 740 109 l 740 0 l 122 0 m 523 1263 l 631 1263 q 576 1132 631 1183 q 426 1081 521 1081 q 278 1132 333 1081 q 223 1263 223 1183 l 331 1263 q 353 1195 331 1224 q 426 1166 374 1166 q 500 1195 478 1166 q 523 1263 523 1224 z "},"Ė":{"ha":831,"x_min":122,"x_max":740,"o":"m 122 0 l 122 1010 l 732 1010 l 732 902 l 245 902 l 245 560 l 700 560 l 700 452 l 245 452 l 245 109 l 740 109 l 740 0 l 122 0 m 426 1136 q 368 1160 392 1136 q 343 1215 343 1183 q 368 1271 343 1248 q 426 1294 392 1294 q 485 1271 460 1294 q 509 1215 509 1248 q 485 1160 509 1183 q 426 1136 460 1136 z "},"Ę":{"ha":831,"x_min":122,"x_max":752,"o":"m 122 0 l 122 1010 l 732 1010 l 732 902 l 245 902 l 245 560 l 700 560 l 700 452 l 245 452 l 245 109 l 740 109 l 740 0 l 122 0 m 647 -296 q 547 -263 586 -296 q 507 -166 507 -229 q 548 -57 507 -111 q 687 41 589 -3 l 740 0 q 660 -69 695 -33 q 625 -150 625 -106 q 636 -185 625 -172 q 677 -197 647 -197 q 716 -191 699 -197 q 744 -180 733 -185 l 752 -266 q 709 -286 735 -277 q 647 -296 683 -296 z "},"Ě":{"ha":831,"x_min":122,"x_max":740,"o":"m 122 0 l 122 1010 l 732 1010 l 732 902 l 245 902 l 245 560 l 700 560 l 700 452 l 245 452 l 245 109 l 740 109 l 740 0 l 122 0 m 324 1314 l 426 1176 l 529 1314 l 639 1314 l 639 1306 l 479 1101 l 373 1101 l 213 1306 l 213 1314 l 324 1314 z "},"Ȅ":{"ha":831,"x_min":110,"x_max":740,"o":"m 122 0 l 122 1010 l 732 1010 l 732 902 l 245 902 l 245 560 l 700 560 l 700 452 l 245 452 l 245 109 l 740 109 l 740 0 l 122 0 m 482 1113 l 362 1342 l 510 1342 l 584 1113 l 482 1113 m 273 1113 l 110 1342 l 255 1342 l 376 1113 l 273 1113 z "},"Ȇ":{"ha":831,"x_min":122,"x_max":740,"o":"m 122 0 l 122 1010 l 732 1010 l 732 902 l 245 902 l 245 560 l 700 560 l 700 452 l 245 452 l 245 109 l 740 109 l 740 0 l 122 0 m 221 1136 q 276 1268 221 1216 q 426 1320 331 1320 q 575 1268 521 1320 q 629 1136 629 1216 l 521 1136 q 499 1206 521 1176 q 426 1235 476 1235 q 351 1205 373 1235 q 329 1136 329 1175 l 221 1136 z "},"Ȩ":{"ha":831,"x_min":122,"x_max":740,"o":"m 122 0 l 122 1010 l 732 1010 l 732 902 l 245 902 l 245 560 l 700 560 l 700 452 l 245 452 l 245 109 l 740 109 l 740 0 l 122 0 m 367 4 l 464 4 l 456 -36 q 526 -68 494 -41 q 558 -152 558 -94 q 506 -256 558 -216 q 351 -296 453 -296 l 347 -219 q 423 -204 393 -219 q 454 -156 454 -190 q 429 -109 454 -122 q 347 -93 403 -97 l 367 4 z "},"Ḕ":{"ha":831,"x_min":122,"x_max":740,"o":"m 122 0 l 122 1010 l 732 1010 l 732 902 l 245 902 l 245 560 l 700 560 l 700 452 l 245 452 l 245 109 l 740 109 l 740 0 l 122 0 m 657 1235 l 657 1136 l 195 1136 l 195 1235 l 657 1235 m 376 1302 l 208 1452 l 348 1452 l 496 1302 l 376 1302 z "},"Ḗ":{"ha":831,"x_min":122,"x_max":740,"o":"m 122 0 l 122 1010 l 732 1010 l 732 902 l 245 902 l 245 560 l 700 560 l 700 452 l 245 452 l 245 109 l 740 109 l 740 0 l 122 0 m 657 1235 l 657 1136 l 195 1136 l 195 1235 l 657 1235 m 357 1302 l 505 1452 l 645 1452 l 477 1302 l 357 1302 z "},"Ḙ":{"ha":831,"x_min":122,"x_max":740,"o":"m 122 0 l 122 1010 l 732 1010 l 732 902 l 245 902 l 245 560 l 700 560 l 700 452 l 245 452 l 245 109 l 740 109 l 740 0 l 122 0 m 519 -276 l 416 -138 l 314 -276 l 203 -276 l 203 -268 l 363 -63 l 470 -63 l 629 -268 l 629 -276 l 519 -276 z "},"Ḛ":{"ha":831,"x_min":122,"x_max":740,"o":"m 122 0 l 122 1010 l 732 1010 l 732 902 l 245 902 l 245 560 l 700 560 l 700 452 l 245 452 l 245 109 l 740 109 l 740 0 l 122 0 m 304 -251 l 213 -247 q 256 -123 213 -171 q 363 -75 299 -75 q 427 -91 400 -75 q 481 -122 454 -107 q 543 -138 507 -138 q 590 -116 571 -138 q 610 -63 610 -94 l 698 -71 q 655 -193 698 -148 q 548 -239 612 -239 q 492 -229 514 -239 q 453 -207 470 -219 q 416 -185 436 -195 q 369 -176 397 -176 q 322 -198 341 -176 q 304 -251 304 -219 z "},"Ḝ":{"ha":831,"x_min":122,"x_max":740,"o":"m 122 0 l 122 1010 l 732 1010 l 732 902 l 245 902 l 245 560 l 700 560 l 700 452 l 245 452 l 245 109 l 740 109 l 740 0 l 122 0 m 367 4 l 464 4 l 456 -36 q 526 -68 494 -41 q 558 -152 558 -94 q 506 -256 558 -216 q 351 -296 453 -296 l 347 -219 q 423 -204 393 -219 q 454 -156 454 -190 q 429 -109 454 -122 q 347 -93 403 -97 l 367 4 m 523 1263 l 631 1263 q 576 1132 631 1183 q 426 1081 521 1081 q 278 1132 333 1081 q 223 1263 223 1183 l 331 1263 q 353 1195 331 1224 q 426 1166 374 1166 q 500 1195 478 1166 q 523 1263 523 1224 z "},"Ẹ":{"ha":831,"x_min":122,"x_max":740,"o":"m 122 0 l 122 1010 l 732 1010 l 732 902 l 245 902 l 245 560 l 700 560 l 700 452 l 245 452 l 245 109 l 740 109 l 740 0 l 122 0 m 416 -251 q 358 -227 382 -251 q 333 -172 333 -204 q 358 -116 333 -139 q 416 -93 382 -93 q 475 -116 450 -93 q 499 -172 499 -139 q 475 -227 499 -204 q 416 -251 450 -251 z "},"Ẻ":{"ha":831,"x_min":122,"x_max":740,"o":"m 122 0 l 122 1010 l 732 1010 l 732 902 l 245 902 l 245 560 l 700 560 l 700 452 l 245 452 l 245 109 l 740 109 l 740 0 l 122 0 m 477 1113 l 381 1113 l 381 1219 q 454 1234 433 1222 q 475 1269 475 1245 q 444 1308 475 1295 q 369 1320 413 1320 l 373 1395 q 527 1359 475 1395 q 580 1265 580 1324 q 548 1191 580 1214 q 477 1162 516 1168 l 477 1113 z "},"Ẽ":{"ha":831,"x_min":122,"x_max":740,"o":"m 122 0 l 122 1010 l 732 1010 l 732 902 l 245 902 l 245 560 l 700 560 l 700 452 l 245 452 l 245 109 l 740 109 l 740 0 l 122 0 m 274 1101 l 183 1105 q 227 1228 183 1180 q 333 1276 270 1276 q 398 1261 371 1276 q 451 1229 425 1245 q 513 1213 477 1213 q 561 1235 541 1213 q 580 1288 580 1257 l 669 1280 q 626 1158 669 1203 q 519 1113 582 1113 q 463 1122 485 1113 q 423 1144 440 1132 q 387 1166 406 1157 q 339 1176 367 1176 q 293 1154 311 1176 q 274 1101 274 1132 z "},"Ế":{"ha":831,"x_min":122,"x_max":870,"o":"m 122 0 l 122 1010 l 732 1010 l 732 902 l 245 902 l 245 560 l 700 560 l 700 452 l 245 452 l 245 109 l 740 109 l 740 0 l 122 0 m 172 1105 l 373 1284 l 481 1284 l 683 1105 l 541 1105 l 428 1209 l 316 1105 l 172 1105 m 629 1225 l 726 1403 l 870 1403 l 732 1225 l 629 1225 z "},"Ề":{"ha":831,"x_min":-18,"x_max":740,"o":"m 122 0 l 122 1010 l 732 1010 l 732 902 l 245 902 l 245 560 l 700 560 l 700 452 l 245 452 l 245 109 l 740 109 l 740 0 l 122 0 m 479 1282 l 681 1103 l 539 1103 l 426 1207 l 314 1103 l 172 1103 l 371 1282 l 479 1282 m 128 1403 l 223 1223 l 122 1223 l -18 1403 l 128 1403 z "},"Ể":{"ha":831,"x_min":122,"x_max":789,"o":"m 122 0 l 122 1010 l 732 1010 l 732 902 l 245 902 l 245 560 l 700 560 l 700 452 l 245 452 l 245 109 l 740 109 l 740 0 l 122 0 m 493 1271 l 681 1091 l 558 1091 l 424 1215 l 292 1091 l 170 1091 l 357 1271 l 493 1271 m 700 1186 l 618 1186 l 618 1276 q 679 1288 659 1279 q 698 1318 698 1296 q 672 1351 698 1342 q 606 1361 646 1361 l 610 1426 q 744 1396 698 1426 q 789 1316 789 1366 q 762 1252 789 1272 q 700 1227 734 1232 l 700 1186 z "},"Ễ":{"ha":831,"x_min":122,"x_max":740,"o":"m 122 0 l 122 1010 l 732 1010 l 732 902 l 245 902 l 245 560 l 700 560 l 700 452 l 245 452 l 245 109 l 740 109 l 740 0 l 122 0 m 472 1243 l 679 1077 l 556 1077 l 424 1182 l 292 1077 l 170 1077 l 377 1243 l 472 1243 m 546 1417 l 602 1401 q 569 1327 602 1361 q 489 1294 537 1294 q 436 1306 456 1294 q 398 1330 415 1318 q 353 1342 380 1342 q 314 1326 332 1342 q 296 1292 296 1310 l 243 1306 q 274 1380 243 1346 q 353 1415 306 1415 q 402 1403 381 1415 q 443 1381 423 1392 q 489 1369 464 1369 q 528 1384 510 1369 q 546 1417 546 1399 z "},"Ệ":{"ha":831,"x_min":122,"x_max":740,"o":"m 122 0 l 122 1010 l 732 1010 l 732 902 l 245 902 l 245 560 l 700 560 l 700 452 l 245 452 l 245 109 l 740 109 l 740 0 l 122 0 m 529 1101 l 426 1239 l 324 1101 l 213 1101 l 213 1109 l 373 1314 l 479 1314 l 639 1109 l 639 1101 l 529 1101 m 416 -251 q 358 -227 382 -251 q 333 -172 333 -204 q 358 -116 333 -139 q 416 -93 382 -93 q 475 -116 450 -93 q 499 -172 499 -139 q 475 -227 499 -204 q 416 -251 450 -251 z "},"Ɇ":{"ha":831,"x_min":122,"x_max":740,"o":"m 696 1138 l 659 1010 l 732 1010 l 732 902 l 628 902 l 530 560 l 700 560 l 700 452 l 499 452 l 400 109 l 740 109 l 740 0 l 368 0 l 331 -128 l 219 -128 l 256 0 l 122 0 l 122 1010 l 547 1010 l 584 1138 l 696 1138 m 516 902 l 245 902 l 245 560 l 417 560 l 516 902 m 386 452 l 245 452 l 245 109 l 287 109 l 386 452 z "},"Ǝ":{"ha":831,"x_min":91,"x_max":708,"o":"m 708 1010 l 708 0 l 99 0 l 99 109 l 586 109 l 586 450 l 130 450 l 130 558 l 586 558 l 586 902 l 91 902 l 91 1010 l 708 1010 z "},"Ε":{"ha":831,"x_min":122,"x_max":740,"o":"m 122 0 l 122 1010 l 732 1010 l 732 902 l 245 902 l 245 560 l 700 560 l 700 452 l 245 452 l 245 109 l 740 109 l 740 0 l 122 0 z "},"Έ":{"ha":959,"x_min":49,"x_max":868,"o":"m 251 0 l 251 1010 l 860 1010 l 860 902 l 373 902 l 373 560 l 829 560 l 829 452 l 373 452 l 373 109 l 868 109 l 868 0 l 251 0 m 49 842 l 83 1073 l 209 1073 l 130 842 l 49 842 z "},"Ἐ":{"ha":1006,"x_min":49,"x_max":915,"o":"m 298 0 l 298 1010 l 908 1010 l 908 902 l 420 902 l 420 560 l 876 560 l 876 452 l 420 452 l 420 109 l 915 109 l 915 0 l 298 0 m 227 1010 l 227 955 q 103 765 227 832 l 49 807 q 91 874 77 838 q 105 959 105 910 l 105 1010 l 227 1010 z "},"Ἑ":{"ha":996,"x_min":49,"x_max":906,"o":"m 288 0 l 288 1010 l 898 1010 l 898 902 l 410 902 l 410 560 l 866 560 l 866 452 l 410 452 l 410 109 l 906 109 l 906 0 l 288 0 m 49 955 l 49 1010 l 172 1010 l 172 959 q 185 874 172 910 q 227 807 199 838 l 174 765 q 82 847 114 798 q 49 955 49 896 z "},"Ἒ":{"ha":1278,"x_min":49,"x_max":1188,"o":"m 570 0 l 570 1010 l 1180 1010 l 1180 902 l 692 902 l 692 560 l 1148 560 l 1148 452 l 692 452 l 692 109 l 1188 109 l 1188 0 l 570 0 m 227 1014 l 227 959 q 194 851 227 900 q 103 769 162 802 l 49 811 q 90 878 76 842 q 105 963 105 914 l 105 1014 l 227 1014 m 477 795 l 477 785 l 414 785 l 258 1000 l 258 1014 l 400 1014 l 477 795 z "},"Ἓ":{"ha":1227,"x_min":49,"x_max":1136,"o":"m 519 0 l 519 1010 l 1128 1010 l 1128 902 l 641 902 l 641 560 l 1097 560 l 1097 452 l 641 452 l 641 109 l 1136 109 l 1136 0 l 519 0 m 49 955 l 49 1010 l 172 1010 l 172 959 q 185 874 172 910 q 227 807 199 838 l 174 765 q 82 847 114 798 q 49 955 49 896 m 436 791 l 436 781 l 373 781 l 217 996 l 217 1010 l 361 1010 l 436 791 z "},"Ἔ":{"ha":1217,"x_min":49,"x_max":1126,"o":"m 509 0 l 509 1010 l 1119 1010 l 1119 902 l 631 902 l 631 560 l 1087 560 l 1087 452 l 631 452 l 631 109 l 1126 109 l 1126 0 l 509 0 m 227 1010 l 227 955 q 194 847 227 896 q 103 765 162 798 l 49 807 q 90 874 76 838 q 105 959 105 910 l 105 1010 l 227 1010 m 237 781 l 237 791 l 314 1010 l 456 1010 l 456 996 l 300 781 l 237 781 z "},"Ἕ":{"ha":1241,"x_min":49,"x_max":1150,"o":"m 533 0 l 533 1010 l 1142 1010 l 1142 902 l 655 902 l 655 560 l 1111 560 l 1111 452 l 655 452 l 655 109 l 1150 109 l 1150 0 l 533 0 m 174 765 q 82 847 114 798 q 49 955 49 896 l 49 1010 l 172 1010 l 172 959 q 186 874 172 910 q 227 807 200 838 l 174 765 m 253 781 l 253 791 l 327 1010 l 472 1010 l 472 996 l 316 781 l 253 781 z "},"Ὲ":{"ha":1067,"x_min":49,"x_max":977,"o":"m 359 0 l 359 1010 l 969 1010 l 969 902 l 481 902 l 481 560 l 937 560 l 937 452 l 481 452 l 481 109 l 977 109 l 977 0 l 359 0 m 205 779 l 49 996 l 49 1010 l 191 1010 l 268 791 l 268 779 l 205 779 z "},"Έ":{"ha":1028,"x_min":120,"x_max":937,"o":"m 320 0 l 320 1010 l 929 1010 l 929 902 l 442 902 l 442 560 l 898 560 l 898 452 l 442 452 l 442 109 l 937 109 l 937 0 l 320 0 m 120 852 l 120 864 l 195 1083 l 339 1083 l 339 1069 l 183 852 l 120 852 z "},"Е":{"ha":831,"x_min":122,"x_max":740,"o":"m 122 0 l 122 1010 l 732 1010 l 732 902 l 245 902 l 245 560 l 700 560 l 700 452 l 245 452 l 245 109 l 740 109 l 740 0 l 122 0 z "},"Ѐ":{"ha":831,"x_min":122,"x_max":740,"o":"m 122 0 l 122 1010 l 732 1010 l 732 902 l 245 902 l 245 560 l 700 560 l 700 452 l 245 452 l 245 109 l 740 109 l 740 0 l 122 0 m 377 1113 l 223 1342 l 359 1342 l 479 1113 l 377 1113 z "},"Ё":{"ha":831,"x_min":122,"x_max":740,"o":"m 122 0 l 122 1010 l 732 1010 l 732 902 l 245 902 l 245 560 l 700 560 l 700 452 l 245 452 l 245 109 l 740 109 l 740 0 l 122 0 m 284 1136 q 229 1160 253 1136 q 205 1215 205 1184 q 229 1272 205 1249 q 284 1294 253 1294 q 341 1272 318 1294 q 363 1215 363 1249 q 341 1160 363 1184 q 284 1136 318 1136 m 568 1136 q 513 1160 537 1136 q 489 1215 489 1184 q 513 1272 489 1249 q 568 1294 537 1294 q 625 1272 602 1294 q 647 1215 647 1249 q 625 1160 647 1184 q 568 1136 602 1136 z "},"Ӗ":{"ha":831,"x_min":122,"x_max":740,"o":"m 122 0 l 122 1010 l 732 1010 l 732 902 l 245 902 l 245 560 l 700 560 l 700 452 l 245 452 l 245 109 l 740 109 l 740 0 l 122 0 m 523 1263 l 631 1263 q 576 1132 631 1183 q 426 1081 521 1081 q 278 1132 333 1081 q 223 1263 223 1183 l 331 1263 q 353 1195 331 1224 q 426 1166 374 1166 q 500 1195 478 1166 q 523 1263 523 1224 z "},"F":{"ha":815,"x_min":122,"x_max":728,"o":"m 122 0 l 122 1010 l 728 1010 l 728 902 l 245 902 l 245 560 l 683 560 l 683 452 l 245 452 l 245 0 l 122 0 z "},"Ƒ":{"ha":815,"x_min":-24,"x_max":728,"o":"m 122 -79 l 122 1010 l 728 1010 l 728 902 l 245 902 l 245 560 l 683 560 l 683 452 l 245 452 l 245 -81 q 186 -231 245 -179 q 14 -284 128 -284 q 3 -283 8 -284 q -24 -278 -1 -283 l -24 -178 q -6 -180 -16 -179 q 14 -182 3 -182 q 92 -160 61 -182 q 122 -79 122 -138 z "},"Ḟ":{"ha":815,"x_min":122,"x_max":728,"o":"m 122 0 l 122 1010 l 728 1010 l 728 902 l 245 902 l 245 560 l 683 560 l 683 452 l 245 452 l 245 0 l 122 0 m 438 1136 q 380 1160 404 1136 q 355 1215 355 1183 q 380 1271 355 1248 q 438 1294 404 1294 q 496 1271 472 1294 q 521 1215 521 1248 q 496 1160 521 1183 q 438 1136 472 1136 z "},"Ⅎ":{"ha":815,"x_min":87,"x_max":692,"o":"m 692 1010 l 692 0 l 87 0 l 87 109 l 570 109 l 570 450 l 132 450 l 132 558 l 570 558 l 570 1010 l 692 1010 z "},"G":{"ha":1032,"x_min":83,"x_max":945,"o":"m 813 694 q 708 852 781 794 q 525 909 634 909 q 362 863 435 909 q 245 727 288 817 q 201 505 201 636 q 245 284 201 374 q 364 147 289 193 q 533 101 439 101 q 684 137 618 101 q 787 239 750 173 q 827 397 825 306 l 560 397 l 560 505 l 945 505 l 945 397 q 892 180 945 272 q 746 37 839 87 q 533 -14 653 -14 q 297 49 399 -14 q 139 229 196 112 q 83 505 83 345 q 139 781 83 665 q 296 961 196 898 q 525 1024 396 1024 q 718 982 631 1024 q 863 866 805 941 q 939 694 920 792 l 813 694 z "},"Ǥ":{"ha":1032,"x_min":83,"x_max":1014,"o":"m 1014 308 l 1014 209 l 907 209 q 761 45 859 104 q 533 -14 662 -14 q 297 49 399 -14 q 139 229 196 112 q 83 505 83 345 q 139 781 83 665 q 296 961 196 898 q 525 1024 396 1024 q 718 982 631 1024 q 863 866 805 941 q 939 694 920 792 l 813 694 q 708 852 781 794 q 525 909 634 909 q 362 863 435 909 q 245 727 288 817 q 201 505 201 636 q 245 284 201 374 q 364 147 289 193 q 533 101 439 101 q 668 129 608 101 q 767 209 728 157 l 560 209 l 560 308 l 814 308 q 827 397 826 350 l 560 397 l 560 505 l 945 505 l 945 397 q 937 308 945 351 l 1014 308 z "},"Ɠ":{"ha":1073,"x_min":83,"x_max":1085,"o":"m 813 694 q 708 852 781 794 q 525 909 634 909 q 362 863 435 909 q 245 727 288 817 q 201 505 201 636 q 245 284 201 374 q 364 147 289 193 q 533 101 439 101 q 684 137 618 101 q 787 239 750 173 q 827 397 825 306 l 560 397 l 560 505 l 945 505 l 945 397 q 892 180 945 272 q 746 37 839 87 q 533 -14 653 -14 q 297 49 399 -14 q 139 229 196 112 q 83 505 83 345 q 139 781 83 665 q 296 961 196 898 q 525 1024 396 1024 q 701 990 620 1024 q 838 895 781 955 q 1018 1004 882 1004 q 1054 1003 1036 1004 q 1085 998 1072 1003 l 1085 900 q 1068 902 1078 901 q 1048 904 1058 904 q 969 882 1000 904 q 937 801 937 860 l 937 704 q 939 694 938 699 l 813 694 z "},"Ĝ":{"ha":1032,"x_min":83,"x_max":945,"o":"m 813 694 q 708 852 781 794 q 525 909 634 909 q 362 863 435 909 q 245 727 288 817 q 201 505 201 636 q 245 284 201 374 q 364 147 289 193 q 533 101 439 101 q 684 137 618 101 q 787 239 750 173 q 827 397 825 306 l 560 397 l 560 505 l 945 505 l 945 397 q 892 180 945 272 q 746 37 839 87 q 533 -14 653 -14 q 297 49 399 -14 q 139 229 196 112 q 83 505 83 345 q 139 781 83 665 q 296 961 196 898 q 525 1024 396 1024 q 718 982 631 1024 q 863 866 805 941 q 939 694 920 792 l 813 694 m 627 1101 l 525 1239 l 422 1101 l 312 1101 l 312 1109 l 472 1314 l 578 1314 l 738 1109 l 738 1101 l 627 1101 z "},"Ğ":{"ha":1032,"x_min":83,"x_max":945,"o":"m 813 694 q 708 852 781 794 q 525 909 634 909 q 362 863 435 909 q 245 727 288 817 q 201 505 201 636 q 245 284 201 374 q 364 147 289 193 q 533 101 439 101 q 684 137 618 101 q 787 239 750 173 q 827 397 825 306 l 560 397 l 560 505 l 945 505 l 945 397 q 892 180 945 272 q 746 37 839 87 q 533 -14 653 -14 q 297 49 399 -14 q 139 229 196 112 q 83 505 83 345 q 139 781 83 665 q 296 961 196 898 q 525 1024 396 1024 q 718 982 631 1024 q 863 866 805 941 q 939 694 920 792 l 813 694 m 621 1263 l 730 1263 q 675 1132 730 1183 q 525 1081 619 1081 q 377 1132 432 1081 q 322 1263 322 1183 l 430 1263 q 452 1195 430 1224 q 525 1166 473 1166 q 599 1195 577 1166 q 621 1263 621 1224 z "},"Ġ":{"ha":1032,"x_min":83,"x_max":945,"o":"m 813 694 q 708 852 781 794 q 525 909 634 909 q 362 863 435 909 q 245 727 288 817 q 201 505 201 636 q 245 284 201 374 q 364 147 289 193 q 533 101 439 101 q 684 137 618 101 q 787 239 750 173 q 827 397 825 306 l 560 397 l 560 505 l 945 505 l 945 397 q 892 180 945 272 q 746 37 839 87 q 533 -14 653 -14 q 297 49 399 -14 q 139 229 196 112 q 83 505 83 345 q 139 781 83 665 q 296 961 196 898 q 525 1024 396 1024 q 718 982 631 1024 q 863 866 805 941 q 939 694 920 792 l 813 694 m 525 1136 q 466 1160 491 1136 q 442 1215 442 1183 q 466 1271 442 1248 q 525 1294 491 1294 q 583 1271 559 1294 q 608 1215 608 1248 q 583 1160 608 1183 q 525 1136 559 1136 z "},"Ģ":{"ha":1032,"x_min":83,"x_max":945,"o":"m 813 694 q 708 852 781 794 q 525 909 634 909 q 362 863 435 909 q 245 727 288 817 q 201 505 201 636 q 245 284 201 374 q 364 147 289 193 q 533 101 439 101 q 684 137 618 101 q 787 239 750 173 q 827 397 825 306 l 560 397 l 560 505 l 945 505 l 945 397 q 892 180 945 272 q 746 37 839 87 q 533 -14 653 -14 q 297 49 399 -14 q 139 229 196 112 q 83 505 83 345 q 139 781 83 665 q 296 961 196 898 q 525 1024 396 1024 q 718 982 631 1024 q 863 866 805 941 q 939 694 920 792 l 813 694 m 407 -335 l 463 -80 l 582 -80 l 498 -335 l 407 -335 z "},"Ǧ":{"ha":1032,"x_min":83,"x_max":945,"o":"m 813 694 q 708 852 781 794 q 525 909 634 909 q 362 863 435 909 q 245 727 288 817 q 201 505 201 636 q 245 284 201 374 q 364 147 289 193 q 533 101 439 101 q 684 137 618 101 q 787 239 750 173 q 827 397 825 306 l 560 397 l 560 505 l 945 505 l 945 397 q 892 180 945 272 q 746 37 839 87 q 533 -14 653 -14 q 297 49 399 -14 q 139 229 196 112 q 83 505 83 345 q 139 781 83 665 q 296 961 196 898 q 525 1024 396 1024 q 718 982 631 1024 q 863 866 805 941 q 939 694 920 792 l 813 694 m 422 1314 l 525 1176 l 627 1314 l 738 1314 l 738 1306 l 578 1101 l 472 1101 l 312 1306 l 312 1314 l 422 1314 z "},"Ǵ":{"ha":1032,"x_min":83,"x_max":945,"o":"m 813 694 q 708 852 781 794 q 525 909 634 909 q 362 863 435 909 q 245 727 288 817 q 201 505 201 636 q 245 284 201 374 q 364 147 289 193 q 533 101 439 101 q 684 137 618 101 q 787 239 750 173 q 827 397 825 306 l 560 397 l 560 505 l 945 505 l 945 397 q 892 180 945 272 q 746 37 839 87 q 533 -14 653 -14 q 297 49 399 -14 q 139 229 196 112 q 83 505 83 345 q 139 781 83 665 q 296 961 196 898 q 525 1024 396 1024 q 718 982 631 1024 q 863 866 805 941 q 939 694 920 792 l 813 694 m 472 1113 l 592 1342 l 728 1342 l 574 1113 l 472 1113 z "},"Ḡ":{"ha":1032,"x_min":83,"x_max":945,"o":"m 813 694 q 708 852 781 794 q 525 909 634 909 q 362 863 435 909 q 245 727 288 817 q 201 505 201 636 q 245 284 201 374 q 364 147 289 193 q 533 101 439 101 q 684 137 618 101 q 787 239 750 173 q 827 397 825 306 l 560 397 l 560 505 l 945 505 l 945 397 q 892 180 945 272 q 746 37 839 87 q 533 -14 653 -14 q 297 49 399 -14 q 139 229 196 112 q 83 505 83 345 q 139 781 83 665 q 296 961 196 898 q 525 1024 396 1024 q 718 982 631 1024 q 863 866 805 941 q 939 694 920 792 l 813 694 m 756 1263 l 756 1164 l 294 1164 l 294 1263 l 756 1263 z "},"":{"ha":1042,"x_min":83,"x_max":955,"o":"m 533 -14 q 297 49 399 -14 q 139 229 196 112 q 83 505 83 345 q 141 781 83 665 q 299 961 198 898 q 529 1024 400 1024 q 724 982 635 1024 q 871 866 812 941 q 949 694 930 792 l 823 694 q 715 852 793 795 q 529 909 638 909 q 364 863 439 909 q 246 727 290 817 q 201 505 201 636 q 245 284 201 374 q 364 147 289 193 q 533 101 439 101 q 688 139 620 101 q 794 243 755 177 q 836 397 834 310 l 560 397 l 560 505 l 955 505 l 955 0 l 852 0 l 837 123 l 833 123 q 704 22 775 57 q 533 -14 633 -14 z "},"":{"ha":1042,"x_min":83,"x_max":1024,"o":"m 1024 308 l 1024 209 l 955 209 l 955 0 l 852 0 l 837 123 l 833 123 q 704 22 775 57 q 533 -14 633 -14 q 297 49 399 -14 q 139 229 196 112 q 83 505 83 345 q 141 781 83 665 q 299 961 198 898 q 529 1024 400 1024 q 724 982 635 1024 q 871 866 812 941 q 949 694 930 792 l 823 694 q 715 852 793 795 q 529 909 638 909 q 364 863 439 909 q 246 727 290 817 q 201 505 201 636 q 245 284 201 374 q 364 147 289 193 q 533 101 439 101 q 670 129 609 101 q 771 209 731 158 l 560 209 l 560 308 l 822 308 q 836 397 835 350 l 560 397 l 560 505 l 955 505 l 955 308 l 1024 308 z "},"":{"ha":1073,"x_min":83,"x_max":1097,"o":"m 949 694 l 823 694 q 715 852 793 795 q 529 909 638 909 q 364 863 439 909 q 246 727 290 817 q 201 505 201 636 q 245 284 201 374 q 364 147 289 193 q 533 101 439 101 q 688 139 620 101 q 794 243 755 177 q 836 397 834 310 l 560 397 l 560 505 l 955 505 l 955 0 l 852 0 l 837 123 l 833 123 q 704 22 775 57 q 533 -14 633 -14 q 297 49 399 -14 q 139 229 196 112 q 83 505 83 345 q 141 781 83 665 q 299 961 198 898 q 529 1024 400 1024 q 708 989 626 1024 q 849 892 791 954 q 1030 1004 892 1004 q 1066 1003 1048 1004 q 1097 998 1084 1003 l 1097 900 q 1080 902 1090 901 q 1059 904 1070 904 q 981 882 1012 904 q 949 801 949 860 l 949 694 z "},"":{"ha":1042,"x_min":83,"x_max":955,"o":"m 533 -14 q 297 49 399 -14 q 139 229 196 112 q 83 505 83 345 q 141 781 83 665 q 299 961 198 898 q 529 1024 400 1024 q 724 982 635 1024 q 871 866 812 941 q 949 694 930 792 l 823 694 q 715 852 793 795 q 529 909 638 909 q 364 863 439 909 q 246 727 290 817 q 201 505 201 636 q 245 284 201 374 q 364 147 289 193 q 533 101 439 101 q 688 139 620 101 q 794 243 755 177 q 836 397 834 310 l 560 397 l 560 505 l 955 505 l 955 0 l 852 0 l 837 123 l 833 123 q 704 22 775 57 q 533 -14 633 -14 m 627 1101 l 525 1239 l 422 1101 l 312 1101 l 312 1109 l 472 1314 l 578 1314 l 738 1109 l 738 1101 l 627 1101 z "},"":{"ha":1042,"x_min":83,"x_max":955,"o":"m 533 -14 q 297 49 399 -14 q 139 229 196 112 q 83 505 83 345 q 141 781 83 665 q 299 961 198 898 q 529 1024 400 1024 q 724 982 635 1024 q 871 866 812 941 q 949 694 930 792 l 823 694 q 715 852 793 795 q 529 909 638 909 q 364 863 439 909 q 246 727 290 817 q 201 505 201 636 q 245 284 201 374 q 364 147 289 193 q 533 101 439 101 q 688 139 620 101 q 794 243 755 177 q 836 397 834 310 l 560 397 l 560 505 l 955 505 l 955 0 l 852 0 l 837 123 l 833 123 q 704 22 775 57 q 533 -14 633 -14 m 621 1263 l 730 1263 q 675 1132 730 1183 q 525 1081 619 1081 q 377 1132 432 1081 q 322 1263 322 1183 l 430 1263 q 452 1195 430 1224 q 525 1166 473 1166 q 599 1195 577 1166 q 621 1263 621 1224 z "},"":{"ha":1042,"x_min":83,"x_max":955,"o":"m 533 -14 q 297 49 399 -14 q 139 229 196 112 q 83 505 83 345 q 141 781 83 665 q 299 961 198 898 q 529 1024 400 1024 q 724 982 635 1024 q 871 866 812 941 q 949 694 930 792 l 823 694 q 715 852 793 795 q 529 909 638 909 q 364 863 439 909 q 246 727 290 817 q 201 505 201 636 q 245 284 201 374 q 364 147 289 193 q 533 101 439 101 q 688 139 620 101 q 794 243 755 177 q 836 397 834 310 l 560 397 l 560 505 l 955 505 l 955 0 l 852 0 l 837 123 l 833 123 q 704 22 775 57 q 533 -14 633 -14 m 525 1136 q 466 1160 491 1136 q 442 1215 442 1183 q 466 1271 442 1248 q 525 1294 491 1294 q 583 1271 559 1294 q 608 1215 608 1248 q 583 1160 608 1183 q 525 1136 559 1136 z "},"":{"ha":1042,"x_min":83,"x_max":955,"o":"m 533 -14 q 297 49 399 -14 q 139 229 196 112 q 83 505 83 345 q 141 781 83 665 q 299 961 198 898 q 529 1024 400 1024 q 724 982 635 1024 q 871 866 812 941 q 949 694 930 792 l 823 694 q 715 852 793 795 q 529 909 638 909 q 364 863 439 909 q 246 727 290 817 q 201 505 201 636 q 245 284 201 374 q 364 147 289 193 q 533 101 439 101 q 688 139 620 101 q 794 243 755 177 q 836 397 834 310 l 560 397 l 560 505 l 955 505 l 955 0 l 852 0 l 837 123 l 833 123 q 704 22 775 57 q 533 -14 633 -14 m 407 -335 l 463 -80 l 582 -80 l 498 -335 l 407 -335 z "},"":{"ha":1042,"x_min":83,"x_max":955,"o":"m 533 -14 q 297 49 399 -14 q 139 229 196 112 q 83 505 83 345 q 141 781 83 665 q 299 961 198 898 q 529 1024 400 1024 q 724 982 635 1024 q 871 866 812 941 q 949 694 930 792 l 823 694 q 715 852 793 795 q 529 909 638 909 q 364 863 439 909 q 246 727 290 817 q 201 505 201 636 q 245 284 201 374 q 364 147 289 193 q 533 101 439 101 q 688 139 620 101 q 794 243 755 177 q 836 397 834 310 l 560 397 l 560 505 l 955 505 l 955 0 l 852 0 l 837 123 l 833 123 q 704 22 775 57 q 533 -14 633 -14 m 422 1314 l 525 1176 l 627 1314 l 738 1314 l 738 1306 l 578 1101 l 472 1101 l 312 1306 l 312 1314 l 422 1314 z "},"":{"ha":1042,"x_min":83,"x_max":955,"o":"m 533 -14 q 297 49 399 -14 q 139 229 196 112 q 83 505 83 345 q 141 781 83 665 q 299 961 198 898 q 529 1024 400 1024 q 724 982 635 1024 q 871 866 812 941 q 949 694 930 792 l 823 694 q 715 852 793 795 q 529 909 638 909 q 364 863 439 909 q 246 727 290 817 q 201 505 201 636 q 245 284 201 374 q 364 147 289 193 q 533 101 439 101 q 688 139 620 101 q 794 243 755 177 q 836 397 834 310 l 560 397 l 560 505 l 955 505 l 955 0 l 852 0 l 837 123 l 833 123 q 704 22 775 57 q 533 -14 633 -14 m 472 1113 l 592 1342 l 728 1342 l 574 1113 l 472 1113 z "},"":{"ha":1042,"x_min":83,"x_max":955,"o":"m 533 -14 q 297 49 399 -14 q 139 229 196 112 q 83 505 83 345 q 141 781 83 665 q 299 961 198 898 q 529 1024 400 1024 q 724 982 635 1024 q 871 866 812 941 q 949 694 930 792 l 823 694 q 715 852 793 795 q 529 909 638 909 q 364 863 439 909 q 246 727 290 817 q 201 505 201 636 q 245 284 201 374 q 364 147 289 193 q 533 101 439 101 q 688 139 620 101 q 794 243 755 177 q 836 397 834 310 l 560 397 l 560 505 l 955 505 l 955 0 l 852 0 l 837 123 l 833 123 q 704 22 775 57 q 533 -14 633 -14 m 756 1263 l 756 1164 l 294 1164 l 294 1263 l 756 1263 z "},"H":{"ha":1028,"x_min":122,"x_max":906,"o":"m 122 0 l 122 1010 l 245 1010 l 245 560 l 783 560 l 783 1010 l 906 1010 l 906 0 l 783 0 l 783 452 l 245 452 l 245 0 l 122 0 z "},"Ḩ":{"ha":1028,"x_min":122,"x_max":906,"o":"m 122 0 l 122 1010 l 245 1010 l 245 560 l 783 560 l 783 1010 l 906 1010 l 906 0 l 783 0 l 783 452 l 245 452 l 245 0 l 122 0 m 148 2 l 245 2 l 237 -37 q 307 -70 275 -43 q 339 -154 339 -96 q 287 -258 339 -218 q 132 -298 234 -298 l 128 -221 q 204 -206 174 -221 q 235 -158 235 -192 q 210 -111 235 -124 q 128 -95 184 -99 l 148 2 z "},"Ĥ":{"ha":1028,"x_min":122,"x_max":906,"o":"m 122 0 l 122 1010 l 245 1010 l 245 560 l 783 560 l 783 1010 l 906 1010 l 906 0 l 783 0 l 783 452 l 245 452 l 245 0 l 122 0 m 621 1103 l 519 1241 l 416 1103 l 306 1103 l 306 1111 l 466 1316 l 572 1316 l 732 1111 l 732 1103 l 621 1103 z "},"Ȟ":{"ha":1028,"x_min":122,"x_max":906,"o":"m 122 0 l 122 1010 l 245 1010 l 245 560 l 783 560 l 783 1010 l 906 1010 l 906 0 l 783 0 l 783 452 l 245 452 l 245 0 l 122 0 m 416 1316 l 519 1178 l 621 1316 l 732 1316 l 732 1308 l 572 1103 l 466 1103 l 306 1308 l 306 1316 l 416 1316 z "},"Ḣ":{"ha":1028,"x_min":122,"x_max":906,"o":"m 122 0 l 122 1010 l 245 1010 l 245 560 l 783 560 l 783 1010 l 906 1010 l 906 0 l 783 0 l 783 452 l 245 452 l 245 0 l 122 0 m 519 1138 q 460 1162 485 1138 q 436 1217 436 1185 q 460 1273 436 1250 q 519 1296 485 1296 q 577 1273 553 1296 q 602 1217 602 1250 q 577 1162 602 1185 q 519 1138 553 1138 z "},"Ḥ":{"ha":1028,"x_min":122,"x_max":906,"o":"m 122 0 l 122 1010 l 245 1010 l 245 560 l 783 560 l 783 1010 l 906 1010 l 906 0 l 783 0 l 783 452 l 245 452 l 245 0 l 122 0 m 513 -251 q 454 -227 479 -251 q 430 -172 430 -204 q 454 -116 430 -139 q 513 -93 479 -93 q 571 -116 547 -93 q 596 -172 596 -139 q 571 -227 596 -204 q 513 -251 547 -251 z "},"Ḧ":{"ha":1028,"x_min":122,"x_max":906,"o":"m 122 0 l 122 1010 l 245 1010 l 245 560 l 783 560 l 783 1010 l 906 1010 l 906 0 l 783 0 l 783 452 l 245 452 l 245 0 l 122 0 m 377 1138 q 322 1162 346 1138 q 298 1217 298 1186 q 322 1274 298 1251 q 377 1296 346 1296 q 433 1274 411 1296 q 456 1217 456 1251 q 433 1162 456 1186 q 377 1138 411 1138 m 661 1138 q 606 1162 630 1138 q 582 1217 582 1186 q 606 1274 582 1251 q 661 1296 630 1296 q 717 1274 695 1296 q 740 1217 740 1251 q 717 1162 740 1186 q 661 1138 695 1138 z "},"Ḫ":{"ha":1028,"x_min":122,"x_max":906,"o":"m 122 0 l 122 1010 l 245 1010 l 245 560 l 783 560 l 783 1010 l 906 1010 l 906 0 l 783 0 l 783 452 l 245 452 l 245 0 l 122 0 m 608 -65 l 716 -65 q 661 -198 716 -146 q 513 -249 606 -249 q 363 -196 418 -249 q 308 -65 308 -144 l 416 -65 q 438 -134 416 -105 q 511 -164 461 -164 q 585 -134 563 -164 q 608 -65 608 -104 z "},"Ħ":{"ha":1079,"x_min":67,"x_max":1012,"o":"m 1012 797 l 1012 694 l 931 694 l 931 0 l 809 0 l 809 452 l 270 452 l 270 0 l 148 0 l 148 694 l 67 694 l 67 797 l 148 797 l 148 1010 l 270 1010 l 270 797 l 809 797 l 809 1010 l 931 1010 l 931 797 l 1012 797 m 809 694 l 270 694 l 270 560 l 809 560 l 809 694 z "},"Ӈ":{"ha":1028,"x_min":122,"x_max":906,"o":"m 122 0 l 122 1010 l 245 1010 l 245 560 l 783 560 l 783 1010 l 906 1010 l 906 -81 q 846 -231 906 -179 q 704 -284 787 -284 q 669 -283 687 -284 q 637 -278 651 -283 l 637 -178 q 654 -180 645 -179 q 675 -182 664 -182 q 753 -160 722 -182 q 783 -79 783 -138 l 783 452 l 245 452 l 245 0 l 122 0 z "},"Ң":{"ha":1065,"x_min":122,"x_max":1010,"o":"m 122 0 l 122 1010 l 245 1010 l 245 560 l 783 560 l 783 1010 l 906 1010 l 906 0 l 783 0 l 783 452 l 245 452 l 245 0 l 122 0 m 1010 109 l 1010 -245 l 894 -245 l 894 109 l 1010 109 z "},"Ӊ":{"ha":1077,"x_min":122,"x_max":1022,"o":"m 122 0 l 122 1010 l 245 1010 l 245 560 l 783 560 l 783 1010 l 906 1010 l 906 0 l 783 0 l 783 452 l 245 452 l 245 0 l 122 0 m 1022 77 l 1022 -16 q 1002 -142 1020 -81 q 945 -260 983 -203 l 846 -241 q 889 -128 872 -182 q 906 -18 906 -74 l 906 77 l 1022 77 z "},"Ҥ":{"ha":1369,"x_min":122,"x_max":1302,"o":"m 1302 1010 l 1302 902 l 906 902 l 906 0 l 783 0 l 783 452 l 245 452 l 245 0 l 122 0 l 122 1010 l 245 1010 l 245 560 l 783 560 l 783 1010 l 1302 1010 z "},"Ƕ":{"ha":1547,"x_min":122,"x_max":1440,"o":"m 1115 -14 q 875 71 967 -14 q 783 320 783 155 l 783 452 l 245 452 l 245 0 l 122 0 l 122 1010 l 245 1010 l 245 560 l 783 560 l 783 1010 l 906 1010 l 906 320 q 961 152 906 206 q 1115 99 1016 99 q 1266 152 1214 99 q 1318 320 1318 206 l 1318 758 l 1440 758 l 1440 320 q 1399 134 1440 208 q 1284 23 1357 60 q 1115 -14 1210 -14 z "},"Η":{"ha":1028,"x_min":122,"x_max":906,"o":"m 122 0 l 122 1010 l 245 1010 l 245 560 l 783 560 l 783 1010 l 906 1010 l 906 0 l 783 0 l 783 452 l 245 452 l 245 0 l 122 0 z "},"Ή":{"ha":1198,"x_min":99,"x_max":1075,"o":"m 292 0 l 292 1010 l 414 1010 l 414 560 l 953 560 l 953 1010 l 1075 1010 l 1075 0 l 953 0 l 953 452 l 414 452 l 414 0 l 292 0 m 99 842 l 132 1073 l 258 1073 l 180 842 l 99 842 z "},"Ἠ":{"ha":1245,"x_min":99,"x_max":1123,"o":"m 339 0 l 339 1010 l 462 1010 l 462 560 l 1000 560 l 1000 1010 l 1123 1010 l 1123 0 l 1000 0 l 1000 452 l 462 452 l 462 0 l 339 0 m 276 1010 l 276 955 q 152 765 276 832 l 99 807 q 140 874 127 838 q 154 959 154 910 l 154 1010 l 276 1010 z "},"Ἡ":{"ha":1235,"x_min":99,"x_max":1113,"o":"m 329 0 l 329 1010 l 452 1010 l 452 560 l 990 560 l 990 1010 l 1113 1010 l 1113 0 l 990 0 l 990 452 l 452 452 l 452 0 l 329 0 m 99 955 l 99 1010 l 221 1010 l 221 959 q 235 874 221 910 q 276 807 248 838 l 223 765 q 131 847 164 798 q 99 955 99 896 z "},"Ἢ":{"ha":1517,"x_min":99,"x_max":1395,"o":"m 612 0 l 612 1010 l 734 1010 l 734 560 l 1272 560 l 1272 1010 l 1395 1010 l 1395 0 l 1272 0 l 1272 452 l 734 452 l 734 0 l 612 0 m 276 1014 l 276 959 q 244 851 276 900 q 152 769 211 802 l 99 811 q 140 878 125 842 q 154 963 154 914 l 154 1014 l 276 1014 m 527 795 l 527 785 l 464 785 l 308 1000 l 308 1014 l 450 1014 l 527 795 z "},"Ἣ":{"ha":1466,"x_min":99,"x_max":1344,"o":"m 560 0 l 560 1010 l 683 1010 l 683 560 l 1221 560 l 1221 1010 l 1344 1010 l 1344 0 l 1221 0 l 1221 452 l 683 452 l 683 0 l 560 0 m 99 955 l 99 1010 l 221 1010 l 221 959 q 235 874 221 910 q 276 807 248 838 l 223 765 q 131 847 164 798 q 99 955 99 896 m 485 791 l 485 781 l 422 781 l 266 996 l 266 1010 l 410 1010 l 485 791 z "},"Ἤ":{"ha":1456,"x_min":99,"x_max":1334,"o":"m 550 0 l 550 1010 l 673 1010 l 673 560 l 1211 560 l 1211 1010 l 1334 1010 l 1334 0 l 1211 0 l 1211 452 l 673 452 l 673 0 l 550 0 m 276 1010 l 276 955 q 244 847 276 896 q 152 765 211 798 l 99 807 q 140 874 125 838 q 154 959 154 910 l 154 1010 l 276 1010 m 286 781 l 286 791 l 363 1010 l 505 1010 l 505 996 l 349 781 l 286 781 z "},"Ἥ":{"ha":1480,"x_min":99,"x_max":1357,"o":"m 574 0 l 574 1010 l 696 1010 l 696 560 l 1235 560 l 1235 1010 l 1357 1010 l 1357 0 l 1235 0 l 1235 452 l 696 452 l 696 0 l 574 0 m 223 765 q 131 847 164 798 q 99 955 99 896 l 99 1010 l 221 1010 l 221 959 q 235 874 221 910 q 276 807 250 838 l 223 765 m 302 781 l 302 791 l 377 1010 l 521 1010 l 521 996 l 365 781 l 302 781 z "},"Ἦ":{"ha":1377,"x_min":99,"x_max":1255,"o":"m 472 0 l 472 1010 l 594 1010 l 594 560 l 1132 560 l 1132 1010 l 1255 1010 l 1255 0 l 1132 0 l 1132 452 l 594 452 l 594 0 l 472 0 m 416 1170 l 475 1152 q 443 1067 475 1103 q 361 1030 411 1030 q 302 1042 325 1030 q 260 1067 280 1054 q 211 1079 241 1079 q 173 1062 189 1079 q 158 1020 158 1045 l 99 1036 q 130 1123 99 1085 q 211 1162 161 1162 q 265 1149 242 1162 q 310 1124 288 1136 q 361 1111 332 1111 q 400 1128 383 1111 q 416 1170 416 1145 m 351 996 l 351 949 q 330 867 351 910 q 268 793 310 823 l 209 827 q 249 947 249 880 l 249 996 l 351 996 z "},"Ἧ":{"ha":1383,"x_min":99,"x_max":1261,"o":"m 477 0 l 477 1010 l 600 1010 l 600 560 l 1138 560 l 1138 1010 l 1261 1010 l 1261 0 l 1138 0 l 1138 452 l 600 452 l 600 0 l 477 0 m 416 1170 l 475 1152 q 443 1067 475 1103 q 361 1030 411 1030 q 302 1042 325 1030 q 260 1067 280 1054 q 211 1079 241 1079 q 173 1062 189 1079 q 158 1020 158 1045 l 99 1036 q 130 1123 99 1085 q 211 1162 161 1162 q 265 1149 242 1162 q 310 1124 288 1136 q 361 1111 332 1111 q 400 1128 383 1111 q 416 1170 416 1145 m 243 949 l 243 996 l 345 996 l 345 947 q 385 827 345 880 l 324 793 q 262 867 282 823 q 243 949 243 910 z "},"Ὴ":{"ha":1306,"x_min":99,"x_max":1184,"o":"m 400 0 l 400 1010 l 523 1010 l 523 560 l 1061 560 l 1061 1010 l 1184 1010 l 1184 0 l 1061 0 l 1061 452 l 523 452 l 523 0 l 400 0 m 254 779 l 99 996 l 99 1010 l 241 1010 l 318 791 l 318 779 l 254 779 z "},"Ή":{"ha":1267,"x_min":170,"x_max":1144,"o":"m 361 0 l 361 1010 l 483 1010 l 483 560 l 1022 560 l 1022 1010 l 1144 1010 l 1144 0 l 1022 0 l 1022 452 l 483 452 l 483 0 l 361 0 m 170 852 l 170 864 l 245 1083 l 389 1083 l 389 1069 l 233 852 l 170 852 z "},"Н":{"ha":1028,"x_min":122,"x_max":906,"o":"m 122 0 l 122 1010 l 245 1010 l 245 560 l 783 560 l 783 1010 l 906 1010 l 906 0 l 783 0 l 783 452 l 245 452 l 245 0 l 122 0 z "},"ᾘ":{"ha":1196,"x_min":49,"x_max":1073,"o":"m 290 0 l 290 1010 l 412 1010 l 412 560 l 951 560 l 951 1010 l 1073 1010 l 1073 0 l 951 0 l 951 452 l 412 452 l 412 0 l 290 0 m 744 -335 q 661 -306 693 -335 q 629 -209 629 -276 l 629 -59 l 732 -59 l 732 -207 q 741 -249 732 -237 q 765 -260 751 -260 q 782 -259 773 -260 q 795 -258 791 -258 l 795 -327 q 775 -333 788 -330 q 744 -335 763 -335 m 227 1010 l 227 955 q 103 765 227 832 l 49 807 q 91 874 77 838 q 105 959 105 910 l 105 1010 l 227 1010 z "},"ᾙ":{"ha":1235,"x_min":99,"x_max":1113,"o":"m 329 0 l 329 1010 l 452 1010 l 452 560 l 990 560 l 990 1010 l 1113 1010 l 1113 0 l 990 0 l 990 452 l 452 452 l 452 0 l 329 0 m 783 -335 q 701 -306 733 -335 q 669 -209 669 -276 l 669 -59 l 771 -59 l 771 -207 q 781 -249 771 -237 q 805 -260 790 -260 q 821 -259 812 -260 q 835 -258 830 -258 l 835 -327 q 815 -333 827 -330 q 783 -335 802 -335 m 99 955 l 99 1010 l 221 1010 l 221 959 q 235 874 221 910 q 276 807 248 838 l 223 765 q 131 847 164 798 q 99 955 99 896 z "},"ᾚ":{"ha":1517,"x_min":99,"x_max":1395,"o":"m 612 0 l 612 1010 l 734 1010 l 734 560 l 1272 560 l 1272 1010 l 1395 1010 l 1395 0 l 1272 0 l 1272 452 l 734 452 l 734 0 l 612 0 m 1065 -335 q 983 -306 1015 -335 q 951 -209 951 -276 l 951 -59 l 1054 -59 l 1054 -207 q 1063 -249 1054 -237 q 1087 -260 1072 -260 q 1103 -259 1094 -260 q 1117 -258 1112 -258 l 1117 -327 q 1097 -333 1109 -330 q 1065 -335 1085 -335 m 276 1014 l 276 959 q 244 851 276 900 q 152 769 211 802 l 99 811 q 140 878 125 842 q 154 963 154 914 l 154 1014 l 276 1014 m 527 795 l 527 785 l 464 785 l 308 1000 l 308 1014 l 450 1014 l 527 795 z "},"ᾛ":{"ha":1466,"x_min":99,"x_max":1344,"o":"m 560 0 l 560 1010 l 683 1010 l 683 560 l 1221 560 l 1221 1010 l 1344 1010 l 1344 0 l 1221 0 l 1221 452 l 683 452 l 683 0 l 560 0 m 1014 -335 q 932 -306 964 -335 q 900 -209 900 -276 l 900 -59 l 1002 -59 l 1002 -207 q 1012 -249 1002 -237 q 1036 -260 1021 -260 q 1052 -259 1043 -260 q 1065 -258 1061 -258 l 1065 -327 q 1046 -333 1058 -330 q 1014 -335 1033 -335 m 99 955 l 99 1010 l 221 1010 l 221 959 q 235 874 221 910 q 276 807 248 838 l 223 765 q 131 847 164 798 q 99 955 99 896 m 485 791 l 485 781 l 422 781 l 266 996 l 266 1010 l 410 1010 l 485 791 z "},"ᾜ":{"ha":1456,"x_min":99,"x_max":1334,"o":"m 550 0 l 550 1010 l 673 1010 l 673 560 l 1211 560 l 1211 1010 l 1334 1010 l 1334 0 l 1211 0 l 1211 452 l 673 452 l 673 0 l 550 0 m 1004 -335 q 922 -306 954 -335 q 890 -209 890 -276 l 890 -59 l 992 -59 l 992 -207 q 1002 -249 992 -237 q 1026 -260 1011 -260 q 1042 -259 1033 -260 q 1055 -258 1051 -258 l 1055 -327 q 1036 -333 1048 -330 q 1004 -335 1023 -335 m 276 1010 l 276 955 q 244 847 276 896 q 152 765 211 798 l 99 807 q 140 874 125 838 q 154 959 154 910 l 154 1010 l 276 1010 m 286 781 l 286 791 l 363 1010 l 505 1010 l 505 996 l 349 781 l 286 781 z "},"ᾝ":{"ha":1480,"x_min":99,"x_max":1357,"o":"m 574 0 l 574 1010 l 696 1010 l 696 560 l 1235 560 l 1235 1010 l 1357 1010 l 1357 0 l 1235 0 l 1235 452 l 696 452 l 696 0 l 574 0 m 1028 -335 q 945 -306 978 -335 q 913 -209 913 -276 l 913 -59 l 1016 -59 l 1016 -207 q 1025 -249 1016 -237 q 1050 -260 1035 -260 q 1066 -259 1057 -260 q 1079 -258 1075 -258 l 1079 -327 q 1059 -333 1072 -330 q 1028 -335 1047 -335 m 223 765 q 131 847 164 798 q 99 955 99 896 l 99 1010 l 221 1010 l 221 959 q 235 874 221 910 q 276 807 250 838 l 223 765 m 302 781 l 302 791 l 377 1010 l 521 1010 l 521 996 l 365 781 l 302 781 z "},"ᾞ":{"ha":1377,"x_min":99,"x_max":1255,"o":"m 472 0 l 472 1010 l 594 1010 l 594 560 l 1132 560 l 1132 1010 l 1255 1010 l 1255 0 l 1132 0 l 1132 452 l 594 452 l 594 0 l 472 0 m 925 -335 q 843 -306 875 -335 q 811 -209 811 -276 l 811 -59 l 913 -59 l 913 -207 q 923 -249 913 -237 q 947 -260 932 -260 q 963 -259 954 -260 q 977 -258 972 -258 l 977 -327 q 957 -333 969 -330 q 925 -335 945 -335 m 416 1170 l 475 1152 q 443 1067 475 1103 q 361 1030 411 1030 q 302 1042 325 1030 q 260 1067 280 1054 q 211 1079 241 1079 q 173 1062 189 1079 q 158 1020 158 1045 l 99 1036 q 130 1123 99 1085 q 211 1162 161 1162 q 265 1149 242 1162 q 310 1124 288 1136 q 361 1111 332 1111 q 400 1128 383 1111 q 416 1170 416 1145 m 351 996 l 351 949 q 330 867 351 910 q 268 793 310 823 l 209 827 q 249 947 249 880 l 249 996 l 351 996 z "},"ᾟ":{"ha":1383,"x_min":99,"x_max":1261,"o":"m 477 0 l 477 1010 l 600 1010 l 600 560 l 1138 560 l 1138 1010 l 1261 1010 l 1261 0 l 1138 0 l 1138 452 l 600 452 l 600 0 l 477 0 m 931 -335 q 849 -306 881 -335 q 817 -209 817 -276 l 817 -59 l 919 -59 l 919 -207 q 929 -249 919 -237 q 953 -260 938 -260 q 969 -259 960 -260 q 982 -258 978 -258 l 982 -327 q 963 -333 975 -330 q 931 -335 950 -335 m 416 1170 l 475 1152 q 443 1067 475 1103 q 361 1030 411 1030 q 302 1042 325 1030 q 260 1067 280 1054 q 211 1079 241 1079 q 173 1062 189 1079 q 158 1020 158 1045 l 99 1036 q 130 1123 99 1085 q 211 1162 161 1162 q 265 1149 242 1162 q 310 1124 288 1136 q 361 1111 332 1111 q 400 1128 383 1111 q 416 1170 416 1145 m 243 949 l 243 996 l 345 996 l 345 947 q 385 827 345 880 l 324 793 q 262 867 282 823 q 243 949 243 910 z "},"ῌ":{"ha":1028,"x_min":122,"x_max":906,"o":"m 122 0 l 122 1010 l 245 1010 l 245 560 l 783 560 l 783 1010 l 906 1010 l 906 0 l 783 0 l 783 452 l 245 452 l 245 0 l 122 0 m 576 -335 q 494 -306 526 -335 q 462 -209 462 -276 l 462 -59 l 564 -59 l 564 -207 q 574 -249 564 -237 q 598 -260 583 -260 q 614 -259 605 -260 q 627 -258 623 -258 l 627 -327 q 608 -333 620 -330 q 576 -335 595 -335 z "},"I":{"ha":367,"x_min":122,"x_max":245,"o":"m 245 1010 l 245 0 l 122 0 l 122 1010 l 245 1010 z "},"Ï":{"ha":367,"x_min":-37,"x_max":404,"o":"m 245 1010 l 245 0 l 122 0 l 122 1010 l 245 1010 m 41 1136 q -14 1160 10 1136 q -37 1215 -37 1184 q -14 1272 -37 1249 q 41 1294 10 1294 q 98 1272 75 1294 q 120 1215 120 1249 q 98 1160 120 1184 q 41 1136 75 1136 m 326 1136 q 271 1160 294 1136 q 247 1215 247 1184 q 271 1272 247 1249 q 326 1294 294 1294 q 382 1272 360 1294 q 404 1215 404 1249 q 382 1160 404 1184 q 326 1136 360 1136 z "},"Ḯ":{"ha":367,"x_min":-37,"x_max":412,"o":"m 245 1010 l 245 0 l 122 0 l 122 1010 l 245 1010 m 41 1089 q -14 1113 10 1089 q -37 1168 -37 1137 q -14 1224 -37 1202 q 41 1247 10 1247 q 98 1224 75 1247 q 120 1168 120 1202 q 98 1113 120 1137 q 41 1089 75 1089 m 326 1089 q 271 1113 294 1089 q 247 1168 247 1137 q 271 1224 247 1202 q 326 1247 294 1247 q 382 1224 360 1247 q 404 1168 404 1202 q 382 1113 404 1137 q 326 1089 360 1089 m 132 1318 l 276 1468 l 412 1468 l 235 1318 l 132 1318 z "},"Ɨ":{"ha":367,"x_min":-34,"x_max":400,"o":"m 245 1010 l 245 0 l 122 0 l 122 1010 l 245 1010 m -34 475 l -34 566 l 400 566 l 400 475 l -34 475 z "},"Ḭ":{"ha":367,"x_min":-20,"x_max":466,"o":"m 245 1010 l 245 0 l 122 0 l 122 1010 l 245 1010 m 71 -251 l -20 -247 q 23 -123 -20 -171 q 130 -75 67 -75 q 195 -91 168 -75 q 248 -122 221 -107 q 310 -138 274 -138 q 357 -116 338 -138 q 377 -63 377 -94 l 466 -71 q 422 -193 466 -148 q 316 -239 379 -239 q 259 -229 282 -239 q 220 -207 237 -219 q 183 -185 203 -195 q 136 -176 164 -176 q 90 -198 108 -176 q 71 -251 71 -219 z "},"Ì":{"ha":367,"x_min":-20,"x_max":245,"o":"m 245 1010 l 245 0 l 122 0 l 122 1010 l 245 1010 m 134 1113 l -20 1342 l 116 1342 l 237 1113 l 134 1113 z "},"Í":{"ha":367,"x_min":122,"x_max":387,"o":"m 245 1010 l 245 0 l 122 0 l 122 1010 l 245 1010 m 130 1113 l 251 1342 l 387 1342 l 233 1113 l 130 1113 z "},"Î":{"ha":367,"x_min":-30,"x_max":397,"o":"m 245 1010 l 245 0 l 122 0 l 122 1010 l 245 1010 m 286 1101 l 183 1239 l 81 1101 l -30 1101 l -30 1109 l 130 1314 l 237 1314 l 397 1109 l 397 1101 l 286 1101 z "},"Ĩ":{"ha":616,"x_min":65,"x_max":550,"o":"m 369 1010 l 369 0 l 247 0 l 247 1010 l 369 1010 m 156 1101 l 65 1105 q 108 1228 65 1180 q 215 1276 151 1276 q 279 1261 253 1276 q 333 1229 306 1245 q 395 1213 359 1213 q 442 1235 423 1213 q 462 1288 462 1257 l 550 1280 q 507 1158 550 1203 q 400 1113 464 1113 q 344 1122 366 1113 q 305 1144 322 1132 q 268 1166 288 1157 q 221 1176 249 1176 q 174 1154 193 1176 q 156 1101 156 1132 z "},"Ī":{"ha":367,"x_min":-47,"x_max":414,"o":"m 245 1010 l 245 0 l 122 0 l 122 1010 l 245 1010 m 414 1263 l 414 1164 l -47 1164 l -47 1263 l 414 1263 z "},"Ĭ":{"ha":367,"x_min":-20,"x_max":389,"o":"m 245 1010 l 245 0 l 122 0 l 122 1010 l 245 1010 m 280 1263 l 389 1263 q 333 1132 389 1183 q 183 1081 278 1081 q 35 1132 90 1081 q -20 1263 -20 1183 l 89 1263 q 110 1195 89 1224 q 183 1166 132 1166 q 258 1195 235 1166 q 280 1263 280 1224 z "},"Į":{"ha":367,"x_min":12,"x_max":256,"o":"m 245 1010 l 245 0 l 122 0 l 122 1010 l 245 1010 m 152 -296 q 52 -263 91 -296 q 12 -166 12 -229 q 53 -57 12 -111 q 191 41 94 -3 l 245 0 q 165 -69 200 -33 q 130 -150 130 -106 q 141 -185 130 -172 q 182 -197 152 -197 q 221 -191 204 -197 q 249 -180 238 -185 l 256 -266 q 214 -286 240 -277 q 152 -296 187 -296 z "},"İ":{"ha":367,"x_min":101,"x_max":266,"o":"m 245 1010 l 245 0 l 122 0 l 122 1010 l 245 1010 m 183 1136 q 125 1160 149 1136 q 101 1215 101 1183 q 125 1271 101 1248 q 183 1294 149 1294 q 242 1271 218 1294 q 266 1215 266 1248 q 242 1160 266 1183 q 183 1136 218 1136 z "},"Ǐ":{"ha":367,"x_min":-30,"x_max":397,"o":"m 245 1010 l 245 0 l 122 0 l 122 1010 l 245 1010 m 81 1314 l 183 1176 l 286 1314 l 397 1314 l 397 1306 l 237 1101 l 130 1101 l -30 1306 l -30 1314 l 81 1314 z "},"Ȉ":{"ha":367,"x_min":-132,"x_max":341,"o":"m 245 1010 l 245 0 l 122 0 l 122 1010 l 245 1010 m 240 1113 l 119 1342 l 267 1342 l 341 1113 l 240 1113 m 31 1113 l -132 1342 l 13 1342 l 133 1113 l 31 1113 z "},"Ȋ":{"ha":367,"x_min":-22,"x_max":387,"o":"m 245 1010 l 245 0 l 122 0 l 122 1010 l 245 1010 m -22 1136 q 34 1268 -22 1216 q 183 1320 89 1320 q 332 1268 278 1320 q 387 1136 387 1216 l 278 1136 q 256 1206 278 1176 q 183 1235 234 1235 q 109 1205 130 1235 q 87 1136 87 1175 l -22 1136 z "},"Ỉ":{"ha":367,"x_min":122,"x_max":337,"o":"m 245 1010 l 245 0 l 122 0 l 122 1010 l 245 1010 m 235 1113 l 138 1113 l 138 1219 q 211 1234 190 1222 q 233 1269 233 1245 q 202 1308 233 1295 q 126 1320 171 1320 l 130 1395 q 285 1359 232 1395 q 337 1265 337 1324 q 305 1191 337 1214 q 235 1162 273 1168 l 235 1113 z "},"Ị":{"ha":367,"x_min":101,"x_max":266,"o":"m 245 1010 l 245 0 l 122 0 l 122 1010 l 245 1010 m 183 -251 q 125 -227 149 -251 q 101 -172 101 -204 q 125 -116 101 -139 q 183 -93 149 -93 q 242 -116 218 -93 q 266 -172 266 -139 q 242 -227 266 -204 q 183 -251 218 -251 z "},"Ɩ":{"ha":359,"x_min":107,"x_max":359,"o":"m 107 1010 l 223 1010 l 223 197 q 235 120 223 142 q 286 99 248 98 q 317 102 307 100 q 335 107 327 104 l 359 6 q 321 -2 344 1 q 272 -6 297 -6 q 148 39 189 -6 q 107 166 107 85 l 107 1010 z "},"Ι":{"ha":367,"x_min":122,"x_max":245,"o":"m 245 1010 l 245 0 l 122 0 l 122 1010 l 245 1010 z "},"Ί":{"ha":422,"x_min":8,"x_max":300,"o":"m 300 1010 l 300 0 l 178 0 l 178 1010 l 300 1010 m 8 842 l 41 1073 l 168 1073 l 89 842 l 8 842 z "},"Ϊ":{"ha":367,"x_min":-37,"x_max":404,"o":"m 245 1010 l 245 0 l 122 0 l 122 1010 l 245 1010 m 41 1136 q -14 1160 10 1136 q -37 1215 -37 1184 q -14 1272 -37 1249 q 41 1294 10 1294 q 98 1272 75 1294 q 120 1215 120 1249 q 98 1160 120 1184 q 41 1136 75 1136 m 326 1136 q 271 1160 294 1136 q 247 1215 247 1184 q 271 1272 247 1249 q 326 1294 294 1294 q 382 1272 360 1294 q 404 1215 404 1249 q 382 1160 404 1184 q 326 1136 360 1136 z "},"Ἰ":{"ha":560,"x_min":99,"x_max":438,"o":"m 438 1010 l 438 0 l 316 0 l 316 1010 l 438 1010 m 276 1010 l 276 955 q 152 765 276 832 l 99 807 q 140 874 127 838 q 154 959 154 910 l 154 1010 l 276 1010 z "},"Ἱ":{"ha":550,"x_min":99,"x_max":428,"o":"m 428 1010 l 428 0 l 306 0 l 306 1010 l 428 1010 m 99 955 l 99 1010 l 221 1010 l 221 959 q 235 874 221 910 q 276 807 248 838 l 223 765 q 131 847 164 798 q 99 955 99 896 z "},"Ἲ":{"ha":833,"x_min":99,"x_max":710,"o":"m 710 1010 l 710 0 l 588 0 l 588 1010 l 710 1010 m 276 1014 l 276 959 q 244 851 276 900 q 152 769 211 802 l 99 811 q 140 878 125 842 q 154 963 154 914 l 154 1014 l 276 1014 m 527 795 l 527 785 l 464 785 l 308 1000 l 308 1014 l 450 1014 l 527 795 z "},"Ἳ":{"ha":781,"x_min":99,"x_max":659,"o":"m 659 1010 l 659 0 l 537 0 l 537 1010 l 659 1010 m 99 955 l 99 1010 l 221 1010 l 221 959 q 235 874 221 910 q 276 807 248 838 l 223 765 q 131 847 164 798 q 99 955 99 896 m 485 791 l 485 781 l 422 781 l 266 996 l 266 1010 l 410 1010 l 485 791 z "},"Ἴ":{"ha":771,"x_min":99,"x_max":649,"o":"m 649 1010 l 649 0 l 527 0 l 527 1010 l 649 1010 m 276 1010 l 276 955 q 244 847 276 896 q 152 765 211 798 l 99 807 q 140 874 125 838 q 154 959 154 910 l 154 1010 l 276 1010 m 286 781 l 286 791 l 363 1010 l 505 1010 l 505 996 l 349 781 l 286 781 z "},"Ἵ":{"ha":795,"x_min":99,"x_max":673,"o":"m 673 1010 l 673 0 l 550 0 l 550 1010 l 673 1010 m 223 765 q 131 847 164 798 q 99 955 99 896 l 99 1010 l 221 1010 l 221 959 q 235 874 221 910 q 276 807 250 838 l 223 765 m 302 781 l 302 791 l 377 1010 l 521 1010 l 521 996 l 365 781 l 302 781 z "},"Ἶ":{"ha":692,"x_min":99,"x_max":570,"o":"m 570 1010 l 570 0 l 448 0 l 448 1010 l 570 1010 m 416 1170 l 475 1152 q 443 1067 475 1103 q 361 1030 411 1030 q 302 1042 325 1030 q 260 1067 280 1054 q 211 1079 241 1079 q 173 1062 189 1079 q 158 1020 158 1045 l 99 1036 q 130 1123 99 1085 q 211 1162 161 1162 q 265 1149 242 1162 q 310 1124 288 1136 q 361 1111 332 1111 q 400 1128 383 1111 q 416 1170 416 1145 m 351 996 l 351 949 q 330 867 351 910 q 268 793 310 823 l 209 827 q 249 947 249 880 l 249 996 l 351 996 z "},"Ἷ":{"ha":698,"x_min":99,"x_max":576,"o":"m 576 1010 l 576 0 l 454 0 l 454 1010 l 576 1010 m 416 1170 l 475 1152 q 443 1067 475 1103 q 361 1030 411 1030 q 302 1042 325 1030 q 260 1067 280 1054 q 211 1079 241 1079 q 173 1062 189 1079 q 158 1020 158 1045 l 99 1036 q 130 1123 99 1085 q 211 1162 161 1162 q 265 1149 242 1162 q 310 1124 288 1136 q 361 1111 332 1111 q 400 1128 383 1111 q 416 1170 416 1145 m 243 949 l 243 996 l 345 996 l 345 947 q 385 827 345 880 l 324 793 q 262 867 282 823 q 243 949 243 910 z "},"Ῐ":{"ha":367,"x_min":-20,"x_max":389,"o":"m 245 1010 l 245 0 l 122 0 l 122 1010 l 245 1010 m 280 1263 l 389 1263 q 333 1132 389 1183 q 183 1081 278 1081 q 35 1132 90 1081 q -20 1263 -20 1183 l 89 1263 q 110 1195 89 1224 q 183 1166 132 1166 q 258 1195 235 1166 q 280 1263 280 1224 z "},"Ῑ":{"ha":367,"x_min":-47,"x_max":414,"o":"m 245 1010 l 245 0 l 122 0 l 122 1010 l 245 1010 m 414 1263 l 414 1164 l -47 1164 l -47 1263 l 414 1263 z "},"Ὶ":{"ha":621,"x_min":99,"x_max":499,"o":"m 499 1010 l 499 0 l 377 0 l 377 1010 l 499 1010 m 254 779 l 99 996 l 99 1010 l 241 1010 l 318 791 l 318 779 l 254 779 z "},"Ί":{"ha":582,"x_min":170,"x_max":460,"o":"m 460 1010 l 460 0 l 337 0 l 337 1010 l 460 1010 m 170 852 l 170 864 l 245 1083 l 389 1083 l 389 1069 l 233 852 l 170 852 z "},"І":{"ha":367,"x_min":122,"x_max":245,"o":"m 245 1010 l 245 0 l 122 0 l 122 1010 l 245 1010 z "},"Ї":{"ha":367,"x_min":-37,"x_max":404,"o":"m 245 1010 l 245 0 l 122 0 l 122 1010 l 245 1010 m 41 1136 q -14 1160 10 1136 q -37 1215 -37 1184 q -14 1272 -37 1249 q 41 1294 10 1294 q 98 1272 75 1294 q 120 1215 120 1249 q 98 1160 120 1184 q 41 1136 75 1136 m 326 1136 q 271 1160 294 1136 q 247 1215 247 1184 q 271 1272 247 1249 q 326 1294 294 1294 q 382 1272 360 1294 q 404 1215 404 1249 q 382 1160 404 1184 q 326 1136 360 1136 z "},"":{"ha":616,"x_min":67,"x_max":548,"o":"m 67 902 l 67 1010 l 548 1010 l 548 902 l 369 902 l 369 109 l 548 109 l 548 0 l 67 0 l 67 109 l 247 109 l 247 902 l 67 902 z "},"":{"ha":616,"x_min":67,"x_max":548,"o":"m 67 902 l 67 1010 l 548 1010 l 548 902 l 369 902 l 369 109 l 548 109 l 548 0 l 67 0 l 67 109 l 247 109 l 247 902 l 67 902 m 166 1136 q 111 1160 135 1136 q 87 1215 87 1184 q 111 1272 87 1249 q 166 1294 135 1294 q 222 1272 200 1294 q 245 1215 245 1249 q 222 1160 245 1184 q 166 1136 200 1136 m 450 1136 q 395 1160 419 1136 q 371 1215 371 1184 q 395 1272 371 1249 q 450 1294 419 1294 q 506 1272 484 1294 q 529 1215 529 1249 q 506 1160 529 1184 q 450 1136 484 1136 z "},"":{"ha":616,"x_min":67,"x_max":548,"o":"m 67 902 l 67 1010 l 548 1010 l 548 902 l 369 902 l 369 109 l 548 109 l 548 0 l 67 0 l 67 109 l 247 109 l 247 902 l 67 902 m 166 1089 q 111 1113 135 1089 q 87 1168 87 1137 q 111 1224 87 1202 q 166 1247 135 1247 q 222 1224 200 1247 q 245 1168 245 1202 q 222 1113 245 1137 q 166 1089 200 1089 m 450 1089 q 395 1113 419 1089 q 371 1168 371 1137 q 395 1224 371 1202 q 450 1247 419 1247 q 506 1224 484 1247 q 529 1168 529 1202 q 506 1113 529 1137 q 450 1089 484 1089 m 256 1318 l 400 1468 l 537 1468 l 359 1318 l 256 1318 z "},"":{"ha":616,"x_min":67,"x_max":548,"o":"m 67 902 l 67 1010 l 548 1010 l 548 902 l 369 902 l 369 109 l 548 109 l 548 0 l 67 0 l 67 109 l 247 109 l 247 902 l 67 902 m 91 475 l 91 566 l 525 566 l 525 475 l 91 475 z "},"":{"ha":616,"x_min":67,"x_max":590,"o":"m 67 902 l 67 1010 l 548 1010 l 548 902 l 369 902 l 369 109 l 548 109 l 548 0 l 67 0 l 67 109 l 247 109 l 247 902 l 67 902 m 195 -251 l 105 -247 q 148 -123 105 -171 q 254 -75 191 -75 q 319 -91 292 -75 q 372 -122 346 -107 q 434 -138 399 -138 q 482 -116 462 -138 q 501 -63 501 -94 l 590 -71 q 547 -193 590 -148 q 440 -239 504 -239 q 384 -229 406 -239 q 344 -207 362 -219 q 308 -185 327 -195 q 260 -176 289 -176 q 214 -198 232 -176 q 195 -251 195 -219 z "},"":{"ha":616,"x_min":67,"x_max":548,"o":"m 67 902 l 67 1010 l 548 1010 l 548 902 l 369 902 l 369 109 l 548 109 l 548 0 l 67 0 l 67 109 l 247 109 l 247 902 l 67 902 m 258 1113 l 105 1342 l 241 1342 l 361 1113 l 258 1113 z "},"":{"ha":616,"x_min":67,"x_max":548,"o":"m 67 902 l 67 1010 l 548 1010 l 548 902 l 369 902 l 369 109 l 548 109 l 548 0 l 67 0 l 67 109 l 247 109 l 247 902 l 67 902 m 254 1113 l 375 1342 l 511 1342 l 357 1113 l 254 1113 z "},"":{"ha":616,"x_min":67,"x_max":548,"o":"m 67 902 l 67 1010 l 548 1010 l 548 902 l 369 902 l 369 109 l 548 109 l 548 0 l 67 0 l 67 109 l 247 109 l 247 902 l 67 902 m 410 1101 l 308 1239 l 205 1101 l 95 1101 l 95 1109 l 254 1314 l 361 1314 l 521 1109 l 521 1101 l 410 1101 z "},"":{"ha":616,"x_min":65,"x_max":550,"o":"m 67 902 l 67 1010 l 548 1010 l 548 902 l 369 902 l 369 109 l 548 109 l 548 0 l 67 0 l 67 109 l 247 109 l 247 902 l 67 902 m 156 1101 l 65 1105 q 108 1228 65 1180 q 215 1276 151 1276 q 279 1261 253 1276 q 333 1229 306 1245 q 395 1213 359 1213 q 442 1235 423 1213 q 462 1288 462 1257 l 550 1280 q 507 1158 550 1203 q 400 1113 464 1113 q 344 1122 366 1113 q 305 1144 322 1132 q 268 1166 288 1157 q 221 1176 249 1176 q 174 1154 193 1176 q 156 1101 156 1132 z "},"":{"ha":616,"x_min":67,"x_max":548,"o":"m 67 902 l 67 1010 l 548 1010 l 548 902 l 369 902 l 369 109 l 548 109 l 548 0 l 67 0 l 67 109 l 247 109 l 247 902 l 67 902 m 539 1263 l 539 1164 l 77 1164 l 77 1263 l 539 1263 z "},"":{"ha":616,"x_min":67,"x_max":548,"o":"m 67 902 l 67 1010 l 548 1010 l 548 902 l 369 902 l 369 109 l 548 109 l 548 0 l 67 0 l 67 109 l 247 109 l 247 902 l 67 902 m 404 1263 l 513 1263 q 458 1132 513 1183 q 308 1081 402 1081 q 160 1132 215 1081 q 105 1263 105 1183 l 213 1263 q 235 1195 213 1224 q 308 1166 256 1166 q 382 1195 360 1166 q 404 1263 404 1224 z "},"":{"ha":616,"x_min":67,"x_max":560,"o":"m 67 902 l 67 1010 l 548 1010 l 548 902 l 369 902 l 369 109 l 548 109 l 548 0 l 67 0 l 67 109 l 247 109 l 247 902 l 67 902 m 456 -296 q 355 -263 395 -296 q 316 -166 316 -229 q 357 -57 316 -111 q 495 41 398 -3 l 548 0 q 469 -69 504 -33 q 434 -150 434 -106 q 445 -185 434 -172 q 485 -197 456 -197 q 525 -191 508 -197 q 552 -180 542 -185 l 560 -266 q 518 -286 544 -277 q 456 -296 491 -296 z "},"":{"ha":616,"x_min":67,"x_max":548,"o":"m 67 902 l 67 1010 l 548 1010 l 548 902 l 369 902 l 369 109 l 548 109 l 548 0 l 67 0 l 67 109 l 247 109 l 247 902 l 67 902 m 308 1136 q 249 1160 274 1136 q 225 1215 225 1183 q 249 1271 225 1248 q 308 1294 274 1294 q 366 1271 342 1294 q 391 1215 391 1248 q 366 1160 391 1183 q 308 1136 342 1136 z "},"":{"ha":616,"x_min":67,"x_max":548,"o":"m 67 902 l 67 1010 l 548 1010 l 548 902 l 369 902 l 369 109 l 548 109 l 548 0 l 67 0 l 67 109 l 247 109 l 247 902 l 67 902 m 205 1314 l 308 1176 l 410 1314 l 521 1314 l 521 1306 l 361 1101 l 254 1101 l 95 1306 l 95 1314 l 205 1314 z "},"":{"ha":616,"x_min":-8,"x_max":548,"o":"m 67 902 l 67 1010 l 548 1010 l 548 902 l 369 902 l 369 109 l 548 109 l 548 0 l 67 0 l 67 109 l 247 109 l 247 902 l 67 902 m 364 1113 l 244 1342 l 392 1342 l 466 1113 l 364 1113 m 155 1113 l -8 1342 l 137 1342 l 257 1113 l 155 1113 z "},"":{"ha":616,"x_min":67,"x_max":548,"o":"m 67 902 l 67 1010 l 548 1010 l 548 902 l 369 902 l 369 109 l 548 109 l 548 0 l 67 0 l 67 109 l 247 109 l 247 902 l 67 902 m 103 1136 q 158 1268 103 1216 q 308 1320 213 1320 q 457 1268 402 1320 q 511 1136 511 1216 l 402 1136 q 380 1206 402 1176 q 308 1235 358 1235 q 233 1205 254 1235 q 211 1136 211 1175 l 103 1136 z "},"":{"ha":616,"x_min":67,"x_max":548,"o":"m 67 902 l 67 1010 l 548 1010 l 548 902 l 369 902 l 369 109 l 548 109 l 548 0 l 67 0 l 67 109 l 247 109 l 247 902 l 67 902 m 359 1113 l 262 1113 l 262 1219 q 336 1234 314 1222 q 357 1269 357 1245 q 326 1308 357 1295 q 251 1320 295 1320 l 254 1395 q 409 1359 357 1395 q 462 1265 462 1324 q 430 1191 462 1214 q 359 1162 398 1168 l 359 1113 z "},"":{"ha":616,"x_min":67,"x_max":548,"o":"m 67 902 l 67 1010 l 548 1010 l 548 902 l 369 902 l 369 109 l 548 109 l 548 0 l 67 0 l 67 109 l 247 109 l 247 902 l 67 902 m 308 -251 q 249 -227 274 -251 q 225 -172 225 -204 q 249 -116 225 -139 q 308 -93 274 -93 q 366 -116 342 -93 q 391 -172 391 -139 q 366 -227 391 -204 q 308 -251 342 -251 z "},"":{"ha":833,"x_min":67,"x_max":765,"o":"m 284 902 l 284 1010 l 765 1010 l 765 902 l 586 902 l 586 109 l 765 109 l 765 0 l 284 0 l 284 109 l 464 109 l 464 902 l 284 902 m 245 1010 l 245 955 q 120 765 245 832 l 67 807 q 109 874 95 838 q 122 959 122 910 l 122 1010 l 245 1010 z "},"":{"ha":823,"x_min":67,"x_max":756,"o":"m 274 902 l 274 1010 l 756 1010 l 756 902 l 576 902 l 576 109 l 756 109 l 756 0 l 274 0 l 274 109 l 454 109 l 454 902 l 274 902 m 67 955 l 67 1010 l 189 1010 l 189 959 q 203 874 189 910 q 245 807 217 838 l 191 765 q 100 847 132 798 q 67 955 67 896 z "},"":{"ha":1105,"x_min":67,"x_max":1038,"o":"m 556 902 l 556 1010 l 1038 1010 l 1038 902 l 858 902 l 858 109 l 1038 109 l 1038 0 l 556 0 l 556 109 l 736 109 l 736 902 l 556 902 m 245 1014 l 245 959 q 212 851 245 900 q 120 769 180 802 l 67 811 q 108 878 94 842 q 122 963 122 914 l 122 1014 l 245 1014 m 495 795 l 495 785 l 432 785 l 276 1000 l 276 1014 l 418 1014 l 495 795 z "},"":{"ha":1054,"x_min":67,"x_max":986,"o":"m 505 902 l 505 1010 l 986 1010 l 986 902 l 807 902 l 807 109 l 986 109 l 986 0 l 505 0 l 505 109 l 685 109 l 685 902 l 505 902 m 67 955 l 67 1010 l 189 1010 l 189 959 q 203 874 189 910 q 245 807 217 838 l 191 765 q 100 847 132 798 q 67 955 67 896 m 454 791 l 454 781 l 391 781 l 235 996 l 235 1010 l 379 1010 l 454 791 z "},"":{"ha":1044,"x_min":67,"x_max":977,"o":"m 495 902 l 495 1010 l 977 1010 l 977 902 l 797 902 l 797 109 l 977 109 l 977 0 l 495 0 l 495 109 l 675 109 l 675 902 l 495 902 m 245 1010 l 245 955 q 212 847 245 896 q 120 765 180 798 l 67 807 q 108 874 94 838 q 122 959 122 910 l 122 1010 l 245 1010 m 254 781 l 254 791 l 331 1010 l 473 1010 l 473 996 l 318 781 l 254 781 z "},"":{"ha":1067,"x_min":67,"x_max":1000,"o":"m 519 902 l 519 1010 l 1000 1010 l 1000 902 l 821 902 l 821 109 l 1000 109 l 1000 0 l 519 0 l 519 109 l 698 109 l 698 902 l 519 902 m 191 765 q 100 847 132 798 q 67 955 67 896 l 67 1010 l 189 1010 l 189 959 q 204 874 189 910 q 245 807 218 838 l 191 765 m 270 781 l 270 791 l 345 1010 l 489 1010 l 489 996 l 333 781 l 270 781 z "},"":{"ha":965,"x_min":67,"x_max":898,"o":"m 416 902 l 416 1010 l 898 1010 l 898 902 l 718 902 l 718 109 l 898 109 l 898 0 l 416 0 l 416 109 l 596 109 l 596 902 l 416 902 m 385 1170 l 444 1152 q 412 1067 444 1103 q 329 1030 380 1030 q 271 1042 293 1030 q 229 1067 249 1054 q 180 1079 209 1079 q 142 1062 157 1079 q 126 1020 126 1045 l 67 1036 q 98 1123 67 1085 q 180 1162 129 1162 q 233 1149 210 1162 q 278 1124 256 1136 q 329 1111 301 1111 q 368 1128 352 1111 q 385 1170 385 1145 m 320 996 l 320 949 q 299 867 320 910 q 237 793 278 823 l 178 827 q 217 947 217 880 l 217 996 l 320 996 z "},"":{"ha":971,"x_min":67,"x_max":904,"o":"m 422 902 l 422 1010 l 904 1010 l 904 902 l 724 902 l 724 109 l 904 109 l 904 0 l 422 0 l 422 109 l 602 109 l 602 902 l 422 902 m 385 1170 l 444 1152 q 412 1067 444 1103 q 329 1030 380 1030 q 271 1042 293 1030 q 229 1067 249 1054 q 180 1079 209 1079 q 142 1062 157 1079 q 126 1020 126 1045 l 67 1036 q 98 1123 67 1085 q 180 1162 129 1162 q 233 1149 210 1162 q 278 1124 256 1136 q 329 1111 301 1111 q 368 1128 352 1111 q 385 1170 385 1145 m 211 949 l 211 996 l 314 996 l 314 947 q 353 827 314 880 l 292 793 q 231 867 251 823 q 211 949 211 910 z "},"":{"ha":616,"x_min":67,"x_max":548,"o":"m 67 902 l 67 1010 l 548 1010 l 548 902 l 369 902 l 369 109 l 548 109 l 548 0 l 67 0 l 67 109 l 247 109 l 247 902 l 67 902 m 404 1263 l 513 1263 q 458 1132 513 1183 q 308 1081 402 1081 q 160 1132 215 1081 q 105 1263 105 1183 l 213 1263 q 235 1195 213 1224 q 308 1166 256 1166 q 382 1195 360 1166 q 404 1263 404 1224 z "},"":{"ha":616,"x_min":67,"x_max":548,"o":"m 67 902 l 67 1010 l 548 1010 l 548 902 l 369 902 l 369 109 l 548 109 l 548 0 l 67 0 l 67 109 l 247 109 l 247 902 l 67 902 m 539 1263 l 539 1164 l 77 1164 l 77 1263 l 539 1263 z "},"":{"ha":894,"x_min":67,"x_max":827,"o":"m 345 902 l 345 1010 l 827 1010 l 827 902 l 647 902 l 647 109 l 827 109 l 827 0 l 345 0 l 345 109 l 525 109 l 525 902 l 345 902 m 223 779 l 67 996 l 67 1010 l 209 1010 l 286 791 l 286 779 l 223 779 z "},"":{"ha":854,"x_min":138,"x_max":787,"o":"m 306 902 l 306 1010 l 787 1010 l 787 902 l 608 902 l 608 109 l 787 109 l 787 0 l 306 0 l 306 109 l 485 109 l 485 902 l 306 902 m 138 852 l 138 864 l 213 1083 l 357 1083 l 357 1069 l 201 852 l 138 852 z "},"":{"ha":616,"x_min":67,"x_max":548,"o":"m 67 902 l 67 1010 l 548 1010 l 548 902 l 369 902 l 369 109 l 548 109 l 548 0 l 67 0 l 67 109 l 247 109 l 247 902 l 67 902 z "},"":{"ha":616,"x_min":67,"x_max":548,"o":"m 67 902 l 67 1010 l 548 1010 l 548 902 l 369 902 l 369 109 l 548 109 l 548 0 l 67 0 l 67 109 l 247 109 l 247 902 l 67 902 m 166 1136 q 111 1160 135 1136 q 87 1215 87 1184 q 111 1272 87 1249 q 166 1294 135 1294 q 222 1272 200 1294 q 245 1215 245 1249 q 222 1160 245 1184 q 166 1136 200 1136 m 450 1136 q 395 1160 419 1136 q 371 1215 371 1184 q 395 1272 371 1249 q 450 1294 419 1294 q 506 1272 484 1294 q 529 1215 529 1249 q 506 1160 529 1184 q 450 1136 484 1136 z "},"J":{"ha":754,"x_min":57,"x_max":631,"o":"m 509 1010 l 631 1010 l 631 288 q 553 64 631 143 q 343 -14 475 -14 q 196 17 260 -14 q 94 103 131 47 q 57 237 57 159 l 178 237 q 224 134 178 173 q 343 95 271 95 q 466 144 423 95 q 509 288 509 194 l 509 1010 z "},"Ĵ":{"ha":754,"x_min":57,"x_max":783,"o":"m 509 1010 l 631 1010 l 631 288 q 553 64 631 143 q 343 -14 475 -14 q 196 17 260 -14 q 94 103 131 47 q 57 237 57 159 l 178 237 q 224 134 178 173 q 343 95 271 95 q 466 144 423 95 q 509 288 509 194 l 509 1010 m 673 1101 l 570 1239 l 468 1101 l 357 1101 l 357 1109 l 517 1314 l 623 1314 l 783 1109 l 783 1101 l 673 1101 z "},"Ɉ":{"ha":754,"x_min":57,"x_max":787,"o":"m 509 1010 l 631 1010 l 631 288 q 553 64 631 143 q 343 -14 475 -14 q 196 17 260 -14 q 94 103 131 47 q 57 237 57 159 l 178 237 q 224 134 178 173 q 343 95 271 95 q 466 144 423 95 q 509 288 509 194 l 509 1010 m 353 554 l 353 645 l 787 645 l 787 554 l 353 554 z "},"Ϳ":{"ha":754,"x_min":57,"x_max":631,"o":"m 509 1010 l 631 1010 l 631 288 q 553 64 631 143 q 343 -14 475 -14 q 196 17 260 -14 q 94 103 131 47 q 57 237 57 159 l 178 237 q 224 134 178 173 q 343 95 271 95 q 466 144 423 95 q 509 288 509 194 l 509 1010 z "},"Ј":{"ha":754,"x_min":57,"x_max":631,"o":"m 509 1010 l 631 1010 l 631 288 q 553 64 631 143 q 343 -14 475 -14 q 196 17 260 -14 q 94 103 131 47 q 57 237 57 159 l 178 237 q 224 134 178 173 q 343 95 271 95 q 466 144 423 95 q 509 288 509 194 l 509 1010 z "},"K":{"ha":906,"x_min":122,"x_max":870,"o":"m 122 0 l 122 1010 l 245 1010 l 245 509 l 256 509 l 710 1010 l 870 1010 l 446 554 l 870 0 l 722 0 l 371 470 l 245 327 l 245 0 l 122 0 z "},"Ķ":{"ha":906,"x_min":122,"x_max":870,"o":"m 122 0 l 122 1010 l 245 1010 l 245 509 l 256 509 l 710 1010 l 870 1010 l 446 554 l 870 0 l 722 0 l 371 470 l 245 327 l 245 0 l 122 0 m 338 -335 l 394 -80 l 513 -80 l 429 -335 l 338 -335 z "},"Ǩ":{"ha":906,"x_min":122,"x_max":870,"o":"m 122 0 l 122 1010 l 245 1010 l 245 509 l 256 509 l 710 1010 l 870 1010 l 446 554 l 870 0 l 722 0 l 371 470 l 245 327 l 245 0 l 122 0 m 355 1314 l 458 1176 l 560 1314 l 671 1314 l 671 1306 l 511 1101 l 404 1101 l 245 1306 l 245 1314 l 355 1314 z "},"Ḱ":{"ha":906,"x_min":122,"x_max":870,"o":"m 122 0 l 122 1010 l 245 1010 l 245 509 l 256 509 l 710 1010 l 870 1010 l 446 554 l 870 0 l 722 0 l 371 470 l 245 327 l 245 0 l 122 0 m 404 1113 l 525 1342 l 661 1342 l 507 1113 l 404 1113 z "},"Ḳ":{"ha":906,"x_min":122,"x_max":870,"o":"m 122 0 l 122 1010 l 245 1010 l 245 509 l 256 509 l 710 1010 l 870 1010 l 446 554 l 870 0 l 722 0 l 371 470 l 245 327 l 245 0 l 122 0 m 454 -251 q 395 -227 420 -251 q 371 -172 371 -204 q 395 -116 371 -139 q 454 -93 420 -93 q 512 -116 488 -93 q 537 -172 537 -139 q 512 -227 537 -204 q 454 -251 488 -251 z "},"Ḵ":{"ha":906,"x_min":122,"x_max":870,"o":"m 122 0 l 122 1010 l 245 1010 l 245 509 l 256 509 l 710 1010 l 870 1010 l 446 554 l 870 0 l 722 0 l 371 470 l 245 327 l 245 0 l 122 0 m 685 -124 l 685 -223 l 223 -223 l 223 -124 l 685 -124 z "},"Ҡ":{"ha":1036,"x_min":12,"x_max":1000,"o":"m 854 0 l 507 464 l 383 464 l 383 0 l 260 0 l 260 902 l 12 902 l 12 1010 l 383 1010 l 383 572 l 436 572 l 840 1010 l 986 1010 l 578 566 l 1000 0 l 854 0 z "},"Қ":{"ha":955,"x_min":122,"x_max":892,"o":"m 716 0 l 369 464 l 245 464 l 245 0 l 122 0 l 122 1010 l 245 1010 l 245 572 l 298 572 l 702 1010 l 848 1010 l 440 566 l 862 0 l 716 0 m 892 109 l 892 -245 l 775 -245 l 775 109 l 892 109 z "},"Ƙ":{"ha":933,"x_min":122,"x_max":921,"o":"m 122 0 l 122 1010 l 245 1010 l 245 509 l 256 509 l 657 951 q 788 1022 716 1016 q 921 984 861 1027 l 872 894 q 806 910 839 914 q 734 864 772 905 l 446 554 l 870 0 l 722 0 l 371 470 l 245 327 l 245 0 l 122 0 z "},"Κ":{"ha":906,"x_min":122,"x_max":870,"o":"m 122 0 l 122 1010 l 245 1010 l 245 509 l 256 509 l 710 1010 l 870 1010 l 446 554 l 870 0 l 722 0 l 371 470 l 245 327 l 245 0 l 122 0 z "},"L":{"ha":781,"x_min":122,"x_max":714,"o":"m 122 0 l 122 1010 l 245 1010 l 245 109 l 714 109 l 714 0 l 122 0 z "},"Ĺ":{"ha":781,"x_min":122,"x_max":714,"o":"m 122 0 l 122 1010 l 245 1010 l 245 109 l 714 109 l 714 0 l 122 0 m 130 1113 l 251 1342 l 387 1342 l 233 1113 l 130 1113 z "},"Ļ":{"ha":781,"x_min":122,"x_max":714,"o":"m 122 0 l 122 1010 l 245 1010 l 245 109 l 714 109 l 714 0 l 122 0 m 303 -335 l 358 -80 l 477 -80 l 394 -335 l 303 -335 z "},"Ľ":{"ha":781,"x_min":122,"x_max":714,"o":"m 122 0 l 122 1010 l 245 1010 l 245 109 l 714 109 l 714 0 l 122 0 m 416 802 l 416 1057 l 536 1057 l 501 802 l 416 802 z "},"Ḷ":{"ha":781,"x_min":122,"x_max":714,"o":"m 122 0 l 122 1010 l 245 1010 l 245 109 l 714 109 l 714 0 l 122 0 m 418 -251 q 360 -227 384 -251 q 335 -172 335 -204 q 360 -116 335 -139 q 418 -93 384 -93 q 477 -116 452 -93 q 501 -172 501 -139 q 477 -227 501 -204 q 418 -251 452 -251 z "},"Ḹ":{"ha":781,"x_min":-47,"x_max":714,"o":"m 122 0 l 122 1010 l 245 1010 l 245 109 l 714 109 l 714 0 l 122 0 m 418 -251 q 360 -227 384 -251 q 335 -172 335 -204 q 360 -116 335 -139 q 418 -93 384 -93 q 477 -116 452 -93 q 501 -172 501 -139 q 477 -227 501 -204 q 418 -251 452 -251 m 414 1263 l 414 1164 l -47 1164 l -47 1263 l 414 1263 z "},"Ḻ":{"ha":781,"x_min":122,"x_max":714,"o":"m 122 0 l 122 1010 l 245 1010 l 245 109 l 714 109 l 714 0 l 122 0 m 649 -124 l 649 -223 l 187 -223 l 187 -124 l 649 -124 z "},"Ḽ":{"ha":781,"x_min":122,"x_max":714,"o":"m 122 0 l 122 1010 l 245 1010 l 245 109 l 714 109 l 714 0 l 122 0 m 521 -276 l 418 -138 l 316 -276 l 205 -276 l 205 -268 l 365 -63 l 472 -63 l 631 -268 l 631 -276 l 521 -276 z "},"Ł":{"ha":781,"x_min":30,"x_max":714,"o":"m 430 631 l 430 543 l 245 484 l 245 109 l 714 109 l 714 0 l 122 0 l 122 445 l 30 416 l 30 505 l 122 534 l 122 1010 l 245 1010 l 245 573 l 430 631 z "},"Ƚ":{"ha":781,"x_min":-34,"x_max":714,"o":"m 122 0 l 122 1010 l 245 1010 l 245 109 l 714 109 l 714 0 l 122 0 m -34 475 l -34 566 l 400 566 l 400 475 l -34 475 z "},"ǈ":{"ha":1111,"x_min":122,"x_max":1028,"o":"m 122 0 l 122 1010 l 245 1010 l 245 109 l 714 109 l 714 0 l 122 0 m 888 758 l 1004 758 l 1004 -55 q 950 -222 1004 -160 q 787 -284 897 -284 l 763 -284 l 763 -176 l 785 -176 q 863 -144 838 -176 q 888 -55 888 -113 l 888 758 m 945 884 q 887 907 911 884 q 862 963 862 930 q 887 1018 862 995 q 945 1042 911 1042 q 1003 1018 979 1042 q 1028 963 1028 995 q 1003 907 1028 930 q 945 884 979 884 z "},"M":{"ha":1235,"x_min":122,"x_max":1113,"o":"m 122 1010 l 268 1010 l 612 172 l 623 172 l 967 1010 l 1113 1010 l 1113 0 l 998 0 l 998 767 l 988 767 l 673 0 l 562 0 l 247 767 l 237 767 l 237 0 l 122 0 l 122 1010 z "},"Ḿ":{"ha":1235,"x_min":122,"x_max":1113,"o":"m 122 1010 l 268 1010 l 612 172 l 623 172 l 967 1010 l 1113 1010 l 1113 0 l 998 0 l 998 767 l 988 767 l 673 0 l 562 0 l 247 767 l 237 767 l 237 0 l 122 0 l 122 1010 m 564 1113 l 685 1342 l 821 1342 l 667 1113 l 564 1113 z "},"Ṁ":{"ha":1235,"x_min":122,"x_max":1113,"o":"m 122 1010 l 268 1010 l 612 172 l 623 172 l 967 1010 l 1113 1010 l 1113 0 l 998 0 l 998 767 l 988 767 l 673 0 l 562 0 l 247 767 l 237 767 l 237 0 l 122 0 l 122 1010 m 618 1136 q 559 1160 583 1136 q 535 1215 535 1183 q 559 1271 535 1248 q 618 1294 583 1294 q 676 1271 652 1294 q 700 1215 700 1248 q 676 1160 700 1183 q 618 1136 652 1136 z "},"Ṃ":{"ha":1235,"x_min":122,"x_max":1113,"o":"m 122 1010 l 268 1010 l 612 172 l 623 172 l 967 1010 l 1113 1010 l 1113 0 l 998 0 l 998 767 l 988 767 l 673 0 l 562 0 l 247 767 l 237 767 l 237 0 l 122 0 l 122 1010 m 618 -251 q 559 -227 583 -251 q 535 -172 535 -204 q 559 -116 535 -139 q 618 -93 583 -93 q 676 -116 652 -93 q 700 -172 700 -139 q 676 -227 700 -204 q 618 -251 652 -251 z "},"Ӎ":{"ha":1235,"x_min":122,"x_max":1229,"o":"m 122 1010 l 268 1010 l 612 172 l 623 172 l 967 1010 l 1113 1010 l 1113 0 l 998 0 l 998 767 l 988 767 l 673 0 l 562 0 l 247 767 l 237 767 l 237 0 l 122 0 l 122 1010 m 1229 77 l 1229 -16 q 1209 -142 1228 -81 q 1152 -260 1191 -203 l 1054 -241 q 1096 -128 1079 -182 q 1113 -18 1113 -74 l 1113 77 l 1229 77 z "},"Μ":{"ha":1235,"x_min":122,"x_max":1113,"o":"m 122 1010 l 268 1010 l 612 172 l 623 172 l 967 1010 l 1113 1010 l 1113 0 l 998 0 l 998 767 l 988 767 l 673 0 l 562 0 l 247 767 l 237 767 l 237 0 l 122 0 l 122 1010 z "},"Ϻ":{"ha":1235,"x_min":122,"x_max":1113,"o":"m 122 1010 l 268 1010 l 612 172 l 623 172 l 967 1010 l 1113 1010 l 1113 0 l 998 0 l 998 767 l 988 767 l 673 0 l 562 0 l 247 767 l 237 767 l 237 0 l 122 0 l 122 1010 z "},"М":{"ha":1235,"x_min":122,"x_max":1113,"o":"m 122 1010 l 268 1010 l 612 172 l 623 172 l 967 1010 l 1113 1010 l 1113 0 l 998 0 l 998 767 l 988 767 l 673 0 l 562 0 l 247 767 l 237 767 l 237 0 l 122 0 l 122 1010 z "},"N":{"ha":1046,"x_min":122,"x_max":923,"o":"m 923 1010 l 923 0 l 805 0 l 254 793 l 245 793 l 245 0 l 122 0 l 122 1010 l 241 1010 l 793 215 l 803 215 l 803 1010 l 923 1010 z "},"Ñ":{"ha":1046,"x_min":122,"x_max":923,"o":"m 923 1010 l 923 0 l 805 0 l 254 793 l 245 793 l 245 0 l 122 0 l 122 1010 l 241 1010 l 793 215 l 803 215 l 803 1010 l 923 1010 m 371 1101 l 280 1105 q 323 1228 280 1180 q 430 1276 366 1276 q 494 1261 468 1276 q 548 1229 521 1245 q 610 1213 574 1213 q 657 1235 638 1213 q 677 1288 677 1257 l 765 1280 q 722 1158 765 1203 q 616 1113 679 1113 q 559 1122 581 1113 q 520 1144 537 1132 q 483 1166 503 1157 q 436 1176 464 1176 q 389 1154 408 1176 q 371 1101 371 1132 z "},"Ń":{"ha":1046,"x_min":122,"x_max":923,"o":"m 923 1010 l 923 0 l 805 0 l 254 793 l 245 793 l 245 0 l 122 0 l 122 1010 l 241 1010 l 793 215 l 803 215 l 803 1010 l 923 1010 m 470 1113 l 590 1342 l 726 1342 l 572 1113 l 470 1113 z "},"Ņ":{"ha":1046,"x_min":122,"x_max":923,"o":"m 923 1010 l 923 0 l 805 0 l 254 793 l 245 793 l 245 0 l 122 0 l 122 1010 l 241 1010 l 793 215 l 803 215 l 803 1010 l 923 1010 m 407 -335 l 463 -80 l 582 -80 l 498 -335 l 407 -335 z "},"Ň":{"ha":1046,"x_min":122,"x_max":923,"o":"m 923 1010 l 923 0 l 805 0 l 254 793 l 245 793 l 245 0 l 122 0 l 122 1010 l 241 1010 l 793 215 l 803 215 l 803 1010 l 923 1010 m 420 1314 l 523 1176 l 625 1314 l 736 1314 l 736 1306 l 576 1101 l 470 1101 l 310 1306 l 310 1314 l 420 1314 z "},"Ǹ":{"ha":1046,"x_min":122,"x_max":923,"o":"m 923 1010 l 923 0 l 805 0 l 254 793 l 245 793 l 245 0 l 122 0 l 122 1010 l 241 1010 l 793 215 l 803 215 l 803 1010 l 923 1010 m 473 1113 l 320 1342 l 456 1342 l 576 1113 l 473 1113 z "},"Ṅ":{"ha":1046,"x_min":122,"x_max":923,"o":"m 923 1010 l 923 0 l 805 0 l 254 793 l 245 793 l 245 0 l 122 0 l 122 1010 l 241 1010 l 793 215 l 803 215 l 803 1010 l 923 1010 m 523 1136 q 464 1160 489 1136 q 440 1215 440 1183 q 464 1271 440 1248 q 523 1294 489 1294 q 581 1271 557 1294 q 606 1215 606 1248 q 581 1160 606 1183 q 523 1136 557 1136 z "},"Ṇ":{"ha":1046,"x_min":122,"x_max":923,"o":"m 923 1010 l 923 0 l 805 0 l 254 793 l 245 793 l 245 0 l 122 0 l 122 1010 l 241 1010 l 793 215 l 803 215 l 803 1010 l 923 1010 m 523 -251 q 464 -227 489 -251 q 440 -172 440 -204 q 464 -116 440 -139 q 523 -93 489 -93 q 581 -116 557 -93 q 606 -172 606 -139 q 581 -227 606 -204 q 523 -251 557 -251 z "},"Ṉ":{"ha":1046,"x_min":122,"x_max":923,"o":"m 923 1010 l 923 0 l 805 0 l 254 793 l 245 793 l 245 0 l 122 0 l 122 1010 l 241 1010 l 793 215 l 803 215 l 803 1010 l 923 1010 m 754 -124 l 754 -223 l 292 -223 l 292 -124 l 754 -124 z "},"Ṋ":{"ha":1046,"x_min":122,"x_max":923,"o":"m 923 1010 l 923 0 l 805 0 l 254 793 l 245 793 l 245 0 l 122 0 l 122 1010 l 241 1010 l 793 215 l 803 215 l 803 1010 l 923 1010 m 625 -276 l 523 -138 l 420 -276 l 310 -276 l 310 -268 l 470 -63 l 576 -63 l 736 -268 l 736 -276 l 625 -276 z "},"Ɲ":{"ha":1052,"x_min":-18,"x_max":929,"o":"m 929 1010 l 929 0 l 811 0 l 260 793 l 251 793 l 251 -81 q 191 -231 251 -179 q 49 -284 132 -284 q 14 -283 32 -284 q -18 -278 -4 -283 l -18 -178 q 0 -180 -10 -179 q 20 -182 9 -182 q 98 -160 67 -182 q 128 -79 128 -138 l 128 1010 l 247 1010 l 799 215 l 809 215 l 809 1010 l 929 1010 z "},"Ŋ":{"ha":1046,"x_min":122,"x_max":923,"o":"m 805 0 l 254 793 l 245 793 l 245 0 l 122 0 l 122 1010 l 241 1010 l 793 215 l 803 215 l 803 1010 l 923 1010 l 923 -81 q 864 -231 923 -179 q 722 -284 805 -284 q 686 -283 704 -284 q 655 -278 668 -283 l 655 -178 q 672 -180 662 -179 q 692 -182 682 -182 q 772 -160 740 -182 q 805 -79 805 -138 l 805 0 z "},"И":{"ha":1046,"x_min":122,"x_max":923,"o":"m 122 1010 l 243 1010 l 243 215 l 253 215 l 805 1010 l 923 1010 l 923 0 l 801 0 l 801 793 l 791 793 l 241 0 l 122 0 l 122 1010 z "},"Ѝ":{"ha":1046,"x_min":122,"x_max":923,"o":"m 122 1010 l 243 1010 l 243 215 l 253 215 l 805 1010 l 923 1010 l 923 0 l 801 0 l 801 793 l 791 793 l 241 0 l 122 0 l 122 1010 m 473 1113 l 320 1342 l 456 1342 l 576 1113 l 473 1113 z "},"Й":{"ha":1046,"x_min":122,"x_max":923,"o":"m 122 1010 l 243 1010 l 243 215 l 253 215 l 805 1010 l 923 1010 l 923 0 l 801 0 l 801 793 l 791 793 l 241 0 l 122 0 l 122 1010 m 619 1263 l 728 1263 q 673 1132 728 1183 q 523 1081 618 1081 q 375 1132 430 1081 q 320 1263 320 1183 l 428 1263 q 450 1195 428 1224 q 523 1166 471 1166 q 597 1195 575 1166 q 619 1263 619 1224 z "},"Ӣ":{"ha":1046,"x_min":122,"x_max":923,"o":"m 122 1010 l 243 1010 l 243 215 l 253 215 l 805 1010 l 923 1010 l 923 0 l 801 0 l 801 793 l 791 793 l 241 0 l 122 0 l 122 1010 m 754 1263 l 754 1164 l 292 1164 l 292 1263 l 754 1263 z "},"Ӥ":{"ha":1046,"x_min":122,"x_max":923,"o":"m 122 1010 l 243 1010 l 243 215 l 253 215 l 805 1010 l 923 1010 l 923 0 l 801 0 l 801 793 l 791 793 l 241 0 l 122 0 l 122 1010 m 381 1136 q 326 1160 350 1136 q 302 1215 302 1184 q 326 1272 302 1249 q 381 1294 350 1294 q 437 1272 415 1294 q 460 1215 460 1249 q 437 1160 460 1184 q 381 1136 415 1136 m 665 1136 q 610 1160 634 1136 q 586 1215 586 1184 q 610 1272 586 1249 q 665 1294 634 1294 q 721 1272 699 1294 q 744 1215 744 1249 q 721 1160 744 1184 q 665 1136 699 1136 z "},"Ҋ":{"ha":1046,"x_min":122,"x_max":1040,"o":"m 122 1010 l 243 1010 l 243 215 l 253 215 l 805 1010 l 923 1010 l 923 0 l 801 0 l 801 793 l 791 793 l 241 0 l 122 0 l 122 1010 m 619 1263 l 728 1263 q 673 1132 728 1183 q 523 1081 618 1081 q 375 1132 430 1081 q 320 1263 320 1183 l 428 1263 q 450 1195 428 1224 q 523 1166 471 1166 q 597 1195 575 1166 q 619 1263 619 1224 m 1040 77 l 1040 -16 q 1020 -142 1038 -81 q 963 -260 1001 -203 l 864 -241 q 906 -128 889 -182 q 923 -18 923 -74 l 923 77 l 1040 77 z "},"Ͷ":{"ha":1046,"x_min":122,"x_max":923,"o":"m 122 1010 l 243 1010 l 243 215 l 253 215 l 805 1010 l 923 1010 l 923 0 l 801 0 l 801 793 l 791 793 l 241 0 l 122 0 l 122 1010 z "},"Ν":{"ha":1046,"x_min":122,"x_max":923,"o":"m 923 1010 l 923 0 l 805 0 l 254 793 l 245 793 l 245 0 l 122 0 l 122 1010 l 241 1010 l 793 215 l 803 215 l 803 1010 l 923 1010 z "},"ǋ":{"ha":1355,"x_min":122,"x_max":1272,"o":"m 923 1010 l 923 0 l 805 0 l 254 793 l 245 793 l 245 0 l 122 0 l 122 1010 l 241 1010 l 793 215 l 803 215 l 803 1010 l 923 1010 m 1132 758 l 1249 758 l 1249 -55 q 1195 -222 1249 -160 q 1032 -284 1141 -284 l 1008 -284 l 1008 -176 l 1030 -176 q 1108 -144 1083 -176 q 1132 -55 1132 -113 l 1132 758 m 1190 884 q 1131 907 1156 884 q 1107 963 1107 930 q 1131 1018 1107 995 q 1190 1042 1156 1042 q 1248 1018 1224 1042 q 1272 963 1272 995 q 1248 907 1272 930 q 1190 884 1224 884 z "},"O":{"ha":1057,"x_min":83,"x_max":975,"o":"m 975 505 q 917 229 975 345 q 759 49 859 112 q 529 -14 658 -14 q 299 49 400 -14 q 141 229 198 112 q 83 505 83 345 q 141 781 83 665 q 299 961 198 898 q 529 1024 400 1024 q 759 961 658 1024 q 917 781 859 898 q 975 505 975 665 m 856 505 q 813 727 856 636 q 695 863 769 817 q 529 909 620 909 q 363 863 437 909 q 245 727 289 817 q 201 505 201 636 q 245 284 201 374 q 363 147 289 193 q 529 101 437 101 q 695 147 620 101 q 813 284 769 193 q 856 505 856 374 z "},"Ö":{"ha":1057,"x_min":83,"x_max":975,"o":"m 975 505 q 917 229 975 345 q 759 49 859 112 q 529 -14 658 -14 q 299 49 400 -14 q 141 229 198 112 q 83 505 83 345 q 141 781 83 665 q 299 961 198 898 q 529 1024 400 1024 q 759 961 658 1024 q 917 781 859 898 q 975 505 975 665 m 856 505 q 813 727 856 636 q 695 863 769 817 q 529 909 620 909 q 363 863 437 909 q 245 727 289 817 q 201 505 201 636 q 245 284 201 374 q 363 147 289 193 q 529 101 437 101 q 695 147 620 101 q 813 284 769 193 q 856 505 856 374 m 387 1136 q 332 1160 356 1136 q 308 1215 308 1184 q 332 1272 308 1249 q 387 1294 356 1294 q 443 1272 421 1294 q 466 1215 466 1249 q 443 1160 466 1184 q 387 1136 421 1136 m 671 1136 q 616 1160 640 1136 q 592 1215 592 1184 q 616 1272 592 1249 q 671 1294 640 1294 q 727 1272 705 1294 q 750 1215 750 1249 q 727 1160 750 1184 q 671 1136 705 1136 z "},"Õ":{"ha":1057,"x_min":83,"x_max":975,"o":"m 975 505 q 917 229 975 345 q 759 49 859 112 q 529 -14 658 -14 q 299 49 400 -14 q 141 229 198 112 q 83 505 83 345 q 141 781 83 665 q 299 961 198 898 q 529 1024 400 1024 q 759 961 658 1024 q 917 781 859 898 q 975 505 975 665 m 856 505 q 813 727 856 636 q 695 863 769 817 q 529 909 620 909 q 363 863 437 909 q 245 727 289 817 q 201 505 201 636 q 245 284 201 374 q 363 147 289 193 q 529 101 437 101 q 695 147 620 101 q 813 284 769 193 q 856 505 856 374 m 377 1111 l 286 1115 q 329 1238 286 1190 q 436 1286 372 1286 q 500 1271 473 1286 q 554 1239 527 1255 q 616 1223 580 1223 q 663 1245 644 1223 q 683 1298 683 1267 l 771 1290 q 728 1168 771 1213 q 621 1123 685 1123 q 565 1132 587 1123 q 526 1154 543 1142 q 489 1176 509 1166 q 442 1186 470 1186 q 395 1164 414 1186 q 377 1111 377 1142 z "},"Ø":{"ha":1057,"x_min":83,"x_max":975,"o":"m 213 -41 l 138 10 l 213 121 q 117 286 152 188 q 83 505 83 383 q 141 781 83 665 q 299 961 198 898 q 529 1024 400 1024 q 774 951 668 1024 l 840 1050 l 915 998 l 843 891 q 940 726 905 823 q 975 505 975 628 q 917 229 975 345 q 759 49 859 112 q 529 -14 658 -14 q 282 61 389 -14 l 213 -41 m 856 505 q 835 667 856 596 q 774 790 813 739 l 347 157 q 529 101 426 101 q 695 147 620 101 q 813 284 769 193 q 856 505 856 374 m 282 222 l 708 854 q 529 909 631 909 q 363 863 437 909 q 245 727 289 817 q 201 505 201 636 q 223 344 201 415 q 282 222 244 273 z "},"Ơ":{"ha":1075,"x_min":83,"x_max":1055,"o":"m 939 1083 l 1055 1083 q 1016 912 1055 980 q 896 820 976 845 q 954 678 934 757 q 975 505 975 599 q 917 229 975 345 q 759 49 859 112 q 529 -14 658 -14 q 299 49 400 -14 q 141 229 198 112 q 83 505 83 345 q 141 781 83 665 q 299 961 198 898 q 529 1024 400 1024 q 694 993 618 1024 q 829 905 771 963 q 912 963 886 916 q 939 1083 939 1009 m 856 505 q 813 727 856 636 q 695 863 769 817 q 529 909 620 909 q 363 863 437 909 q 245 727 289 817 q 201 505 201 636 q 245 284 201 374 q 363 147 289 193 q 529 101 437 101 q 695 147 620 101 q 813 284 769 193 q 856 505 856 374 z "},"Ò":{"ha":1057,"x_min":83,"x_max":975,"o":"m 975 505 q 917 229 975 345 q 759 49 859 112 q 529 -14 658 -14 q 299 49 400 -14 q 141 229 198 112 q 83 505 83 345 q 141 781 83 665 q 299 961 198 898 q 529 1024 400 1024 q 759 961 658 1024 q 917 781 859 898 q 975 505 975 665 m 856 505 q 813 727 856 636 q 695 863 769 817 q 529 909 620 909 q 363 863 437 909 q 245 727 289 817 q 201 505 201 636 q 245 284 201 374 q 363 147 289 193 q 529 101 437 101 q 695 147 620 101 q 813 284 769 193 q 856 505 856 374 m 479 1113 l 326 1342 l 462 1342 l 582 1113 l 479 1113 z "},"Ó":{"ha":1057,"x_min":83,"x_max":975,"o":"m 975 505 q 917 229 975 345 q 759 49 859 112 q 529 -14 658 -14 q 299 49 400 -14 q 141 229 198 112 q 83 505 83 345 q 141 781 83 665 q 299 961 198 898 q 529 1024 400 1024 q 759 961 658 1024 q 917 781 859 898 q 975 505 975 665 m 856 505 q 813 727 856 636 q 695 863 769 817 q 529 909 620 909 q 363 863 437 909 q 245 727 289 817 q 201 505 201 636 q 245 284 201 374 q 363 147 289 193 q 529 101 437 101 q 695 147 620 101 q 813 284 769 193 q 856 505 856 374 m 475 1113 l 596 1342 l 732 1342 l 578 1113 l 475 1113 z "},"Ô":{"ha":1057,"x_min":83,"x_max":975,"o":"m 975 505 q 917 229 975 345 q 759 49 859 112 q 529 -14 658 -14 q 299 49 400 -14 q 141 229 198 112 q 83 505 83 345 q 141 781 83 665 q 299 961 198 898 q 529 1024 400 1024 q 759 961 658 1024 q 917 781 859 898 q 975 505 975 665 m 856 505 q 813 727 856 636 q 695 863 769 817 q 529 909 620 909 q 363 863 437 909 q 245 727 289 817 q 201 505 201 636 q 245 284 201 374 q 363 147 289 193 q 529 101 437 101 q 695 147 620 101 q 813 284 769 193 q 856 505 856 374 m 631 1101 l 529 1239 l 426 1101 l 316 1101 l 316 1109 l 475 1314 l 582 1314 l 742 1109 l 742 1101 l 631 1101 z "},"Ō":{"ha":1057,"x_min":83,"x_max":975,"o":"m 975 505 q 917 229 975 345 q 759 49 859 112 q 529 -14 658 -14 q 299 49 400 -14 q 141 229 198 112 q 83 505 83 345 q 141 781 83 665 q 299 961 198 898 q 529 1024 400 1024 q 759 961 658 1024 q 917 781 859 898 q 975 505 975 665 m 856 505 q 813 727 856 636 q 695 863 769 817 q 529 909 620 909 q 363 863 437 909 q 245 727 289 817 q 201 505 201 636 q 245 284 201 374 q 363 147 289 193 q 529 101 437 101 q 695 147 620 101 q 813 284 769 193 q 856 505 856 374 m 760 1263 l 760 1164 l 298 1164 l 298 1263 l 760 1263 z "},"Ŏ":{"ha":1057,"x_min":83,"x_max":975,"o":"m 975 505 q 917 229 975 345 q 759 49 859 112 q 529 -14 658 -14 q 299 49 400 -14 q 141 229 198 112 q 83 505 83 345 q 141 781 83 665 q 299 961 198 898 q 529 1024 400 1024 q 759 961 658 1024 q 917 781 859 898 q 975 505 975 665 m 856 505 q 813 727 856 636 q 695 863 769 817 q 529 909 620 909 q 363 863 437 909 q 245 727 289 817 q 201 505 201 636 q 245 284 201 374 q 363 147 289 193 q 529 101 437 101 q 695 147 620 101 q 813 284 769 193 q 856 505 856 374 m 625 1263 l 734 1263 q 679 1132 734 1183 q 529 1081 623 1081 q 381 1132 436 1081 q 326 1263 326 1183 l 434 1263 q 455 1195 434 1224 q 529 1166 477 1166 q 603 1195 581 1166 q 625 1263 625 1224 z "},"Ő":{"ha":1057,"x_min":83,"x_max":975,"o":"m 975 505 q 917 229 975 345 q 759 49 859 112 q 529 -14 658 -14 q 299 49 400 -14 q 141 229 198 112 q 83 505 83 345 q 141 781 83 665 q 299 961 198 898 q 529 1024 400 1024 q 759 961 658 1024 q 917 781 859 898 q 975 505 975 665 m 856 505 q 813 727 856 636 q 695 863 769 817 q 529 909 620 909 q 363 863 437 909 q 245 727 289 817 q 201 505 201 636 q 245 284 201 374 q 363 147 289 193 q 529 101 437 101 q 695 147 620 101 q 813 284 769 193 q 856 505 856 374 m 558 1093 l 710 1302 l 840 1302 l 661 1093 l 558 1093 m 355 1093 l 466 1302 l 594 1302 l 448 1093 l 355 1093 z "},"Ǒ":{"ha":1057,"x_min":83,"x_max":975,"o":"m 975 505 q 917 229 975 345 q 759 49 859 112 q 529 -14 658 -14 q 299 49 400 -14 q 141 229 198 112 q 83 505 83 345 q 141 781 83 665 q 299 961 198 898 q 529 1024 400 1024 q 759 961 658 1024 q 917 781 859 898 q 975 505 975 665 m 856 505 q 813 727 856 636 q 695 863 769 817 q 529 909 620 909 q 363 863 437 909 q 245 727 289 817 q 201 505 201 636 q 245 284 201 374 q 363 147 289 193 q 529 101 437 101 q 695 147 620 101 q 813 284 769 193 q 856 505 856 374 m 426 1314 l 529 1176 l 631 1314 l 742 1314 l 742 1306 l 582 1101 l 475 1101 l 316 1306 l 316 1314 l 426 1314 z "},"Ǫ":{"ha":1057,"x_min":83,"x_max":975,"o":"m 975 505 q 930 259 975 366 q 808 85 886 153 q 625 -4 729 18 l 625 -4 q 546 -73 581 -36 q 511 -154 511 -109 q 522 -189 511 -176 q 562 -201 533 -201 q 602 -195 584 -201 q 629 -183 619 -189 l 637 -270 q 595 -290 621 -281 q 533 -300 568 -300 q 432 -267 472 -300 q 393 -170 393 -233 q 414 -89 393 -129 q 486 -12 436 -49 q 277 64 368 -1 q 134 242 186 130 q 83 505 83 354 q 141 781 83 665 q 299 961 198 898 q 529 1024 400 1024 q 759 961 658 1024 q 917 781 859 898 q 975 505 975 665 m 856 505 q 813 727 856 636 q 695 863 769 817 q 529 909 620 909 q 363 863 437 909 q 245 727 289 817 q 201 505 201 636 q 245 284 201 374 q 363 147 289 193 q 529 101 437 101 q 695 147 620 101 q 813 284 769 193 q 856 505 856 374 z "},"Ǭ":{"ha":1057,"x_min":83,"x_max":975,"o":"m 975 505 q 930 259 975 366 q 808 85 886 153 q 625 -4 729 18 l 625 -4 q 546 -73 581 -36 q 511 -154 511 -109 q 522 -189 511 -176 q 562 -201 533 -201 q 602 -195 584 -201 q 629 -183 619 -189 l 637 -270 q 595 -290 621 -281 q 533 -300 568 -300 q 432 -267 472 -300 q 393 -170 393 -233 q 414 -89 393 -129 q 486 -12 436 -49 q 277 64 368 -1 q 134 242 186 130 q 83 505 83 354 q 141 781 83 665 q 299 961 198 898 q 529 1024 400 1024 q 759 961 658 1024 q 917 781 859 898 q 975 505 975 665 m 856 505 q 813 727 856 636 q 695 863 769 817 q 529 909 620 909 q 363 863 437 909 q 245 727 289 817 q 201 505 201 636 q 245 284 201 374 q 363 147 289 193 q 529 101 437 101 q 695 147 620 101 q 813 284 769 193 q 856 505 856 374 m 760 1263 l 760 1164 l 298 1164 l 298 1263 l 760 1263 z "},"Ȍ":{"ha":1057,"x_min":83,"x_max":975,"o":"m 975 505 q 917 229 975 345 q 759 49 859 112 q 529 -14 658 -14 q 299 49 400 -14 q 141 229 198 112 q 83 505 83 345 q 141 781 83 665 q 299 961 198 898 q 529 1024 400 1024 q 759 961 658 1024 q 917 781 859 898 q 975 505 975 665 m 856 505 q 813 727 856 636 q 695 863 769 817 q 529 909 620 909 q 363 863 437 909 q 245 727 289 817 q 201 505 201 636 q 245 284 201 374 q 363 147 289 193 q 529 101 437 101 q 695 147 620 101 q 813 284 769 193 q 856 505 856 374 m 585 1113 l 465 1342 l 613 1342 l 687 1113 l 585 1113 m 376 1113 l 213 1342 l 358 1342 l 478 1113 l 376 1113 z "},"Ȏ":{"ha":1057,"x_min":83,"x_max":975,"o":"m 975 505 q 917 229 975 345 q 759 49 859 112 q 529 -14 658 -14 q 299 49 400 -14 q 141 229 198 112 q 83 505 83 345 q 141 781 83 665 q 299 961 198 898 q 529 1024 400 1024 q 759 961 658 1024 q 917 781 859 898 q 975 505 975 665 m 856 505 q 813 727 856 636 q 695 863 769 817 q 529 909 620 909 q 363 863 437 909 q 245 727 289 817 q 201 505 201 636 q 245 284 201 374 q 363 147 289 193 q 529 101 437 101 q 695 147 620 101 q 813 284 769 193 q 856 505 856 374 m 324 1136 q 379 1268 324 1216 q 529 1320 434 1320 q 678 1268 623 1320 q 732 1136 732 1216 l 623 1136 q 601 1206 623 1176 q 529 1235 579 1235 q 454 1205 475 1235 q 432 1136 432 1175 l 324 1136 z "},"Ȫ":{"ha":1057,"x_min":83,"x_max":975,"o":"m 975 505 q 917 229 975 345 q 759 49 859 112 q 529 -14 658 -14 q 299 49 400 -14 q 141 229 198 112 q 83 505 83 345 q 141 781 83 665 q 299 961 198 898 q 529 1024 400 1024 q 759 961 658 1024 q 917 781 859 898 q 975 505 975 665 m 856 505 q 813 727 856 636 q 695 863 769 817 q 529 909 620 909 q 363 863 437 909 q 245 727 289 817 q 201 505 201 636 q 245 284 201 374 q 363 147 289 193 q 529 101 437 101 q 695 147 620 101 q 813 284 769 193 q 856 505 856 374 m 760 1515 l 760 1417 l 298 1417 l 298 1515 l 760 1515 m 387 1136 q 332 1160 356 1136 q 308 1215 308 1184 q 332 1272 308 1249 q 387 1294 356 1294 q 443 1272 421 1294 q 466 1215 466 1249 q 443 1160 466 1184 q 387 1136 421 1136 m 671 1136 q 616 1160 640 1136 q 592 1215 592 1184 q 616 1272 592 1249 q 671 1294 640 1294 q 727 1272 705 1294 q 750 1215 750 1249 q 727 1160 750 1184 q 671 1136 705 1136 z "},"Ȭ":{"ha":1057,"x_min":83,"x_max":975,"o":"m 975 505 q 917 229 975 345 q 759 49 859 112 q 529 -14 658 -14 q 299 49 400 -14 q 141 229 198 112 q 83 505 83 345 q 141 781 83 665 q 299 961 198 898 q 529 1024 400 1024 q 759 961 658 1024 q 917 781 859 898 q 975 505 975 665 m 856 505 q 813 727 856 636 q 695 863 769 817 q 529 909 620 909 q 363 863 437 909 q 245 727 289 817 q 201 505 201 636 q 245 284 201 374 q 363 147 289 193 q 529 101 437 101 q 695 147 620 101 q 813 284 769 193 q 856 505 856 374 m 762 1424 l 762 1322 l 298 1322 l 298 1424 l 762 1424 m 659 1253 l 718 1237 q 686 1150 718 1187 q 604 1113 654 1113 q 545 1126 567 1113 q 503 1151 523 1138 q 454 1164 483 1164 q 416 1145 432 1164 q 400 1103 400 1126 l 341 1119 q 373 1206 341 1167 q 454 1245 405 1245 q 507 1233 484 1245 q 553 1208 530 1220 q 604 1196 575 1196 q 642 1212 626 1196 q 659 1253 659 1228 z "},"Ȯ":{"ha":1057,"x_min":83,"x_max":975,"o":"m 975 505 q 917 229 975 345 q 759 49 859 112 q 529 -14 658 -14 q 299 49 400 -14 q 141 229 198 112 q 83 505 83 345 q 141 781 83 665 q 299 961 198 898 q 529 1024 400 1024 q 759 961 658 1024 q 917 781 859 898 q 975 505 975 665 m 856 505 q 813 727 856 636 q 695 863 769 817 q 529 909 620 909 q 363 863 437 909 q 245 727 289 817 q 201 505 201 636 q 245 284 201 374 q 363 147 289 193 q 529 101 437 101 q 695 147 620 101 q 813 284 769 193 q 856 505 856 374 m 529 1136 q 470 1160 495 1136 q 446 1215 446 1183 q 470 1271 446 1248 q 529 1294 495 1294 q 587 1271 563 1294 q 612 1215 612 1248 q 587 1160 612 1183 q 529 1136 563 1136 z "},"Ȱ":{"ha":1057,"x_min":83,"x_max":975,"o":"m 975 505 q 917 229 975 345 q 759 49 859 112 q 529 -14 658 -14 q 299 49 400 -14 q 141 229 198 112 q 83 505 83 345 q 141 781 83 665 q 299 961 198 898 q 529 1024 400 1024 q 759 961 658 1024 q 917 781 859 898 q 975 505 975 665 m 856 505 q 813 727 856 636 q 695 863 769 817 q 529 909 620 909 q 363 863 437 909 q 245 727 289 817 q 201 505 201 636 q 245 284 201 374 q 363 147 289 193 q 529 101 437 101 q 695 147 620 101 q 813 284 769 193 q 856 505 856 374 m 760 1515 l 760 1417 l 298 1417 l 298 1515 l 760 1515 m 529 1136 q 470 1160 495 1136 q 446 1215 446 1183 q 470 1271 446 1248 q 529 1294 495 1294 q 587 1271 563 1294 q 612 1215 612 1248 q 587 1160 612 1183 q 529 1136 563 1136 z "},"Ṍ":{"ha":1057,"x_min":83,"x_max":975,"o":"m 975 505 q 917 229 975 345 q 759 49 859 112 q 529 -14 658 -14 q 299 49 400 -14 q 141 229 198 112 q 83 505 83 345 q 141 781 83 665 q 299 961 198 898 q 529 1024 400 1024 q 759 961 658 1024 q 917 781 859 898 q 975 505 975 665 m 856 505 q 813 727 856 636 q 695 863 769 817 q 529 909 620 909 q 363 863 437 909 q 245 727 289 817 q 201 505 201 636 q 245 284 201 374 q 363 147 289 193 q 529 101 437 101 q 695 147 620 101 q 813 284 769 193 q 856 505 856 374 m 377 1101 l 286 1105 q 329 1228 286 1180 q 436 1276 372 1276 q 500 1261 473 1276 q 554 1229 527 1245 q 616 1213 580 1213 q 663 1235 644 1213 q 683 1288 683 1257 l 771 1280 q 728 1158 771 1203 q 621 1113 685 1113 q 565 1122 587 1113 q 526 1144 543 1132 q 489 1166 509 1157 q 442 1176 470 1176 q 395 1154 414 1176 q 377 1101 377 1132 m 464 1318 l 608 1468 l 744 1468 l 566 1318 l 464 1318 z "},"Ṏ":{"ha":1057,"x_min":83,"x_max":975,"o":"m 975 505 q 917 229 975 345 q 759 49 859 112 q 529 -14 658 -14 q 299 49 400 -14 q 141 229 198 112 q 83 505 83 345 q 141 781 83 665 q 299 961 198 898 q 529 1024 400 1024 q 759 961 658 1024 q 917 781 859 898 q 975 505 975 665 m 856 505 q 813 727 856 636 q 695 863 769 817 q 529 909 620 909 q 363 863 437 909 q 245 727 289 817 q 201 505 201 636 q 245 284 201 374 q 363 147 289 193 q 529 101 437 101 q 695 147 620 101 q 813 284 769 193 q 856 505 856 374 m 659 1253 l 718 1237 q 686 1150 718 1187 q 604 1113 654 1113 q 545 1126 567 1113 q 503 1151 523 1138 q 454 1164 483 1164 q 416 1146 432 1164 q 400 1103 400 1128 l 341 1119 q 372 1206 341 1167 q 454 1245 403 1245 q 507 1233 484 1245 q 553 1208 530 1220 q 604 1196 575 1196 q 642 1212 626 1196 q 659 1253 659 1229 m 610 1368 q 630 1422 610 1400 q 689 1444 650 1444 q 745 1422 726 1444 q 765 1369 765 1400 q 746 1316 765 1338 q 688 1294 727 1294 q 630 1315 650 1294 q 610 1368 610 1337 m 292 1369 q 311 1422 292 1400 q 369 1444 330 1444 q 428 1423 407 1444 q 448 1369 448 1402 q 428 1317 448 1338 q 369 1296 407 1296 q 312 1317 332 1296 q 292 1369 292 1338 z "},"Ṑ":{"ha":1057,"x_min":83,"x_max":975,"o":"m 975 505 q 917 229 975 345 q 759 49 859 112 q 529 -14 658 -14 q 299 49 400 -14 q 141 229 198 112 q 83 505 83 345 q 141 781 83 665 q 299 961 198 898 q 529 1024 400 1024 q 759 961 658 1024 q 917 781 859 898 q 975 505 975 665 m 856 505 q 813 727 856 636 q 695 863 769 817 q 529 909 620 909 q 363 863 437 909 q 245 727 289 817 q 201 505 201 636 q 245 284 201 374 q 363 147 289 193 q 529 101 437 101 q 695 147 620 101 q 813 284 769 193 q 856 505 856 374 m 760 1235 l 760 1136 l 298 1136 l 298 1235 l 760 1235 m 478 1302 l 311 1452 l 451 1452 l 599 1302 l 478 1302 z "},"Ṓ":{"ha":1057,"x_min":83,"x_max":975,"o":"m 975 505 q 917 229 975 345 q 759 49 859 112 q 529 -14 658 -14 q 299 49 400 -14 q 141 229 198 112 q 83 505 83 345 q 141 781 83 665 q 299 961 198 898 q 529 1024 400 1024 q 759 961 658 1024 q 917 781 859 898 q 975 505 975 665 m 856 505 q 813 727 856 636 q 695 863 769 817 q 529 909 620 909 q 363 863 437 909 q 245 727 289 817 q 201 505 201 636 q 245 284 201 374 q 363 147 289 193 q 529 101 437 101 q 695 147 620 101 q 813 284 769 193 q 856 505 856 374 m 760 1235 l 760 1136 l 298 1136 l 298 1235 l 760 1235 m 460 1302 l 608 1452 l 748 1452 l 580 1302 l 460 1302 z "},"Ọ":{"ha":1057,"x_min":83,"x_max":975,"o":"m 975 505 q 917 229 975 345 q 759 49 859 112 q 529 -14 658 -14 q 299 49 400 -14 q 141 229 198 112 q 83 505 83 345 q 141 781 83 665 q 299 961 198 898 q 529 1024 400 1024 q 759 961 658 1024 q 917 781 859 898 q 975 505 975 665 m 856 505 q 813 727 856 636 q 695 863 769 817 q 529 909 620 909 q 363 863 437 909 q 245 727 289 817 q 201 505 201 636 q 245 284 201 374 q 363 147 289 193 q 529 101 437 101 q 695 147 620 101 q 813 284 769 193 q 856 505 856 374 m 529 -251 q 470 -227 495 -251 q 446 -172 446 -204 q 470 -116 446 -139 q 529 -93 495 -93 q 587 -116 563 -93 q 612 -172 612 -139 q 587 -227 612 -204 q 529 -251 563 -251 z "},"Ỏ":{"ha":1057,"x_min":83,"x_max":975,"o":"m 975 505 q 917 229 975 345 q 759 49 859 112 q 529 -14 658 -14 q 299 49 400 -14 q 141 229 198 112 q 83 505 83 345 q 141 781 83 665 q 299 961 198 898 q 529 1024 400 1024 q 759 961 658 1024 q 917 781 859 898 q 975 505 975 665 m 856 505 q 813 727 856 636 q 695 863 769 817 q 529 909 620 909 q 363 863 437 909 q 245 727 289 817 q 201 505 201 636 q 245 284 201 374 q 363 147 289 193 q 529 101 437 101 q 695 147 620 101 q 813 284 769 193 q 856 505 856 374 m 580 1113 l 483 1113 l 483 1219 q 557 1234 535 1222 q 578 1269 578 1245 q 547 1308 578 1295 q 472 1320 516 1320 l 475 1395 q 630 1359 578 1395 q 683 1265 683 1324 q 651 1191 683 1214 q 580 1162 618 1168 l 580 1113 z "},"Ố":{"ha":1057,"x_min":83,"x_max":975,"o":"m 975 505 q 917 229 975 345 q 759 49 859 112 q 529 -14 658 -14 q 299 49 400 -14 q 141 229 198 112 q 83 505 83 345 q 141 781 83 665 q 299 961 198 898 q 529 1024 400 1024 q 759 961 658 1024 q 917 781 859 898 q 975 505 975 665 m 856 505 q 813 727 856 636 q 695 863 769 817 q 529 909 620 909 q 363 863 437 909 q 245 727 289 817 q 201 505 201 636 q 245 284 201 374 q 363 147 289 193 q 529 101 437 101 q 695 147 620 101 q 813 284 769 193 q 856 505 856 374 m 274 1105 l 475 1284 l 584 1284 l 785 1105 l 643 1105 l 531 1209 l 418 1105 l 274 1105 m 732 1225 l 829 1403 l 973 1403 l 835 1225 l 732 1225 z "},"Ồ":{"ha":1057,"x_min":83,"x_max":975,"o":"m 975 505 q 917 229 975 345 q 759 49 859 112 q 529 -14 658 -14 q 299 49 400 -14 q 141 229 198 112 q 83 505 83 345 q 141 781 83 665 q 299 961 198 898 q 529 1024 400 1024 q 759 961 658 1024 q 917 781 859 898 q 975 505 975 665 m 856 505 q 813 727 856 636 q 695 863 769 817 q 529 909 620 909 q 363 863 437 909 q 245 727 289 817 q 201 505 201 636 q 245 284 201 374 q 363 147 289 193 q 529 101 437 101 q 695 147 620 101 q 813 284 769 193 q 856 505 856 374 m 582 1282 l 783 1103 l 641 1103 l 529 1207 l 416 1103 l 274 1103 l 473 1282 l 582 1282 m 231 1403 l 326 1223 l 225 1223 l 85 1403 l 231 1403 z "},"Ổ":{"ha":1057,"x_min":83,"x_max":975,"o":"m 975 505 q 917 229 975 345 q 759 49 859 112 q 529 -14 658 -14 q 299 49 400 -14 q 141 229 198 112 q 83 505 83 345 q 141 781 83 665 q 299 961 198 898 q 529 1024 400 1024 q 759 961 658 1024 q 917 781 859 898 q 975 505 975 665 m 856 505 q 813 727 856 636 q 695 863 769 817 q 529 909 620 909 q 363 863 437 909 q 245 727 289 817 q 201 505 201 636 q 245 284 201 374 q 363 147 289 193 q 529 101 437 101 q 695 147 620 101 q 813 284 769 193 q 856 505 856 374 m 596 1271 l 783 1091 l 661 1091 l 527 1215 l 395 1091 l 272 1091 l 460 1271 l 596 1271 m 803 1186 l 720 1186 l 720 1276 q 781 1288 762 1279 q 801 1318 801 1296 q 775 1351 801 1342 q 708 1361 748 1361 l 712 1426 q 846 1396 801 1426 q 892 1316 892 1366 q 864 1252 892 1272 q 803 1227 837 1232 l 803 1186 z "},"Ỗ":{"ha":1057,"x_min":83,"x_max":975,"o":"m 975 505 q 917 229 975 345 q 759 49 859 112 q 529 -14 658 -14 q 299 49 400 -14 q 141 229 198 112 q 83 505 83 345 q 141 781 83 665 q 299 961 198 898 q 529 1024 400 1024 q 759 961 658 1024 q 917 781 859 898 q 975 505 975 665 m 856 505 q 813 727 856 636 q 695 863 769 817 q 529 909 620 909 q 363 863 437 909 q 245 727 289 817 q 201 505 201 636 q 245 284 201 374 q 363 147 289 193 q 529 101 437 101 q 695 147 620 101 q 813 284 769 193 q 856 505 856 374 m 574 1243 l 781 1077 l 659 1077 l 527 1182 l 395 1077 l 272 1077 l 479 1243 l 574 1243 m 649 1417 l 704 1401 q 672 1327 704 1361 q 592 1294 639 1294 q 538 1306 558 1294 q 500 1330 518 1318 q 456 1342 482 1342 q 417 1326 435 1342 q 399 1292 399 1310 l 345 1306 q 377 1380 345 1346 q 456 1415 408 1415 q 504 1403 483 1415 q 546 1381 525 1392 q 592 1369 566 1369 q 631 1384 613 1369 q 649 1417 649 1399 z "},"Ộ":{"ha":1057,"x_min":83,"x_max":975,"o":"m 975 505 q 917 229 975 345 q 759 49 859 112 q 529 -14 658 -14 q 299 49 400 -14 q 141 229 198 112 q 83 505 83 345 q 141 781 83 665 q 299 961 198 898 q 529 1024 400 1024 q 759 961 658 1024 q 917 781 859 898 q 975 505 975 665 m 856 505 q 813 727 856 636 q 695 863 769 817 q 529 909 620 909 q 363 863 437 909 q 245 727 289 817 q 201 505 201 636 q 245 284 201 374 q 363 147 289 193 q 529 101 437 101 q 695 147 620 101 q 813 284 769 193 q 856 505 856 374 m 631 1101 l 529 1239 l 426 1101 l 316 1101 l 316 1109 l 475 1314 l 582 1314 l 742 1109 l 742 1101 l 631 1101 m 529 -251 q 470 -227 495 -251 q 446 -172 446 -204 q 470 -116 446 -139 q 529 -93 495 -93 q 587 -116 563 -93 q 612 -172 612 -139 q 587 -227 612 -204 q 529 -251 563 -251 z "},"Ớ":{"ha":1075,"x_min":83,"x_max":1055,"o":"m 939 1083 l 1055 1083 q 1016 912 1055 980 q 896 820 976 845 q 954 678 934 757 q 975 505 975 599 q 917 229 975 345 q 759 49 859 112 q 529 -14 658 -14 q 299 49 400 -14 q 141 229 198 112 q 83 505 83 345 q 141 781 83 665 q 299 961 198 898 q 529 1024 400 1024 q 694 993 618 1024 q 829 905 771 963 q 912 963 886 916 q 939 1083 939 1009 m 856 505 q 813 727 856 636 q 695 863 769 817 q 529 909 620 909 q 363 863 437 909 q 245 727 289 817 q 201 505 201 636 q 245 284 201 374 q 363 147 289 193 q 529 101 437 101 q 695 147 620 101 q 813 284 769 193 q 856 505 856 374 m 475 1113 l 596 1342 l 732 1342 l 578 1113 l 475 1113 z "},"Ờ":{"ha":1075,"x_min":83,"x_max":1055,"o":"m 939 1083 l 1055 1083 q 1016 912 1055 980 q 896 820 976 845 q 954 678 934 757 q 975 505 975 599 q 917 229 975 345 q 759 49 859 112 q 529 -14 658 -14 q 299 49 400 -14 q 141 229 198 112 q 83 505 83 345 q 141 781 83 665 q 299 961 198 898 q 529 1024 400 1024 q 694 993 618 1024 q 829 905 771 963 q 912 963 886 916 q 939 1083 939 1009 m 856 505 q 813 727 856 636 q 695 863 769 817 q 529 909 620 909 q 363 863 437 909 q 245 727 289 817 q 201 505 201 636 q 245 284 201 374 q 363 147 289 193 q 529 101 437 101 q 695 147 620 101 q 813 284 769 193 q 856 505 856 374 m 479 1113 l 326 1342 l 462 1342 l 582 1113 l 479 1113 z "},"Ở":{"ha":1075,"x_min":83,"x_max":1055,"o":"m 939 1083 l 1055 1083 q 1016 912 1055 980 q 896 820 976 845 q 954 678 934 757 q 975 505 975 599 q 917 229 975 345 q 759 49 859 112 q 529 -14 658 -14 q 299 49 400 -14 q 141 229 198 112 q 83 505 83 345 q 141 781 83 665 q 299 961 198 898 q 529 1024 400 1024 q 694 993 618 1024 q 829 905 771 963 q 912 963 886 916 q 939 1083 939 1009 m 856 505 q 813 727 856 636 q 695 863 769 817 q 529 909 620 909 q 363 863 437 909 q 245 727 289 817 q 201 505 201 636 q 245 284 201 374 q 363 147 289 193 q 529 101 437 101 q 695 147 620 101 q 813 284 769 193 q 856 505 856 374 m 580 1113 l 483 1113 l 483 1219 q 557 1234 535 1222 q 578 1269 578 1245 q 547 1308 578 1295 q 472 1320 516 1320 l 475 1395 q 630 1359 578 1395 q 683 1265 683 1324 q 651 1191 683 1214 q 580 1162 618 1168 l 580 1113 z "},"Ỡ":{"ha":1075,"x_min":83,"x_max":1055,"o":"m 939 1083 l 1055 1083 q 1016 912 1055 980 q 896 820 976 845 q 954 678 934 757 q 975 505 975 599 q 917 229 975 345 q 759 49 859 112 q 529 -14 658 -14 q 299 49 400 -14 q 141 229 198 112 q 83 505 83 345 q 141 781 83 665 q 299 961 198 898 q 529 1024 400 1024 q 694 993 618 1024 q 829 905 771 963 q 912 963 886 916 q 939 1083 939 1009 m 856 505 q 813 727 856 636 q 695 863 769 817 q 529 909 620 909 q 363 863 437 909 q 245 727 289 817 q 201 505 201 636 q 245 284 201 374 q 363 147 289 193 q 529 101 437 101 q 695 147 620 101 q 813 284 769 193 q 856 505 856 374 m 377 1101 l 286 1105 q 329 1228 286 1180 q 436 1276 372 1276 q 500 1261 473 1276 q 554 1229 527 1245 q 616 1213 580 1213 q 663 1235 644 1213 q 683 1288 683 1257 l 771 1280 q 728 1158 771 1203 q 621 1113 685 1113 q 565 1122 587 1113 q 526 1144 543 1132 q 489 1166 509 1157 q 442 1176 470 1176 q 395 1154 414 1176 q 377 1101 377 1132 z "},"Ợ":{"ha":1075,"x_min":83,"x_max":1055,"o":"m 939 1083 l 1055 1083 q 1016 912 1055 980 q 896 820 976 845 q 954 678 934 757 q 975 505 975 599 q 917 229 975 345 q 759 49 859 112 q 529 -14 658 -14 q 299 49 400 -14 q 141 229 198 112 q 83 505 83 345 q 141 781 83 665 q 299 961 198 898 q 529 1024 400 1024 q 694 993 618 1024 q 829 905 771 963 q 912 963 886 916 q 939 1083 939 1009 m 856 505 q 813 727 856 636 q 695 863 769 817 q 529 909 620 909 q 363 863 437 909 q 245 727 289 817 q 201 505 201 636 q 245 284 201 374 q 363 147 289 193 q 529 101 437 101 q 695 147 620 101 q 813 284 769 193 q 856 505 856 374 m 529 -251 q 470 -227 495 -251 q 446 -172 446 -204 q 470 -116 446 -139 q 529 -93 495 -93 q 587 -116 563 -93 q 612 -172 612 -139 q 587 -227 612 -204 q 529 -251 563 -251 z "},"Ǿ":{"ha":1057,"x_min":83,"x_max":975,"o":"m 213 -41 l 138 10 l 213 121 q 117 286 152 188 q 83 505 83 383 q 141 781 83 665 q 299 961 198 898 q 529 1024 400 1024 q 774 951 668 1024 l 840 1050 l 915 998 l 843 891 q 940 726 905 823 q 975 505 975 628 q 917 229 975 345 q 759 49 859 112 q 529 -14 658 -14 q 282 61 389 -14 l 213 -41 m 856 505 q 835 667 856 596 q 774 790 813 739 l 347 157 q 529 101 426 101 q 695 147 620 101 q 813 284 769 193 q 856 505 856 374 m 282 222 l 708 854 q 529 909 631 909 q 363 863 437 909 q 245 727 289 817 q 201 505 201 636 q 223 344 201 415 q 282 222 244 273 m 475 1113 l 596 1342 l 732 1342 l 578 1113 l 475 1113 z "},"Ο":{"ha":1057,"x_min":83,"x_max":975,"o":"m 975 505 q 917 229 975 345 q 759 49 859 112 q 529 -14 658 -14 q 299 49 400 -14 q 141 229 198 112 q 83 505 83 345 q 141 781 83 665 q 299 961 198 898 q 529 1024 400 1024 q 759 961 658 1024 q 917 781 859 898 q 975 505 975 665 m 856 505 q 813 727 856 636 q 695 863 769 817 q 529 909 620 909 q 363 863 437 909 q 245 727 289 817 q 201 505 201 636 q 245 284 201 374 q 363 147 289 193 q 529 101 437 101 q 695 147 620 101 q 813 284 769 193 q 856 505 856 374 z "},"Ό":{"ha":1085,"x_min":-8,"x_max":1002,"o":"m 1002 505 q 945 229 1002 345 q 786 49 887 112 q 556 -14 686 -14 q 327 49 427 -14 q 168 229 226 112 q 110 505 110 345 q 168 781 110 665 q 327 961 226 898 q 556 1024 427 1024 q 786 961 686 1024 q 945 781 887 898 q 1002 505 1002 665 m 884 505 q 840 727 884 636 q 722 863 797 817 q 556 909 648 909 q 390 863 465 909 q 273 727 316 817 q 229 505 229 636 q 273 284 229 374 q 390 147 316 193 q 556 101 465 101 q 722 147 648 101 q 840 284 797 193 q 884 505 884 374 m -8 842 l 26 1073 l 152 1073 l 73 842 l -8 842 z "},"Ὀ":{"ha":1132,"x_min":-8,"x_max":1050,"o":"m 1050 505 q 992 229 1050 345 q 834 49 934 112 q 604 -14 733 -14 q 374 49 474 -14 q 216 229 273 112 q 158 505 158 345 q 216 781 158 665 q 374 961 273 898 q 604 1024 474 1024 q 834 961 733 1024 q 992 781 934 898 q 1050 505 1050 665 m 931 505 q 888 727 931 636 q 770 863 844 817 q 604 909 695 909 q 438 863 512 909 q 320 727 363 817 q 276 505 276 636 q 320 284 276 374 q 438 147 363 193 q 604 101 512 101 q 770 147 695 101 q 888 284 844 193 q 931 505 931 374 m 170 1010 l 170 955 q 45 765 170 832 l -8 807 q 34 874 20 838 q 47 959 47 910 l 47 1010 l 170 1010 z "},"Ὁ":{"ha":1180,"x_min":49,"x_max":1097,"o":"m 1097 505 q 1039 229 1097 345 q 881 49 981 112 q 651 -14 780 -14 q 421 49 522 -14 q 263 229 321 112 q 205 505 205 345 q 263 781 205 665 q 421 961 321 898 q 651 1024 522 1024 q 881 961 780 1024 q 1039 781 981 898 q 1097 505 1097 665 m 979 505 q 935 727 979 636 q 817 863 891 817 q 651 909 743 909 q 485 863 559 909 q 367 727 411 817 q 324 505 324 636 q 367 284 324 374 q 485 147 411 193 q 651 101 559 101 q 817 147 743 101 q 935 284 891 193 q 979 505 979 374 m 49 955 l 49 1010 l 172 1010 l 172 959 q 185 874 172 910 q 227 807 199 838 l 174 765 q 82 847 114 798 q 49 955 49 896 z "},"Ὂ":{"ha":1405,"x_min":-8,"x_max":1322,"o":"m 1322 505 q 1264 229 1322 345 q 1106 49 1206 112 q 876 -14 1005 -14 q 646 49 747 -14 q 488 229 545 112 q 430 505 430 345 q 488 781 430 665 q 646 961 545 898 q 876 1024 747 1024 q 1106 961 1005 1024 q 1264 781 1206 898 q 1322 505 1322 665 m 1203 505 q 1160 727 1203 636 q 1042 863 1116 817 q 876 909 968 909 q 710 863 784 909 q 592 727 636 817 q 548 505 548 636 q 592 284 548 374 q 710 147 636 193 q 876 101 784 101 q 1042 147 968 101 q 1160 284 1116 193 q 1203 505 1203 374 m 170 1014 l 170 959 q 137 851 170 900 q 45 769 105 802 l -8 811 q 33 878 19 842 q 47 963 47 914 l 47 1014 l 170 1014 m 420 795 l 420 785 l 357 785 l 201 1000 l 201 1014 l 343 1014 l 420 795 z "},"Ὃ":{"ha":1334,"x_min":-28,"x_max":1251,"o":"m 1251 505 q 1193 229 1251 345 q 1035 49 1135 112 q 805 -14 934 -14 q 575 49 676 -14 q 417 229 474 112 q 359 505 359 345 q 417 781 359 665 q 575 961 474 898 q 805 1024 676 1024 q 1035 961 934 1024 q 1193 781 1135 898 q 1251 505 1251 665 m 1132 505 q 1089 727 1132 636 q 971 863 1045 817 q 805 909 897 909 q 639 863 713 909 q 521 727 565 817 q 477 505 477 636 q 521 284 477 374 q 639 147 565 193 q 805 101 713 101 q 971 147 897 101 q 1089 284 1045 193 q 1132 505 1132 374 m -28 955 l -28 1010 l 95 1010 l 95 959 q 108 874 95 910 q 150 807 122 838 l 97 765 q 5 847 37 798 q -28 955 -28 896 m 359 791 l 359 781 l 296 781 l 140 996 l 140 1010 l 284 1010 l 359 791 z "},"Ὄ":{"ha":1284,"x_min":-8,"x_max":1201,"o":"m 1201 505 q 1144 229 1201 345 q 985 49 1086 112 q 756 -14 885 -14 q 526 49 626 -14 q 367 229 425 112 q 310 505 310 345 q 367 781 310 665 q 526 961 425 898 q 756 1024 626 1024 q 985 961 885 1024 q 1144 781 1086 898 q 1201 505 1201 665 m 1083 505 q 1039 727 1083 636 q 922 863 996 817 q 756 909 847 909 q 590 863 664 909 q 472 727 515 817 q 428 505 428 636 q 472 284 428 374 q 590 147 515 193 q 756 101 664 101 q 922 147 847 101 q 1039 284 996 193 q 1083 505 1083 374 m 170 1010 l 170 955 q 137 847 170 896 q 45 765 105 798 l -8 807 q 33 874 19 838 q 47 959 47 910 l 47 1010 l 170 1010 m 180 781 l 180 791 l 256 1010 l 399 1010 l 399 996 l 243 781 l 180 781 z "},"Ὅ":{"ha":1300,"x_min":-8,"x_max":1217,"o":"m 1217 505 q 1160 229 1217 345 q 1001 49 1102 112 q 771 -14 901 -14 q 542 49 642 -14 q 383 229 441 112 q 326 505 326 345 q 383 781 326 665 q 542 961 441 898 q 771 1024 642 1024 q 1001 961 901 1024 q 1160 781 1102 898 q 1217 505 1217 665 m 1099 505 q 1055 727 1099 636 q 937 863 1012 817 q 771 909 863 909 q 605 863 680 909 q 488 727 531 817 q 444 505 444 636 q 488 284 444 374 q 605 147 531 193 q 771 101 680 101 q 937 147 863 101 q 1055 284 1012 193 q 1099 505 1099 374 m 116 765 q 25 847 57 798 q -8 955 -8 896 l -8 1010 l 114 1010 l 114 959 q 129 874 114 910 q 170 807 143 838 l 116 765 m 195 781 l 195 791 l 270 1010 l 414 1010 l 414 996 l 258 781 l 195 781 z "},"Ὸ":{"ha":1194,"x_min":-8,"x_max":1111,"o":"m 1111 505 q 1053 229 1111 345 q 895 49 995 112 q 665 -14 794 -14 q 435 49 536 -14 q 277 229 334 112 q 219 505 219 345 q 277 781 219 665 q 435 961 334 898 q 665 1024 536 1024 q 895 961 794 1024 q 1053 781 995 898 q 1111 505 1111 665 m 992 505 q 949 727 992 636 q 831 863 905 817 q 665 909 757 909 q 499 863 573 909 q 381 727 425 817 q 337 505 337 636 q 381 284 337 374 q 499 147 425 193 q 665 101 573 101 q 831 147 757 101 q 949 284 905 193 q 992 505 992 374 m 148 779 l -8 996 l -8 1010 l 134 1010 l 211 791 l 211 779 l 148 779 z "},"ϴ":{"ha":1057,"x_min":83,"x_max":975,"o":"m 975 505 q 917 229 975 345 q 759 49 859 112 q 529 -14 658 -14 q 299 49 400 -14 q 141 229 198 112 q 83 505 83 345 q 141 781 83 665 q 299 961 198 898 q 529 1024 400 1024 q 759 961 658 1024 q 917 781 859 898 q 975 505 975 665 m 854 559 q 800 751 845 673 q 684 869 755 829 q 529 909 614 909 q 373 869 443 909 q 258 751 303 829 q 203 559 213 673 l 854 559 m 854 451 l 203 451 q 258 259 213 337 q 373 141 303 181 q 529 101 443 101 q 684 141 614 101 q 800 259 755 181 q 854 451 845 337 z "},"Ό":{"ha":1095,"x_min":63,"x_max":1012,"o":"m 1012 505 q 954 229 1012 345 q 796 49 897 112 q 566 -14 695 -14 q 336 49 437 -14 q 178 229 236 112 q 120 505 120 345 q 178 781 120 665 q 336 961 236 898 q 566 1024 437 1024 q 796 961 695 1024 q 954 781 897 898 q 1012 505 1012 665 m 894 505 q 850 727 894 636 q 732 863 806 817 q 566 909 658 909 q 400 863 474 909 q 282 727 326 817 q 239 505 239 636 q 282 284 239 374 q 400 147 326 193 q 566 101 474 101 q 732 147 658 101 q 850 284 806 193 q 894 505 894 374 m 63 852 l 63 864 l 138 1083 l 282 1083 l 282 1069 l 126 852 l 63 852 z "},"О":{"ha":1057,"x_min":83,"x_max":975,"o":"m 975 505 q 917 229 975 345 q 759 49 859 112 q 529 -14 658 -14 q 299 49 400 -14 q 141 229 198 112 q 83 505 83 345 q 141 781 83 665 q 299 961 198 898 q 529 1024 400 1024 q 759 961 658 1024 q 917 781 859 898 q 975 505 975 665 m 856 505 q 813 727 856 636 q 695 863 769 817 q 529 909 620 909 q 363 863 437 909 q 245 727 289 817 q 201 505 201 636 q 245 284 201 374 q 363 147 289 193 q 529 101 437 101 q 695 147 620 101 q 813 284 769 193 q 856 505 856 374 z "},"Ӧ":{"ha":1057,"x_min":83,"x_max":975,"o":"m 975 505 q 917 229 975 345 q 759 49 859 112 q 529 -14 658 -14 q 299 49 400 -14 q 141 229 198 112 q 83 505 83 345 q 141 781 83 665 q 299 961 198 898 q 529 1024 400 1024 q 759 961 658 1024 q 917 781 859 898 q 975 505 975 665 m 856 505 q 813 727 856 636 q 695 863 769 817 q 529 909 620 909 q 363 863 437 909 q 245 727 289 817 q 201 505 201 636 q 245 284 201 374 q 363 147 289 193 q 529 101 437 101 q 695 147 620 101 q 813 284 769 193 q 856 505 856 374 m 387 1136 q 332 1160 356 1136 q 308 1215 308 1184 q 332 1272 308 1249 q 387 1294 356 1294 q 443 1272 421 1294 q 466 1215 466 1249 q 443 1160 466 1184 q 387 1136 421 1136 m 671 1136 q 616 1160 640 1136 q 592 1215 592 1184 q 616 1272 592 1249 q 671 1294 640 1294 q 727 1272 705 1294 q 750 1215 750 1249 q 727 1160 750 1184 q 671 1136 705 1136 z "},"Ɵ":{"ha":1057,"x_min":83,"x_max":975,"o":"m 975 505 q 917 229 975 345 q 759 49 859 112 q 529 -14 658 -14 q 299 49 400 -14 q 141 229 198 112 q 83 505 83 345 q 141 781 83 665 q 299 961 198 898 q 529 1024 400 1024 q 759 961 658 1024 q 917 781 859 898 q 975 505 975 665 m 854 559 q 800 751 845 673 q 684 869 755 829 q 529 909 614 909 q 373 869 443 909 q 258 751 303 829 q 203 559 213 673 l 854 559 m 854 451 l 203 451 q 258 259 213 337 q 373 141 303 181 q 529 101 443 101 q 684 141 614 101 q 800 259 755 181 q 854 451 845 337 z "},"Ө":{"ha":1057,"x_min":83,"x_max":975,"o":"m 975 505 q 917 229 975 345 q 759 49 859 112 q 529 -14 658 -14 q 299 49 400 -14 q 141 229 198 112 q 83 505 83 345 q 141 781 83 665 q 299 961 198 898 q 529 1024 400 1024 q 759 961 658 1024 q 917 781 859 898 q 975 505 975 665 m 854 559 q 800 751 845 673 q 684 869 755 829 q 529 909 614 909 q 373 869 443 909 q 258 751 303 829 q 203 559 213 673 l 854 559 m 854 451 l 203 451 q 258 259 213 337 q 373 141 303 181 q 529 101 443 101 q 684 141 614 101 q 800 259 755 181 q 854 451 845 337 z "},"Ӫ":{"ha":1057,"x_min":83,"x_max":975,"o":"m 975 505 q 917 229 975 345 q 759 49 859 112 q 529 -14 658 -14 q 299 49 400 -14 q 141 229 198 112 q 83 505 83 345 q 141 781 83 665 q 299 961 198 898 q 529 1024 400 1024 q 759 961 658 1024 q 917 781 859 898 q 975 505 975 665 m 854 559 q 800 751 845 673 q 684 869 755 829 q 529 909 614 909 q 373 869 443 909 q 258 751 303 829 q 203 559 213 673 l 854 559 m 854 451 l 203 451 q 258 259 213 337 q 373 141 303 181 q 529 101 443 101 q 684 141 614 101 q 800 259 755 181 q 854 451 845 337 m 387 1136 q 332 1160 356 1136 q 308 1215 308 1184 q 332 1272 308 1249 q 387 1294 356 1294 q 443 1272 421 1294 q 466 1215 466 1249 q 443 1160 466 1184 q 387 1136 421 1136 m 671 1136 q 616 1160 640 1136 q 592 1215 592 1184 q 616 1272 592 1249 q 671 1294 640 1294 q 727 1272 705 1294 q 750 1215 750 1249 q 727 1160 750 1184 q 671 1136 705 1136 z "},"Œ":{"ha":1324,"x_min":83,"x_max":1233,"o":"m 529 0 q 295 63 396 0 q 139 240 195 127 q 83 505 83 354 q 139 771 83 657 q 295 947 195 884 q 529 1010 396 1010 l 1225 1010 l 1225 902 l 738 902 l 738 560 l 1194 560 l 1194 452 l 738 452 l 738 109 l 1233 109 l 1233 0 l 529 0 m 616 109 l 616 902 l 529 902 q 357 852 431 902 q 242 714 284 803 q 201 505 201 624 q 242 297 201 387 q 357 158 284 208 q 529 109 431 109 l 616 109 z "},"P":{"ha":882,"x_min":122,"x_max":807,"o":"m 122 0 l 122 1010 l 464 1010 q 658 967 582 1010 q 770 852 734 925 q 807 690 807 780 q 771 528 807 601 q 659 412 734 455 q 466 369 583 369 l 245 369 l 245 0 l 122 0 m 245 477 l 462 477 q 635 539 583 477 q 687 690 687 600 q 635 842 687 782 q 460 902 583 902 l 245 902 l 245 477 z "},"Ṕ":{"ha":882,"x_min":122,"x_max":807,"o":"m 122 0 l 122 1010 l 464 1010 q 658 967 582 1010 q 770 852 734 925 q 807 690 807 780 q 771 528 807 601 q 659 412 734 455 q 466 369 583 369 l 245 369 l 245 0 l 122 0 m 245 477 l 462 477 q 635 539 583 477 q 687 690 687 600 q 635 842 687 782 q 460 902 583 902 l 245 902 l 245 477 m 387 1113 l 507 1342 l 643 1342 l 489 1113 l 387 1113 z "},"Ṗ":{"ha":882,"x_min":122,"x_max":807,"o":"m 122 0 l 122 1010 l 464 1010 q 658 967 582 1010 q 770 852 734 925 q 807 690 807 780 q 771 528 807 601 q 659 412 734 455 q 466 369 583 369 l 245 369 l 245 0 l 122 0 m 245 477 l 462 477 q 635 539 583 477 q 687 690 687 600 q 635 842 687 782 q 460 902 583 902 l 245 902 l 245 477 m 440 1136 q 382 1160 406 1136 q 357 1215 357 1183 q 382 1271 357 1248 q 440 1294 406 1294 q 498 1271 474 1294 q 523 1215 523 1248 q 498 1160 523 1183 q 440 1136 474 1136 z "},"Ҏ":{"ha":882,"x_min":122,"x_max":807,"o":"m 122 0 l 122 1010 l 464 1010 q 658 967 582 1010 q 770 852 734 925 q 807 690 807 780 q 780 548 807 614 q 698 438 754 483 l 765 335 l 675 276 l 602 388 q 466 369 541 369 l 245 369 l 245 0 l 122 0 m 560 649 l 634 537 q 674 605 661 566 q 687 690 687 645 q 635 842 687 782 q 460 902 583 902 l 245 902 l 245 477 l 462 477 q 539 486 504 477 l 470 592 l 560 649 z "},"Ƥ":{"ha":1093,"x_min":67,"x_max":1018,"o":"m 182 742 l 67 742 l 67 809 q 119 951 67 892 q 268 1010 171 1010 l 675 1010 q 869 967 794 1010 q 981 852 945 925 q 1018 690 1018 780 q 982 528 1018 601 q 870 412 945 455 q 677 369 795 369 l 456 369 l 456 0 l 333 0 l 333 902 l 270 902 q 212 884 231 902 q 187 839 193 867 q 182 779 182 811 l 182 742 m 456 477 l 673 477 q 846 539 795 477 q 898 690 898 600 q 846 842 898 782 q 671 902 794 902 l 456 902 l 456 477 z "},"Ρ":{"ha":882,"x_min":122,"x_max":807,"o":"m 122 0 l 122 1010 l 464 1010 q 658 967 582 1010 q 770 852 734 925 q 807 690 807 780 q 771 528 807 601 q 659 412 734 455 q 466 369 583 369 l 245 369 l 245 0 l 122 0 m 245 477 l 462 477 q 635 539 583 477 q 687 690 687 600 q 635 842 687 782 q 460 902 583 902 l 245 902 l 245 477 z "},"Ῥ":{"ha":1054,"x_min":65,"x_max":981,"o":"m 296 0 l 296 1010 l 637 1010 q 832 967 756 1010 q 944 852 908 925 q 981 690 981 780 q 944 528 981 601 q 833 412 908 455 q 639 369 757 369 l 418 369 l 418 0 l 296 0 m 418 477 l 635 477 q 809 539 757 477 q 860 690 860 600 q 808 842 860 782 q 633 902 757 902 l 418 902 l 418 477 m 65 955 l 65 1010 l 187 1010 l 187 959 q 201 874 187 910 q 243 807 215 838 l 189 765 q 98 847 130 798 q 65 955 65 896 z "},"Q":{"ha":1057,"x_min":83,"x_max":975,"o":"m 975 505 q 928 255 975 363 q 801 80 882 146 l 933 -95 l 799 -95 l 711 24 q 529 -14 627 -14 q 299 49 400 -14 q 141 229 198 112 q 83 505 83 345 q 141 781 83 665 q 299 961 198 898 q 529 1024 400 1024 q 759 961 658 1024 q 917 781 859 898 q 975 505 975 665 m 489 316 l 623 316 l 731 174 q 822 308 789 224 q 856 505 856 391 q 813 727 856 636 q 695 863 769 817 q 529 909 620 909 q 363 863 437 909 q 245 727 289 817 q 201 505 201 636 q 245 284 201 374 q 363 147 289 193 q 529 101 437 101 q 639 119 587 101 l 489 316 z "},"R":{"ha":888,"x_min":122,"x_max":846,"o":"m 122 0 l 122 1010 l 464 1010 q 658 970 582 1010 q 770 860 734 930 q 807 700 807 790 q 761 525 807 600 q 618 417 715 450 l 846 0 l 704 0 l 491 395 q 466 395 479 395 l 245 395 l 245 0 l 122 0 m 245 505 l 462 505 q 635 557 583 505 q 687 700 687 610 q 635 847 687 792 q 460 902 582 902 l 245 902 l 245 505 z "},"Ŕ":{"ha":888,"x_min":122,"x_max":846,"o":"m 122 0 l 122 1010 l 464 1010 q 658 970 582 1010 q 770 860 734 930 q 807 700 807 790 q 761 525 807 600 q 618 417 715 450 l 846 0 l 704 0 l 491 395 q 466 395 479 395 l 245 395 l 245 0 l 122 0 m 245 505 l 462 505 q 635 557 583 505 q 687 700 687 610 q 635 847 687 792 q 460 902 582 902 l 245 902 l 245 505 m 385 1113 l 505 1342 l 641 1342 l 487 1113 l 385 1113 z "},"Ŗ":{"ha":888,"x_min":122,"x_max":846,"o":"m 122 0 l 122 1010 l 464 1010 q 658 970 582 1010 q 770 860 734 930 q 807 700 807 790 q 761 525 807 600 q 618 417 715 450 l 846 0 l 704 0 l 491 395 q 466 395 479 395 l 245 395 l 245 0 l 122 0 m 245 505 l 462 505 q 635 557 583 505 q 687 700 687 610 q 635 847 687 792 q 460 902 582 902 l 245 902 l 245 505 m 340 -335 l 396 -80 l 515 -80 l 431 -335 l 340 -335 z "},"Ř":{"ha":888,"x_min":122,"x_max":846,"o":"m 122 0 l 122 1010 l 464 1010 q 658 970 582 1010 q 770 860 734 930 q 807 700 807 790 q 761 525 807 600 q 618 417 715 450 l 846 0 l 704 0 l 491 395 q 466 395 479 395 l 245 395 l 245 0 l 122 0 m 245 505 l 462 505 q 635 557 583 505 q 687 700 687 610 q 635 847 687 792 q 460 902 582 902 l 245 902 l 245 505 m 335 1314 l 438 1176 l 541 1314 l 651 1314 l 651 1306 l 491 1101 l 385 1101 l 225 1306 l 225 1314 l 335 1314 z "},"Ȑ":{"ha":888,"x_min":122,"x_max":846,"o":"m 122 0 l 122 1010 l 464 1010 q 658 970 582 1010 q 770 860 734 930 q 807 700 807 790 q 761 525 807 600 q 618 417 715 450 l 846 0 l 704 0 l 491 395 q 466 395 479 395 l 245 395 l 245 0 l 122 0 m 245 505 l 462 505 q 635 557 583 505 q 687 700 687 610 q 635 847 687 792 q 460 902 582 902 l 245 902 l 245 505 m 494 1113 l 374 1342 l 522 1342 l 596 1113 l 494 1113 m 285 1113 l 122 1342 l 267 1342 l 388 1113 l 285 1113 z "},"Ȓ":{"ha":888,"x_min":122,"x_max":846,"o":"m 122 0 l 122 1010 l 464 1010 q 658 970 582 1010 q 770 860 734 930 q 807 700 807 790 q 761 525 807 600 q 618 417 715 450 l 846 0 l 704 0 l 491 395 q 466 395 479 395 l 245 395 l 245 0 l 122 0 m 245 505 l 462 505 q 635 557 583 505 q 687 700 687 610 q 635 847 687 792 q 460 902 582 902 l 245 902 l 245 505 m 233 1136 q 288 1268 233 1216 q 438 1320 343 1320 q 587 1268 533 1320 q 641 1136 641 1216 l 533 1136 q 510 1206 533 1176 q 438 1235 488 1235 q 363 1205 385 1235 q 341 1136 341 1175 l 233 1136 z "},"Ṙ":{"ha":888,"x_min":122,"x_max":846,"o":"m 122 0 l 122 1010 l 464 1010 q 658 970 582 1010 q 770 860 734 930 q 807 700 807 790 q 761 525 807 600 q 618 417 715 450 l 846 0 l 704 0 l 491 395 q 466 395 479 395 l 245 395 l 245 0 l 122 0 m 245 505 l 462 505 q 635 557 583 505 q 687 700 687 610 q 635 847 687 792 q 460 902 582 902 l 245 902 l 245 505 m 438 1136 q 380 1160 404 1136 q 355 1215 355 1183 q 380 1271 355 1248 q 438 1294 404 1294 q 496 1271 472 1294 q 521 1215 521 1248 q 496 1160 521 1183 q 438 1136 472 1136 z "},"Ṛ":{"ha":888,"x_min":122,"x_max":846,"o":"m 122 0 l 122 1010 l 464 1010 q 658 970 582 1010 q 770 860 734 930 q 807 700 807 790 q 761 525 807 600 q 618 417 715 450 l 846 0 l 704 0 l 491 395 q 466 395 479 395 l 245 395 l 245 0 l 122 0 m 245 505 l 462 505 q 635 557 583 505 q 687 700 687 610 q 635 847 687 792 q 460 902 582 902 l 245 902 l 245 505 m 456 -251 q 397 -227 422 -251 q 373 -172 373 -204 q 397 -116 373 -139 q 456 -93 422 -93 q 514 -116 490 -93 q 539 -172 539 -139 q 514 -227 539 -204 q 456 -251 490 -251 z "},"Ṝ":{"ha":888,"x_min":122,"x_max":846,"o":"m 122 0 l 122 1010 l 464 1010 q 658 970 582 1010 q 770 860 734 930 q 807 700 807 790 q 761 525 807 600 q 618 417 715 450 l 846 0 l 704 0 l 491 395 q 466 395 479 395 l 245 395 l 245 0 l 122 0 m 245 505 l 462 505 q 635 557 583 505 q 687 700 687 610 q 635 847 687 792 q 460 902 582 902 l 245 902 l 245 505 m 456 -251 q 397 -227 422 -251 q 373 -172 373 -204 q 397 -116 373 -139 q 456 -93 422 -93 q 514 -116 490 -93 q 539 -172 539 -139 q 514 -227 539 -204 q 456 -251 490 -251 m 669 1263 l 669 1164 l 207 1164 l 207 1263 l 669 1263 z "},"Ṟ":{"ha":888,"x_min":122,"x_max":846,"o":"m 122 0 l 122 1010 l 464 1010 q 658 970 582 1010 q 770 860 734 930 q 807 700 807 790 q 761 525 807 600 q 618 417 715 450 l 846 0 l 704 0 l 491 395 q 466 395 479 395 l 245 395 l 245 0 l 122 0 m 245 505 l 462 505 q 635 557 583 505 q 687 700 687 610 q 635 847 687 792 q 460 902 582 902 l 245 902 l 245 505 m 687 -124 l 687 -223 l 225 -223 l 225 -124 l 687 -124 z "},"℟":{"ha":888,"x_min":122,"x_max":846,"o":"m 671 1142 l 626 983 q 763 873 719 948 q 807 700 807 799 q 761 525 807 600 q 618 417 715 450 l 846 0 l 704 0 l 491 395 q 466 395 479 395 l 459 395 l 280 -239 l 203 -223 l 379 395 l 245 395 l 245 0 l 122 0 l 122 1010 l 464 1010 q 552 1003 510 1010 l 578 1095 l 363 1158 l 391 1231 l 671 1142 m 245 505 l 410 505 l 522 897 q 460 902 493 902 l 245 902 l 245 505 m 491 506 q 641 564 596 512 q 687 700 687 615 q 665 805 687 760 q 595 874 644 850 l 491 506 z "},"℞":{"ha":949,"x_min":122,"x_max":898,"o":"m 122 1010 l 460 1010 q 655 968 580 1010 q 764 855 729 925 q 799 700 799 784 q 746 518 799 590 q 596 412 693 445 l 666 316 l 760 444 l 898 444 l 736 220 l 898 0 l 756 0 l 666 124 l 576 0 l 434 0 l 596 220 l 471 393 l 245 393 l 245 0 l 122 0 l 122 1010 m 245 505 l 446 505 q 585 530 535 505 q 657 600 636 556 q 679 700 679 644 q 661 794 679 748 q 597 871 644 840 q 460 902 549 902 l 245 902 l 245 505 z "},"Ɍ":{"ha":900,"x_min":16,"x_max":858,"o":"m 134 0 l 134 395 l 16 395 l 16 505 l 134 505 l 134 1010 l 475 1010 q 670 970 594 1010 q 782 860 746 930 q 819 700 819 790 q 773 525 819 600 q 630 417 727 450 l 858 0 l 716 0 l 503 395 q 477 395 491 395 l 256 395 l 256 0 l 134 0 m 256 505 l 473 505 q 647 557 595 505 q 698 700 698 610 q 646 847 698 792 q 472 902 594 902 l 256 902 l 256 505 z "},"S":{"ha":886,"x_min":79,"x_max":807,"o":"m 675 758 q 603 874 666 833 q 448 915 540 915 q 286 868 347 915 q 225 748 225 820 q 258 660 225 693 q 337 608 291 627 q 420 580 383 590 l 523 552 q 611 524 562 542 q 704 474 659 506 q 778 394 749 443 q 807 274 807 345 q 764 126 807 192 q 640 21 722 60 q 442 -18 558 -18 q 183 59 279 -18 q 79 260 88 136 l 205 260 q 244 166 210 203 q 330 111 278 129 q 442 93 382 93 q 568 116 512 93 q 656 180 623 139 q 689 276 689 221 q 660 358 689 327 q 586 409 632 390 q 487 444 541 429 l 363 479 q 176 577 245 513 q 107 742 107 640 q 153 890 107 827 q 277 989 199 953 q 452 1024 355 1024 q 625 989 549 1024 q 746 894 701 954 q 793 758 791 834 l 675 758 z "},"Ś":{"ha":886,"x_min":79,"x_max":807,"o":"m 675 758 q 603 874 666 833 q 448 915 540 915 q 286 868 347 915 q 225 748 225 820 q 258 660 225 693 q 337 608 291 627 q 420 580 383 590 l 523 552 q 611 524 562 542 q 704 474 659 506 q 778 394 749 443 q 807 274 807 345 q 764 126 807 192 q 640 21 722 60 q 442 -18 558 -18 q 183 59 279 -18 q 79 260 88 136 l 205 260 q 244 166 210 203 q 330 111 278 129 q 442 93 382 93 q 568 116 512 93 q 656 180 623 139 q 689 276 689 221 q 660 358 689 327 q 586 409 632 390 q 487 444 541 429 l 363 479 q 176 577 245 513 q 107 742 107 640 q 153 890 107 827 q 277 989 199 953 q 452 1024 355 1024 q 625 989 549 1024 q 746 894 701 954 q 793 758 791 834 l 675 758 m 389 1113 l 509 1342 l 645 1342 l 491 1113 l 389 1113 z "},"Ŝ":{"ha":886,"x_min":79,"x_max":807,"o":"m 675 758 q 603 874 666 833 q 448 915 540 915 q 286 868 347 915 q 225 748 225 820 q 258 660 225 693 q 337 608 291 627 q 420 580 383 590 l 523 552 q 611 524 562 542 q 704 474 659 506 q 778 394 749 443 q 807 274 807 345 q 764 126 807 192 q 640 21 722 60 q 442 -18 558 -18 q 183 59 279 -18 q 79 260 88 136 l 205 260 q 244 166 210 203 q 330 111 278 129 q 442 93 382 93 q 568 116 512 93 q 656 180 623 139 q 689 276 689 221 q 660 358 689 327 q 586 409 632 390 q 487 444 541 429 l 363 479 q 176 577 245 513 q 107 742 107 640 q 153 890 107 827 q 277 989 199 953 q 452 1024 355 1024 q 625 989 549 1024 q 746 894 701 954 q 793 758 791 834 l 675 758 m 545 1101 l 442 1239 l 339 1101 l 229 1101 l 229 1109 l 389 1314 l 495 1314 l 655 1109 l 655 1101 l 545 1101 z "},"Ş":{"ha":886,"x_min":79,"x_max":807,"o":"m 675 758 q 603 874 666 833 q 448 915 540 915 q 286 868 347 915 q 225 748 225 820 q 258 660 225 693 q 337 608 291 627 q 420 580 383 590 l 523 552 q 611 524 562 542 q 704 474 659 506 q 778 394 749 443 q 807 274 807 345 q 764 126 807 192 q 640 21 722 60 q 442 -18 558 -18 q 183 59 279 -18 q 79 260 88 136 l 205 260 q 244 166 210 203 q 330 111 278 129 q 442 93 382 93 q 568 116 512 93 q 656 180 623 139 q 689 276 689 221 q 660 358 689 327 q 586 409 632 390 q 487 444 541 429 l 363 479 q 176 577 245 513 q 107 742 107 640 q 153 890 107 827 q 277 989 199 953 q 452 1024 355 1024 q 625 989 549 1024 q 746 894 701 954 q 793 758 791 834 l 675 758 m 393 4 l 489 4 l 481 -36 q 552 -68 520 -41 q 584 -152 584 -94 q 531 -256 584 -216 q 377 -296 479 -296 l 373 -219 q 449 -204 419 -219 q 479 -156 479 -190 q 454 -109 479 -122 q 373 -93 429 -97 l 393 4 z "},"Š":{"ha":886,"x_min":79,"x_max":807,"o":"m 675 758 q 603 874 666 833 q 448 915 540 915 q 286 868 347 915 q 225 748 225 820 q 258 660 225 693 q 337 608 291 627 q 420 580 383 590 l 523 552 q 611 524 562 542 q 704 474 659 506 q 778 394 749 443 q 807 274 807 345 q 764 126 807 192 q 640 21 722 60 q 442 -18 558 -18 q 183 59 279 -18 q 79 260 88 136 l 205 260 q 244 166 210 203 q 330 111 278 129 q 442 93 382 93 q 568 116 512 93 q 656 180 623 139 q 689 276 689 221 q 660 358 689 327 q 586 409 632 390 q 487 444 541 429 l 363 479 q 176 577 245 513 q 107 742 107 640 q 153 890 107 827 q 277 989 199 953 q 452 1024 355 1024 q 625 989 549 1024 q 746 894 701 954 q 793 758 791 834 l 675 758 m 339 1314 l 442 1176 l 545 1314 l 655 1314 l 655 1306 l 495 1101 l 389 1101 l 229 1306 l 229 1314 l 339 1314 z "},"Ș":{"ha":886,"x_min":79,"x_max":807,"o":"m 675 758 q 603 874 666 833 q 448 915 540 915 q 286 868 347 915 q 225 748 225 820 q 258 660 225 693 q 337 608 291 627 q 420 580 383 590 l 523 552 q 611 524 562 542 q 704 474 659 506 q 778 394 749 443 q 807 274 807 345 q 764 126 807 192 q 640 21 722 60 q 442 -18 558 -18 q 183 59 279 -18 q 79 260 88 136 l 205 260 q 244 166 210 203 q 330 111 278 129 q 442 93 382 93 q 568 116 512 93 q 656 180 623 139 q 689 276 689 221 q 660 358 689 327 q 586 409 632 390 q 487 444 541 429 l 363 479 q 176 577 245 513 q 107 742 107 640 q 153 890 107 827 q 277 989 199 953 q 452 1024 355 1024 q 625 989 549 1024 q 746 894 701 954 q 793 758 791 834 l 675 758 m 328 -353 l 384 -98 l 503 -98 l 419 -353 l 328 -353 z "},"Ṡ":{"ha":886,"x_min":79,"x_max":807,"o":"m 675 758 q 603 874 666 833 q 448 915 540 915 q 286 868 347 915 q 225 748 225 820 q 258 660 225 693 q 337 608 291 627 q 420 580 383 590 l 523 552 q 611 524 562 542 q 704 474 659 506 q 778 394 749 443 q 807 274 807 345 q 764 126 807 192 q 640 21 722 60 q 442 -18 558 -18 q 183 59 279 -18 q 79 260 88 136 l 205 260 q 244 166 210 203 q 330 111 278 129 q 442 93 382 93 q 568 116 512 93 q 656 180 623 139 q 689 276 689 221 q 660 358 689 327 q 586 409 632 390 q 487 444 541 429 l 363 479 q 176 577 245 513 q 107 742 107 640 q 153 890 107 827 q 277 989 199 953 q 452 1024 355 1024 q 625 989 549 1024 q 746 894 701 954 q 793 758 791 834 l 675 758 m 442 1136 q 383 1160 408 1136 q 359 1215 359 1183 q 383 1271 359 1248 q 442 1294 408 1294 q 500 1271 476 1294 q 525 1215 525 1248 q 500 1160 525 1183 q 442 1136 476 1136 z "},"Ṣ":{"ha":886,"x_min":79,"x_max":807,"o":"m 675 758 q 603 874 666 833 q 448 915 540 915 q 286 868 347 915 q 225 748 225 820 q 258 660 225 693 q 337 608 291 627 q 420 580 383 590 l 523 552 q 611 524 562 542 q 704 474 659 506 q 778 394 749 443 q 807 274 807 345 q 764 126 807 192 q 640 21 722 60 q 442 -18 558 -18 q 183 59 279 -18 q 79 260 88 136 l 205 260 q 244 166 210 203 q 330 111 278 129 q 442 93 382 93 q 568 116 512 93 q 656 180 623 139 q 689 276 689 221 q 660 358 689 327 q 586 409 632 390 q 487 444 541 429 l 363 479 q 176 577 245 513 q 107 742 107 640 q 153 890 107 827 q 277 989 199 953 q 452 1024 355 1024 q 625 989 549 1024 q 746 894 701 954 q 793 758 791 834 l 675 758 m 444 -268 q 385 -245 410 -268 q 361 -189 361 -222 q 385 -134 361 -157 q 444 -110 410 -110 q 502 -134 478 -110 q 527 -189 527 -157 q 502 -245 527 -222 q 444 -268 478 -268 z "},"Ṥ":{"ha":886,"x_min":79,"x_max":807,"o":"m 675 758 q 603 874 666 833 q 448 915 540 915 q 286 868 347 915 q 225 748 225 820 q 258 660 225 693 q 337 608 291 627 q 420 580 383 590 l 523 552 q 611 524 562 542 q 704 474 659 506 q 778 394 749 443 q 807 274 807 345 q 764 126 807 192 q 640 21 722 60 q 442 -18 558 -18 q 183 59 279 -18 q 79 260 88 136 l 205 260 q 244 166 210 203 q 330 111 278 129 q 442 93 382 93 q 568 116 512 93 q 656 180 623 139 q 689 276 689 221 q 660 358 689 327 q 586 409 632 390 q 487 444 541 429 l 363 479 q 176 577 245 513 q 107 742 107 640 q 153 890 107 827 q 277 989 199 953 q 452 1024 355 1024 q 625 989 549 1024 q 746 894 701 954 q 793 758 791 834 l 675 758 m 404 1121 l 499 1300 l 645 1300 l 505 1121 l 404 1121 m 274 1330 q 294 1383 274 1361 q 351 1405 314 1405 q 411 1382 391 1405 q 430 1330 430 1359 q 411 1277 430 1299 q 351 1255 391 1255 q 293 1277 313 1255 q 274 1330 274 1300 z "},"Ṧ":{"ha":886,"x_min":79,"x_max":807,"o":"m 675 758 q 603 874 666 833 q 448 915 540 915 q 286 868 347 915 q 225 748 225 820 q 258 660 225 693 q 337 608 291 627 q 420 580 383 590 l 523 552 q 611 524 562 542 q 704 474 659 506 q 778 394 749 443 q 807 274 807 345 q 764 126 807 192 q 640 21 722 60 q 442 -18 558 -18 q 183 59 279 -18 q 79 260 88 136 l 205 260 q 244 166 210 203 q 330 111 278 129 q 442 93 382 93 q 568 116 512 93 q 656 180 623 139 q 689 276 689 221 q 660 358 689 327 q 586 409 632 390 q 487 444 541 429 l 363 479 q 176 577 245 513 q 107 742 107 640 q 153 890 107 827 q 277 989 199 953 q 452 1024 355 1024 q 625 989 549 1024 q 746 894 701 954 q 793 758 791 834 l 675 758 m 343 1269 l 442 1184 l 541 1269 l 657 1269 l 657 1257 l 481 1109 l 400 1109 l 229 1255 l 229 1269 l 343 1269 m 365 1369 q 385 1423 365 1402 q 442 1444 405 1444 q 501 1422 482 1444 q 521 1369 521 1400 q 501 1317 521 1338 q 442 1296 480 1296 q 385 1317 405 1296 q 365 1369 365 1338 z "},"Ṩ":{"ha":886,"x_min":79,"x_max":807,"o":"m 675 758 q 603 874 666 833 q 448 915 540 915 q 286 868 347 915 q 225 748 225 820 q 258 660 225 693 q 337 608 291 627 q 420 580 383 590 l 523 552 q 611 524 562 542 q 704 474 659 506 q 778 394 749 443 q 807 274 807 345 q 764 126 807 192 q 640 21 722 60 q 442 -18 558 -18 q 183 59 279 -18 q 79 260 88 136 l 205 260 q 244 166 210 203 q 330 111 278 129 q 442 93 382 93 q 568 116 512 93 q 656 180 623 139 q 689 276 689 221 q 660 358 689 327 q 586 409 632 390 q 487 444 541 429 l 363 479 q 176 577 245 513 q 107 742 107 640 q 153 890 107 827 q 277 989 199 953 q 452 1024 355 1024 q 625 989 549 1024 q 746 894 701 954 q 793 758 791 834 l 675 758 m 444 -268 q 385 -245 410 -268 q 361 -189 361 -222 q 385 -134 361 -157 q 444 -110 410 -110 q 502 -134 478 -110 q 527 -189 527 -157 q 502 -245 527 -222 q 444 -268 478 -268 m 442 1136 q 383 1160 408 1136 q 359 1215 359 1183 q 383 1271 359 1248 q 442 1294 408 1294 q 500 1271 476 1294 q 525 1215 525 1248 q 500 1160 525 1183 q 442 1136 476 1136 z "},"Ѕ":{"ha":886,"x_min":79,"x_max":807,"o":"m 675 758 q 603 874 666 833 q 448 915 540 915 q 286 868 347 915 q 225 748 225 820 q 258 660 225 693 q 337 608 291 627 q 420 580 383 590 l 523 552 q 611 524 562 542 q 704 474 659 506 q 778 394 749 443 q 807 274 807 345 q 764 126 807 192 q 640 21 722 60 q 442 -18 558 -18 q 183 59 279 -18 q 79 260 88 136 l 205 260 q 244 166 210 203 q 330 111 278 129 q 442 93 382 93 q 568 116 512 93 q 656 180 623 139 q 689 276 689 221 q 660 358 689 327 q 586 409 632 390 q 487 444 541 429 l 363 479 q 176 577 245 513 q 107 742 107 640 q 153 890 107 827 q 277 989 199 953 q 452 1024 355 1024 q 625 989 549 1024 q 746 894 701 954 q 793 758 791 834 l 675 758 z "},"Ƨ":{"ha":886,"x_min":79,"x_max":807,"o":"m 211 758 l 93 758 q 140 894 96 834 q 260 989 184 954 q 434 1024 336 1024 q 609 989 531 1024 q 733 890 687 953 q 779 742 779 827 q 710 577 779 640 q 523 479 641 513 l 399 444 q 299 409 345 429 q 225 358 254 390 q 197 276 197 327 q 230 180 197 221 q 318 116 262 139 q 444 93 374 93 q 556 111 504 93 q 642 166 608 129 q 681 260 676 203 l 807 260 q 702 59 798 136 q 444 -18 607 -18 q 246 21 327 -18 q 122 126 164 60 q 79 274 79 192 q 108 394 79 345 q 182 474 137 443 q 275 524 226 506 q 363 552 324 542 l 466 580 q 549 608 503 590 q 628 660 594 627 q 661 748 661 693 q 600 868 661 820 q 438 915 539 915 q 283 874 346 915 q 211 758 220 833 z "},"ẞ":{"ha":947,"x_min":122,"x_max":868,"o":"m 122 0 l 122 671 q 432 1024 122 1024 q 626 979 543 1024 q 777 872 709 934 l 552 576 q 786 491 703 567 q 868 284 868 414 q 824 121 868 187 q 704 20 781 55 q 529 -14 627 -14 q 436 -6 483 -14 q 339 20 388 2 l 379 128 q 444 106 407 116 q 531 95 482 95 q 679 146 627 95 q 732 286 732 197 q 705 394 732 356 q 639 448 677 432 q 566 468 601 465 q 515 472 531 472 l 416 472 l 416 578 l 618 852 q 543 895 585 874 q 438 915 500 915 q 319 881 361 915 q 261 790 277 846 q 245 671 245 734 l 245 0 l 122 0 z "},"T":{"ha":892,"x_min":67,"x_max":825,"o":"m 67 902 l 67 1010 l 825 1010 l 825 902 l 507 902 l 507 0 l 385 0 l 385 902 l 67 902 z "},"Ţ":{"ha":892,"x_min":67,"x_max":825,"o":"m 67 902 l 67 1010 l 825 1010 l 825 902 l 507 902 l 507 0 l 385 0 l 385 902 l 67 902 m 410 4 l 507 4 l 499 -36 q 570 -68 538 -41 q 602 -152 602 -94 q 549 -256 602 -216 q 395 -296 497 -296 l 391 -219 q 467 -204 436 -219 q 497 -156 497 -190 q 472 -109 497 -122 q 391 -93 447 -97 l 410 4 z "},"Ť":{"ha":892,"x_min":67,"x_max":825,"o":"m 67 902 l 67 1010 l 825 1010 l 825 902 l 507 902 l 507 0 l 385 0 l 385 902 l 67 902 m 343 1314 l 446 1176 l 548 1314 l 659 1314 l 659 1306 l 499 1101 l 393 1101 l 233 1306 l 233 1314 l 343 1314 z "},"Ț":{"ha":892,"x_min":67,"x_max":825,"o":"m 67 902 l 67 1010 l 825 1010 l 825 902 l 507 902 l 507 0 l 385 0 l 385 902 l 67 902 m 330 -335 l 386 -80 l 505 -80 l 421 -335 l 330 -335 z "},"Ṫ":{"ha":892,"x_min":67,"x_max":825,"o":"m 67 902 l 67 1010 l 825 1010 l 825 902 l 507 902 l 507 0 l 385 0 l 385 902 l 67 902 m 446 1136 q 387 1160 412 1136 q 363 1215 363 1183 q 387 1271 363 1248 q 446 1294 412 1294 q 504 1271 480 1294 q 529 1215 529 1248 q 504 1160 529 1183 q 446 1136 480 1136 z "},"Ṭ":{"ha":892,"x_min":67,"x_max":825,"o":"m 67 902 l 67 1010 l 825 1010 l 825 902 l 507 902 l 507 0 l 385 0 l 385 902 l 67 902 m 446 -251 q 387 -227 412 -251 q 363 -172 363 -204 q 387 -116 363 -139 q 446 -93 412 -93 q 504 -116 480 -93 q 529 -172 529 -139 q 504 -227 529 -204 q 446 -251 480 -251 z "},"Ṯ":{"ha":892,"x_min":67,"x_max":825,"o":"m 67 902 l 67 1010 l 825 1010 l 825 902 l 507 902 l 507 0 l 385 0 l 385 902 l 67 902 m 677 -124 l 677 -223 l 215 -223 l 215 -124 l 677 -124 z "},"Ṱ":{"ha":892,"x_min":67,"x_max":825,"o":"m 67 902 l 67 1010 l 825 1010 l 825 902 l 507 902 l 507 0 l 385 0 l 385 902 l 67 902 m 548 -276 l 446 -138 l 343 -276 l 233 -276 l 233 -268 l 393 -63 l 499 -63 l 659 -268 l 659 -276 l 548 -276 z "},"Ƭ":{"ha":947,"x_min":67,"x_max":880,"o":"m 880 1010 l 880 902 l 562 902 l 562 0 l 440 0 l 440 902 l 268 902 q 197 867 217 902 q 178 789 178 832 l 178 752 l 67 752 l 67 811 q 121 955 67 900 q 268 1010 175 1010 l 880 1010 z "},"Ʈ":{"ha":892,"x_min":67,"x_max":825,"o":"m 67 902 l 67 1010 l 825 1010 l 825 902 l 507 902 l 507 -81 q 543 -158 507 -140 q 625 -176 578 -176 l 663 -176 l 663 -284 l 596 -284 q 492 -261 541 -284 q 415 -193 444 -238 q 385 -83 385 -148 l 385 902 l 67 902 z "},"Ⱦ":{"ha":892,"x_min":67,"x_max":825,"o":"m 178 -128 l 385 455 l 385 902 l 67 902 l 67 1010 l 582 1010 l 627 1138 l 740 1138 l 694 1010 l 825 1010 l 825 902 l 656 902 l 507 483 l 507 0 l 385 0 l 385 139 l 290 -128 l 178 -128 m 507 799 l 544 902 l 507 902 l 507 799 z "},"Τ":{"ha":892,"x_min":67,"x_max":825,"o":"m 67 902 l 67 1010 l 825 1010 l 825 902 l 507 902 l 507 0 l 385 0 l 385 902 l 67 902 z "},"U":{"ha":1030,"x_min":122,"x_max":908,"o":"m 785 1010 l 908 1010 l 908 341 q 859 157 908 238 q 722 29 810 75 q 515 -18 634 -18 q 308 29 396 -18 q 171 157 219 75 q 122 341 122 238 l 122 1010 l 245 1010 l 245 351 q 317 168 245 240 q 515 97 389 97 q 713 168 642 97 q 785 351 785 240 l 785 1010 z "},"Ư":{"ha":1201,"x_min":122,"x_max":1134,"o":"m 1020 1071 l 1134 1071 q 1082 868 1134 942 q 908 779 1029 794 l 908 341 q 859 157 908 238 q 722 29 810 75 q 515 -18 634 -18 q 308 29 396 -18 q 171 157 219 75 q 122 341 122 238 l 122 1010 l 245 1010 l 245 351 q 317 168 245 240 q 515 97 389 97 q 713 168 642 97 q 785 351 785 240 l 785 1010 l 908 1010 l 908 878 q 996 942 973 893 q 1020 1071 1020 990 z "},"Ù":{"ha":1030,"x_min":122,"x_max":908,"o":"m 785 1010 l 908 1010 l 908 341 q 859 157 908 238 q 722 29 810 75 q 515 -18 634 -18 q 308 29 396 -18 q 171 157 219 75 q 122 341 122 238 l 122 1010 l 245 1010 l 245 351 q 317 168 245 240 q 515 97 389 97 q 713 168 642 97 q 785 351 785 240 l 785 1010 m 466 1113 l 312 1342 l 448 1342 l 568 1113 l 466 1113 z "},"Ú":{"ha":1030,"x_min":122,"x_max":908,"o":"m 785 1010 l 908 1010 l 908 341 q 859 157 908 238 q 722 29 810 75 q 515 -18 634 -18 q 308 29 396 -18 q 171 157 219 75 q 122 341 122 238 l 122 1010 l 245 1010 l 245 351 q 317 168 245 240 q 515 97 389 97 q 713 168 642 97 q 785 351 785 240 l 785 1010 m 462 1113 l 582 1342 l 718 1342 l 564 1113 l 462 1113 z "},"Û":{"ha":1030,"x_min":122,"x_max":908,"o":"m 785 1010 l 908 1010 l 908 341 q 859 157 908 238 q 722 29 810 75 q 515 -18 634 -18 q 308 29 396 -18 q 171 157 219 75 q 122 341 122 238 l 122 1010 l 245 1010 l 245 351 q 317 168 245 240 q 515 97 389 97 q 713 168 642 97 q 785 351 785 240 l 785 1010 m 618 1101 l 515 1239 l 412 1101 l 302 1101 l 302 1109 l 462 1314 l 568 1314 l 728 1109 l 728 1101 l 618 1101 z "},"Ü":{"ha":1030,"x_min":122,"x_max":908,"o":"m 785 1010 l 908 1010 l 908 341 q 859 157 908 238 q 722 29 810 75 q 515 -18 634 -18 q 308 29 396 -18 q 171 157 219 75 q 122 341 122 238 l 122 1010 l 245 1010 l 245 351 q 317 168 245 240 q 515 97 389 97 q 713 168 642 97 q 785 351 785 240 l 785 1010 m 373 1136 q 318 1160 342 1136 q 294 1215 294 1184 q 318 1272 294 1249 q 373 1294 342 1294 q 429 1272 407 1294 q 452 1215 452 1249 q 429 1160 452 1184 q 373 1136 407 1136 m 657 1136 q 602 1160 626 1136 q 578 1215 578 1184 q 602 1272 578 1249 q 657 1294 626 1294 q 713 1272 691 1294 q 736 1215 736 1249 q 713 1160 736 1184 q 657 1136 691 1136 z "},"Ũ":{"ha":1030,"x_min":122,"x_max":908,"o":"m 785 1010 l 908 1010 l 908 341 q 859 157 908 238 q 722 29 810 75 q 515 -18 634 -18 q 308 29 396 -18 q 171 157 219 75 q 122 341 122 238 l 122 1010 l 245 1010 l 245 351 q 317 168 245 240 q 515 97 389 97 q 713 168 642 97 q 785 351 785 240 l 785 1010 m 363 1101 l 272 1105 q 315 1228 272 1180 q 422 1276 359 1276 q 487 1261 460 1276 q 540 1229 513 1245 q 602 1213 566 1213 q 649 1235 630 1213 q 669 1288 669 1257 l 758 1280 q 714 1158 758 1203 q 608 1113 671 1113 q 551 1122 574 1113 q 512 1144 529 1132 q 475 1166 495 1157 q 428 1176 456 1176 q 382 1154 400 1176 q 363 1101 363 1132 z "},"Ū":{"ha":1030,"x_min":122,"x_max":908,"o":"m 785 1010 l 908 1010 l 908 341 q 859 157 908 238 q 722 29 810 75 q 515 -18 634 -18 q 308 29 396 -18 q 171 157 219 75 q 122 341 122 238 l 122 1010 l 245 1010 l 245 351 q 317 168 245 240 q 515 97 389 97 q 713 168 642 97 q 785 351 785 240 l 785 1010 m 746 1263 l 746 1164 l 284 1164 l 284 1263 l 746 1263 z "},"Ŭ":{"ha":1030,"x_min":122,"x_max":908,"o":"m 785 1010 l 908 1010 l 908 341 q 859 157 908 238 q 722 29 810 75 q 515 -18 634 -18 q 308 29 396 -18 q 171 157 219 75 q 122 341 122 238 l 122 1010 l 245 1010 l 245 351 q 317 168 245 240 q 515 97 389 97 q 713 168 642 97 q 785 351 785 240 l 785 1010 m 612 1263 l 720 1263 q 665 1132 720 1183 q 515 1081 610 1081 q 367 1132 422 1081 q 312 1263 312 1183 l 420 1263 q 442 1195 420 1224 q 515 1166 463 1166 q 589 1195 567 1166 q 612 1263 612 1224 z "},"Ů":{"ha":1030,"x_min":122,"x_max":908,"o":"m 785 1010 l 908 1010 l 908 341 q 859 157 908 238 q 722 29 810 75 q 515 -18 634 -18 q 308 29 396 -18 q 171 157 219 75 q 122 341 122 238 l 122 1010 l 245 1010 l 245 351 q 317 168 245 240 q 515 97 389 97 q 713 168 642 97 q 785 351 785 240 l 785 1010 m 515 1079 q 414 1121 456 1079 q 372 1222 372 1163 q 414 1323 372 1281 q 515 1365 456 1365 q 616 1323 574 1365 q 658 1222 658 1281 q 616 1121 658 1163 q 515 1079 574 1079 m 515 1150 q 566 1171 545 1150 q 586 1222 586 1192 q 566 1273 586 1252 q 515 1294 545 1294 q 464 1273 484 1294 q 444 1222 444 1252 q 464 1171 444 1192 q 515 1150 484 1150 z "},"Ű":{"ha":1030,"x_min":122,"x_max":908,"o":"m 785 1010 l 908 1010 l 908 341 q 859 157 908 238 q 722 29 810 75 q 515 -18 634 -18 q 308 29 396 -18 q 171 157 219 75 q 122 341 122 238 l 122 1010 l 245 1010 l 245 351 q 317 168 245 240 q 515 97 389 97 q 713 168 642 97 q 785 351 785 240 l 785 1010 m 545 1093 l 696 1302 l 827 1302 l 647 1093 l 545 1093 m 341 1093 l 452 1302 l 580 1302 l 434 1093 l 341 1093 z "},"Ų":{"ha":1030,"x_min":122,"x_max":908,"o":"m 785 1010 l 908 1010 l 908 341 q 859 157 908 238 q 722 29 810 75 q 515 -18 634 -18 q 308 29 396 -18 q 171 157 219 75 q 122 341 122 238 l 122 1010 l 245 1010 l 245 351 q 317 168 245 240 q 515 97 389 97 q 713 168 642 97 q 785 351 785 240 l 785 1010 m 519 -294 q 418 -261 458 -294 q 379 -164 379 -227 q 420 -55 379 -109 q 558 43 461 -1 l 612 2 q 532 -67 567 -31 q 497 -148 497 -104 q 508 -183 497 -170 q 548 -195 519 -195 q 588 -189 571 -195 q 616 -178 605 -183 l 623 -264 q 581 -284 607 -275 q 519 -294 554 -294 z "},"Ǔ":{"ha":1030,"x_min":122,"x_max":908,"o":"m 785 1010 l 908 1010 l 908 341 q 859 157 908 238 q 722 29 810 75 q 515 -18 634 -18 q 308 29 396 -18 q 171 157 219 75 q 122 341 122 238 l 122 1010 l 245 1010 l 245 351 q 317 168 245 240 q 515 97 389 97 q 713 168 642 97 q 785 351 785 240 l 785 1010 m 412 1314 l 515 1176 l 618 1314 l 728 1314 l 728 1306 l 568 1101 l 462 1101 l 302 1306 l 302 1314 l 412 1314 z "},"Ǖ":{"ha":1030,"x_min":122,"x_max":908,"o":"m 785 1010 l 908 1010 l 908 341 q 859 157 908 238 q 722 29 810 75 q 515 -18 634 -18 q 308 29 396 -18 q 171 157 219 75 q 122 341 122 238 l 122 1010 l 245 1010 l 245 351 q 317 168 245 240 q 515 97 389 97 q 713 168 642 97 q 785 351 785 240 l 785 1010 m 746 1515 l 746 1417 l 284 1417 l 284 1515 l 746 1515 m 373 1136 q 318 1160 342 1136 q 294 1215 294 1184 q 318 1272 294 1249 q 373 1294 342 1294 q 429 1272 407 1294 q 452 1215 452 1249 q 429 1160 452 1184 q 373 1136 407 1136 m 657 1136 q 602 1160 626 1136 q 578 1215 578 1184 q 602 1272 578 1249 q 657 1294 626 1294 q 713 1272 691 1294 q 736 1215 736 1249 q 713 1160 736 1184 q 657 1136 691 1136 z "},"Ǘ":{"ha":1030,"x_min":122,"x_max":908,"o":"m 785 1010 l 908 1010 l 908 341 q 859 157 908 238 q 722 29 810 75 q 515 -18 634 -18 q 308 29 396 -18 q 171 157 219 75 q 122 341 122 238 l 122 1010 l 245 1010 l 245 351 q 317 168 245 240 q 515 97 389 97 q 713 168 642 97 q 785 351 785 240 l 785 1010 m 373 1089 q 318 1113 342 1089 q 294 1168 294 1137 q 318 1224 294 1202 q 373 1247 342 1247 q 429 1224 407 1247 q 452 1168 452 1202 q 429 1113 452 1137 q 373 1089 407 1089 m 657 1089 q 602 1113 626 1089 q 578 1168 578 1137 q 602 1224 578 1202 q 657 1247 626 1247 q 713 1224 691 1247 q 736 1168 736 1202 q 713 1113 736 1137 q 657 1089 691 1089 m 464 1318 l 608 1468 l 744 1468 l 566 1318 l 464 1318 z "},"Ǚ":{"ha":1030,"x_min":122,"x_max":908,"o":"m 785 1010 l 908 1010 l 908 341 q 859 157 908 238 q 722 29 810 75 q 515 -18 634 -18 q 308 29 396 -18 q 171 157 219 75 q 122 341 122 238 l 122 1010 l 245 1010 l 245 351 q 317 168 245 240 q 515 97 389 97 q 713 168 642 97 q 785 351 785 240 l 785 1010 m 414 1418 l 513 1334 l 612 1418 l 728 1418 l 728 1407 l 554 1259 l 472 1259 l 300 1405 l 300 1418 l 414 1418 m 278 1192 q 298 1246 278 1224 q 355 1269 318 1269 q 414 1246 394 1269 q 434 1192 434 1224 q 414 1140 434 1161 q 356 1119 394 1119 q 298 1140 317 1119 q 278 1192 278 1162 m 596 1191 q 616 1245 596 1223 q 675 1267 636 1267 q 732 1245 712 1267 q 752 1192 752 1223 q 732 1139 752 1162 q 675 1117 713 1117 q 616 1139 636 1117 q 596 1191 596 1161 z "},"Ǜ":{"ha":1030,"x_min":122,"x_max":908,"o":"m 785 1010 l 908 1010 l 908 341 q 859 157 908 238 q 722 29 810 75 q 515 -18 634 -18 q 308 29 396 -18 q 171 157 219 75 q 122 341 122 238 l 122 1010 l 245 1010 l 245 351 q 317 168 245 240 q 515 97 389 97 q 713 168 642 97 q 785 351 785 240 l 785 1010 m 278 1192 q 298 1246 278 1224 q 355 1269 318 1269 q 414 1246 394 1269 q 434 1192 434 1224 q 414 1140 434 1161 q 356 1119 394 1119 q 298 1140 317 1119 q 278 1192 278 1162 m 596 1191 q 616 1245 596 1223 q 675 1267 636 1267 q 732 1245 712 1267 q 752 1192 752 1223 q 732 1139 752 1162 q 675 1117 713 1117 q 616 1139 636 1117 q 596 1191 596 1161 m 479 1385 l 566 1231 l 479 1231 l 355 1385 l 479 1385 z "},"Ȕ":{"ha":1030,"x_min":122,"x_max":908,"o":"m 785 1010 l 908 1010 l 908 341 q 859 157 908 238 q 722 29 810 75 q 515 -18 634 -18 q 308 29 396 -18 q 171 157 219 75 q 122 341 122 238 l 122 1010 l 245 1010 l 245 351 q 317 168 245 240 q 515 97 389 97 q 713 168 642 97 q 785 351 785 240 l 785 1010 m 571 1113 l 451 1342 l 599 1342 l 673 1113 l 571 1113 m 362 1113 l 199 1342 l 344 1342 l 465 1113 l 362 1113 z "},"Ȗ":{"ha":1030,"x_min":122,"x_max":908,"o":"m 785 1010 l 908 1010 l 908 341 q 859 157 908 238 q 722 29 810 75 q 515 -18 634 -18 q 308 29 396 -18 q 171 157 219 75 q 122 341 122 238 l 122 1010 l 245 1010 l 245 351 q 317 168 245 240 q 515 97 389 97 q 713 168 642 97 q 785 351 785 240 l 785 1010 m 310 1136 q 365 1268 310 1216 q 515 1320 420 1320 q 664 1268 610 1320 q 718 1136 718 1216 l 610 1136 q 587 1206 610 1176 q 515 1235 565 1235 q 440 1205 462 1235 q 418 1136 418 1175 l 310 1136 z "},"Ṳ":{"ha":1030,"x_min":122,"x_max":908,"o":"m 785 1010 l 908 1010 l 908 341 q 859 157 908 238 q 722 29 810 75 q 515 -18 634 -18 q 308 29 396 -18 q 171 157 219 75 q 122 341 122 238 l 122 1010 l 245 1010 l 245 351 q 317 168 245 240 q 515 97 389 97 q 713 168 642 97 q 785 351 785 240 l 785 1010 m 371 -264 q 312 -241 337 -264 q 288 -185 288 -218 q 312 -130 288 -153 q 371 -107 337 -107 q 429 -130 405 -107 q 454 -185 454 -153 q 429 -241 454 -218 q 371 -264 405 -264 m 663 -264 q 604 -241 629 -264 q 580 -185 580 -218 q 604 -130 580 -153 q 663 -107 629 -107 q 721 -130 697 -107 q 746 -185 746 -153 q 721 -241 746 -218 q 663 -264 697 -264 z "},"Ṵ":{"ha":1030,"x_min":122,"x_max":908,"o":"m 785 1010 l 908 1010 l 908 341 q 859 157 908 238 q 722 29 810 75 q 515 -18 634 -18 q 308 29 396 -18 q 171 157 219 75 q 122 341 122 238 l 122 1010 l 245 1010 l 245 351 q 317 168 245 240 q 515 97 389 97 q 713 168 642 97 q 785 351 785 240 l 785 1010 m 402 -264 l 312 -260 q 355 -137 312 -185 q 462 -89 398 -89 q 526 -105 499 -89 q 579 -136 553 -120 q 641 -152 606 -152 q 689 -130 669 -152 q 708 -77 708 -108 l 797 -85 q 754 -207 797 -162 q 647 -253 711 -253 q 591 -243 613 -253 q 551 -221 569 -233 q 515 -199 534 -209 q 468 -189 496 -189 q 421 -211 439 -189 q 402 -264 402 -233 z "},"Ṷ":{"ha":1030,"x_min":122,"x_max":908,"o":"m 785 1010 l 908 1010 l 908 341 q 859 157 908 238 q 722 29 810 75 q 515 -18 634 -18 q 308 29 396 -18 q 171 157 219 75 q 122 341 122 238 l 122 1010 l 245 1010 l 245 351 q 317 168 245 240 q 515 97 389 97 q 713 168 642 97 q 785 351 785 240 l 785 1010 m 618 -290 l 515 -152 l 412 -290 l 302 -290 l 302 -282 l 462 -77 l 568 -77 l 728 -282 l 728 -290 l 618 -290 z "},"Ṹ":{"ha":1030,"x_min":122,"x_max":908,"o":"m 785 1010 l 908 1010 l 908 341 q 859 157 908 238 q 722 29 810 75 q 515 -18 634 -18 q 308 29 396 -18 q 171 157 219 75 q 122 341 122 238 l 122 1010 l 245 1010 l 245 351 q 317 168 245 240 q 515 97 389 97 q 713 168 642 97 q 785 351 785 240 l 785 1010 m 363 1101 l 272 1105 q 315 1228 272 1180 q 422 1276 359 1276 q 487 1261 460 1276 q 540 1229 513 1245 q 602 1213 566 1213 q 649 1235 630 1213 q 669 1288 669 1257 l 758 1280 q 714 1158 758 1203 q 608 1113 671 1113 q 551 1122 574 1113 q 512 1144 529 1132 q 475 1166 495 1157 q 428 1176 456 1176 q 382 1154 400 1176 q 363 1101 363 1132 m 450 1318 l 594 1468 l 730 1468 l 552 1318 l 450 1318 z "},"Ṻ":{"ha":1030,"x_min":122,"x_max":908,"o":"m 785 1010 l 908 1010 l 908 341 q 859 157 908 238 q 722 29 810 75 q 515 -18 634 -18 q 308 29 396 -18 q 171 157 219 75 q 122 341 122 238 l 122 1010 l 245 1010 l 245 351 q 317 168 245 240 q 515 97 389 97 q 713 168 642 97 q 785 351 785 240 l 785 1010 m 746 1237 l 746 1134 l 284 1134 l 284 1237 l 746 1237 m 596 1376 q 616 1429 596 1408 q 675 1450 636 1450 q 732 1428 713 1450 q 752 1375 752 1406 q 732 1323 752 1344 q 675 1302 712 1302 q 616 1323 636 1302 q 596 1376 596 1344 m 278 1377 q 298 1429 278 1407 q 356 1452 317 1452 q 414 1430 394 1452 q 434 1377 434 1408 q 414 1325 434 1346 q 355 1304 394 1304 q 298 1325 318 1304 q 278 1377 278 1346 z "},"Ụ":{"ha":1030,"x_min":122,"x_max":908,"o":"m 785 1010 l 908 1010 l 908 341 q 859 157 908 238 q 722 29 810 75 q 515 -18 634 -18 q 308 29 396 -18 q 171 157 219 75 q 122 341 122 238 l 122 1010 l 245 1010 l 245 351 q 317 168 245 240 q 515 97 389 97 q 713 168 642 97 q 785 351 785 240 l 785 1010 m 515 -264 q 456 -241 481 -264 q 432 -185 432 -218 q 456 -130 432 -153 q 515 -107 481 -107 q 573 -130 549 -107 q 598 -185 598 -153 q 573 -241 598 -218 q 515 -264 549 -264 z "},"Ủ":{"ha":1030,"x_min":122,"x_max":908,"o":"m 785 1010 l 908 1010 l 908 341 q 859 157 908 238 q 722 29 810 75 q 515 -18 634 -18 q 308 29 396 -18 q 171 157 219 75 q 122 341 122 238 l 122 1010 l 245 1010 l 245 351 q 317 168 245 240 q 515 97 389 97 q 713 168 642 97 q 785 351 785 240 l 785 1010 m 566 1113 l 470 1113 l 470 1219 q 543 1234 521 1222 q 564 1269 564 1245 q 533 1308 564 1295 q 458 1320 502 1320 l 462 1395 q 616 1359 564 1395 q 669 1265 669 1324 q 637 1191 669 1214 q 566 1162 605 1168 l 566 1113 z "},"Ứ":{"ha":1201,"x_min":122,"x_max":1134,"o":"m 1020 1071 l 1134 1071 q 1082 868 1134 942 q 908 779 1029 794 l 908 341 q 859 157 908 238 q 722 29 810 75 q 515 -18 634 -18 q 308 29 396 -18 q 171 157 219 75 q 122 341 122 238 l 122 1010 l 245 1010 l 245 351 q 317 168 245 240 q 515 97 389 97 q 713 168 642 97 q 785 351 785 240 l 785 1010 l 908 1010 l 908 878 q 996 942 973 893 q 1020 1071 1020 990 m 462 1113 l 582 1342 l 718 1342 l 564 1113 l 462 1113 z "},"Ừ":{"ha":1201,"x_min":122,"x_max":1134,"o":"m 1020 1071 l 1134 1071 q 1082 868 1134 942 q 908 779 1029 794 l 908 341 q 859 157 908 238 q 722 29 810 75 q 515 -18 634 -18 q 308 29 396 -18 q 171 157 219 75 q 122 341 122 238 l 122 1010 l 245 1010 l 245 351 q 317 168 245 240 q 515 97 389 97 q 713 168 642 97 q 785 351 785 240 l 785 1010 l 908 1010 l 908 878 q 996 942 973 893 q 1020 1071 1020 990 m 466 1113 l 312 1342 l 448 1342 l 568 1113 l 466 1113 z "},"Ử":{"ha":1201,"x_min":122,"x_max":1134,"o":"m 1020 1071 l 1134 1071 q 1082 868 1134 942 q 908 779 1029 794 l 908 341 q 859 157 908 238 q 722 29 810 75 q 515 -18 634 -18 q 308 29 396 -18 q 171 157 219 75 q 122 341 122 238 l 122 1010 l 245 1010 l 245 351 q 317 168 245 240 q 515 97 389 97 q 713 168 642 97 q 785 351 785 240 l 785 1010 l 908 1010 l 908 878 q 996 942 973 893 q 1020 1071 1020 990 m 566 1113 l 470 1113 l 470 1219 q 543 1234 521 1222 q 564 1269 564 1245 q 533 1308 564 1295 q 458 1320 502 1320 l 462 1395 q 616 1359 564 1395 q 669 1265 669 1324 q 637 1191 669 1214 q 566 1162 605 1168 l 566 1113 z "}}}
